SplineFontDB: 3.2
FontName: OptimaNovaLTPro-TitlingInit
FullName: Optima nova LT Pro Titling Initials
FamilyName: Optima nova LT Pro
Weight: Titling
Copyright: Copyright (c) 2003 - 2008 Linotype GmbH, www.linotype.com. All rights reserved. This font software may not be reproduced, modified, disclosed or transferred without the express written approval of Linotype GmbH. Optima is a trademark of Linotype GmbH registered in the U.S. Patent and Trademark Office and may be registered in certain other jurisdictions. This typeface is original artwork of Hermann Zapf and Akira Kobayashi. The design may be protected in certain jurisdictions.
Version: 001.002
ItalicAngle: 0
UnderlinePosition: -100
UnderlineWidth: 50
Ascent: 748
Descent: 252
InvalidEm: 0
sfntRevision: 0x00013333
LayerCount: 2
Layer: 0 0 "Warstwa t+AUIA-a" 1
Layer: 1 0 "Plan pierwszy" 0
XUID: [1021 354 -1132248829 15363]
StyleMap: 0x0000
FSType: 4
OS2Version: 2
OS2_WeightWidthSlopeOnly: 0
OS2_UseTypoMetrics: 0
CreationTime: 1231342289
ModificationTime: 1233943645
PfmFamily: 17
TTFWeight: 350
TTFWidth: 5
LineGap: 244
VLineGap: 0
Panose: 2 14 4 2 6 5 4 2 3 3
OS2TypoAscent: 748
OS2TypoAOffset: 0
OS2TypoDescent: -252
OS2TypoDOffset: 0
OS2TypoLinegap: 244
OS2WinAscent: 965
OS2WinAOffset: 0
OS2WinDescent: 277
OS2WinDOffset: 0
HheadAscent: 748
HheadAOffset: 0
HheadDescent: -252
HheadDOffset: 0
OS2SubXSize: 650
OS2SubYSize: 600
OS2SubXOff: 0
OS2SubYOff: 75
OS2SupXSize: 700
OS2SupYSize: 650
OS2SupXOff: 0
OS2SupYOff: 477
OS2StrikeYSize: 50
OS2StrikeYPos: 280
OS2CapHeight: 683
OS2XHeight: 469
OS2Vendor: 'LINO'
OS2CodePages: 2000009b.00000000
OS2UnicodeRanges: 8000002f.5000204a.00000000.00000000
Lookup: 1 0 0 "'aalt' Dost+ARkA-p do wszystkich alternatyw w +AUIA-aci+AUQA-skie w tablicy 0" { "Podtablica 'aalt' Dost+ARkA-p do wszystkich alternatyw w +AUIA-aci+AUQA-skie w tablicy 0"  } ['aalt' ('latn' <'AFK ' 'DEU ' 'NLD ' 'ROM ' 'TRK ' 'dflt' > ) ]

StartChar: .notdef
Encoding: 65536 -1 0
Width: 512
GlyphClass: 1
Flags: MW
HStem: 0 50<50 462 50 512> 559 50<235.5 276.5> 667 51<50 462 462 462>
VStem: 0 50<50 667 50 718> 332 51<461.5 498> 462 50<50 50 50 667>
LayerCount: 2
Fore
SplineSet
222 117 m 1
 278 117 l 1
 278 184 l 1
 222 184 l 1
 222 117 l 1
225 234 m 1
 271 234 l 1
 271 269 273 293 277 306 c 0
 281 319 295 336 320 358 c 0
 371 405 383 435 383 478 c 0
 383 557 330 609 259 609 c 0
 187 609 133 567 124 472 c 1
 174 464 l 1
 182 532 215 559 256 559 c 0
 297 559 332 522 332 474 c 0
 332 449 325 432 282 391 c 0
 260 369 245 349 236 332 c 0
 227 315 223 288 223 251 c 1
 225 234 l 1
462 50 m 1
 50 50 l 1
 50 667 l 1
 462 667 l 1
 462 50 l 1
512 718 m 1
 0 718 l 1
 0 0 l 1
 512 0 l 1
 512 718 l 1
EndSplineSet
EndChar

StartChar: exclam
Encoding: 33 33 4
Width: 350
GlyphClass: 1
Flags: MW
HStem: -9 20
LayerCount: 2
Fore
SplineSet
190 170 m 1
 164 170 l 1
 154 466 128 566 128 637 c 0
 128 681 147 698 177 698 c 0
 208 698 227 681 227 637 c 0
 227 566 203 466 190 170 c 1
231 45 m 0
 231 16 206 -9 177 -9 c 0
 148 -9 123 16 123 45 c 0
 123 75 148 100 177 100 c 0
 206 100 231 75 231 45 c 0
EndSplineSet
EndChar

StartChar: quotedbl
Encoding: 34 34 5
Width: 324
GlyphClass: 1
Flags: MW
HStem: 475 254<96 111.5 96 114 93 111.5 215 230 96 233 96 212>
LayerCount: 2
Fore
SplineSet
256 699 m 0
 256 691 254 660 233 475 c 1
 212 475 l 1
 192 660 189 691 189 699 c 0
 189 717 208 729 222 729 c 0
 238 729 256 717 256 699 c 0
137 699 m 0
 137 691 135 660 114 475 c 1
 93 475 l 1
 72 660 70 691 70 699 c 0
 70 717 88 729 104 729 c 0
 119 729 137 717 137 699 c 0
EndSplineSet
AlternateSubs2: "Podtablica 'aalt' Dost+ARkA-p do wszystkich alternatyw w +AUIA-aci+AUQA-skie w tablicy 1" quotedbl quotesingle quoteleft quoteright quotedblleft quotedblright quotesinglbase quotedblbase guilsinglleft guilsinglright guillemotleft guillemotright
EndChar

StartChar: numbersign
Encoding: 35 35 6
Width: 537
GlyphClass: 1
Flags: MW
HStem: -1 20
LayerCount: 2
Fore
SplineSet
501 502 m 1
 496 490 490 457 490 448 c 1
 470 450 424 452 397 452 c 1
 351 237 l 1
 394 237 426 237 444 239 c 1
 439 225 435 203 433 185 c 1
 414 187 375 189 340 189 c 1
 322 103 311 41 306 -1 c 1
 301 0 298 0 290 0 c 0
 281 0 271 0 261 -1 c 1
 272 36 288 111 304 189 c 1
 163 189 l 1
 147 115 133 38 128 -1 c 1
 122 0 115 0 107 0 c 0
 98 0 93 0 83 -1 c 1
 95 36 113 121 127 189 c 1
 90 189 64 189 34 187 c 1
 41 206 44 232 44 241 c 1
 64 239 102 237 137 237 c 1
 183 452 l 1
 156 452 121 452 90 450 c 1
 95 460 101 487 101 504 c 1
 124 502 166 500 194 500 c 1
 209 577 216 616 222 659 c 1
 230 658 232 658 240 658 c 0
 249 658 259 658 267 659 c 1
 255 620 245 577 230 500 c 1
 371 500 l 1
 389 584 394 616 400 659 c 1
 408 658 415 658 423 658 c 0
 432 658 438 658 445 659 c 1
 433 620 423 577 408 500 c 1
 443 500 473 500 501 502 c 1
361 452 m 1
 220 452 l 1
 173 237 l 1
 315 237 l 1
 361 452 l 1
EndSplineSet
EndChar

StartChar: dollar
Encoding: 36 36 7
Width: 556
GlyphClass: 1
Flags: W
LayerCount: 2
Fore
SplineSet
472 193 m 0
 472 98 411 27 320 9 c 0
 300 5 295 0 295 -41 c 0
 295 -55 296 -85 299 -114 c 1
 289 -113 283 -113 276 -113 c 0
 269 -113 262 -113 253 -114 c 1
 256 -83 258 -52 258 -42 c 0
 258 -4 250 1 233 2 c 0
 181 4 109 21 76 44 c 1
 80 71 87 105 94 132 c 1
 107 133 l 1
 124 69 184 34 233 34 c 0
 255 34 258 39 258 134 c 2
 258 240 l 2
 258 312 255 323 234 332 c 0
 164 361 90 395 90 507 c 0
 90 603 166 666 239 677 c 0
 253 679 258 686 258 706 c 0
 258 722 256 738 253 755 c 1
 262 754 269 754 276 754 c 0
 283 754 289 754 299 755 c 1
 297 740 295 724 295 705 c 0
 295 686 298 680 314 680 c 0
 362 680 419 664 455 643 c 1
 445 620 437 597 430 570 c 1
 419 569 l 1
 408 611 364 649 316 649 c 0
 298 649 295 637 295 573 c 2
 295 484 l 2
 295 393 298 383 314 376 c 0
 408 338 472 303 472 193 c 0
258 485 m 2
 258 572 l 2
 258 627 257 645 240 645 c 0
 203 645 159 590 159 522 c 0
 159 458 185 430 228 409 c 0
 232 407 241 404 245 404 c 0
 254 404 258 414 258 485 c 2
403 174 m 0
 403 243 356 281 320 297 c 0
 316 299 310 301 307 301 c 0
 298 301 295 293 295 239 c 2
 295 135 l 2
 295 44 301 39 311 39 c 0
 357 39 403 100 403 174 c 0
EndSplineSet
EndChar

StartChar: percent
Encoding: 37 37 8
Width: 746
GlyphClass: 1
Flags: W
LayerCount: 2
Fore
SplineSet
344 531 m 0
 344 444 287 381 196 381 c 0
 88 381 48 458 48 531 c 0
 48 615 101 680 196 680 c 0
 296 680 344 619 344 531 c 0
282 531 m 0
 282 588 262 657 197 657 c 0
 130 657 111 588 111 531 c 0
 111 476 130 405 197 405 c 0
 262 405 282 474 282 531 c 0
698 144 m 0
 698 57 641 -6 550 -6 c 0
 442 -6 402 71 402 144 c 0
 402 228 455 293 550 293 c 0
 650 293 698 232 698 144 c 0
636 144 m 0
 636 201 616 270 551 270 c 0
 484 270 465 201 465 144 c 0
 465 89 484 18 551 18 c 0
 616 18 636 87 636 144 c 0
656 704 m 1
 538 548 249 142 121 -45 c 1
 81 -29 l 1
 211 134 519 569 614 721 c 1
 656 704 l 1
EndSplineSet
Ligature2: "Podtablica Podstawienie ligatur+AQUA w tablicy 23" zero fraction zero
EndChar

StartChar: ampersand
Encoding: 38 38 9
Width: 730
GlyphClass: 1
Flags: MW
HStem: -15 20 660 20<324 414.5>
LayerCount: 2
Fore
SplineSet
447 557 m 0
 447 601 430 655 366 655 c 0
 303 655 282 599 282 548 c 0
 282 508 295 466 313 435 c 0
 321 421 330 415 339 415 c 0
 345 415 351 417 358 420 c 0
 401 440 447 488 447 557 c 0
153 199 m 0
 153 103 215 34 317 34 c 0
 374 34 420 55 452 82 c 0
 462 90 468 102 468 111 c 0
 468 120 463 127 457 134 c 0
 398 196 333 277 292 337 c 0
 285 346 276 351 267 351 c 0
 230 351 153 300 153 199 c 0
611 -6 m 1
 583 15 552 42 529 64 c 0
 522 71 514 76 507 76 c 0
 500 76 492 72 484 65 c 0
 437 23 367 -15 278 -15 c 0
 168 -15 75 56 75 181 c 0
 75 286 163 344 232 371 c 0
 246 377 255 383 255 391 c 0
 255 396 252 402 247 411 c 0
 225 449 209 493 209 536 c 0
 209 625 274 680 374 680 c 0
 455 680 506 635 506 562 c 0
 506 468 432 427 379 401 c 0
 363 394 356 387 356 380 c 0
 356 373 358 367 364 358 c 0
 396 311 460 234 502 193 c 0
 512 183 520 178 527 178 c 0
 535 178 541 185 547 195 c 0
 575 246 586 311 586 364 c 0
 586 378 584 400 580 416 c 1
 587 418 l 1
 602 404 636 368 649 353 c 1
 641 299 609 221 571 166 c 0
 568 161 565 155 565 150 c 0
 565 141 569 131 579 121 c 0
 613 89 675 44 723 13 c 1
 720 8 l 1
 691 6 640 0 611 -6 c 1
EndSplineSet
EndChar

StartChar: quotesingle
Encoding: 39 39 10
Width: 205
GlyphClass: 1
Flags: MW
HStem: 475 254<97 112.5 97 115 94 112.5>
LayerCount: 2
Fore
SplineSet
138 699 m 0
 138 691 136 659 115 475 c 1
 94 475 l 1
 73 660 71 691 71 699 c 0
 71 717 89 729 105 729 c 0
 120 729 138 717 138 699 c 0
EndSplineSet
AlternateSubs2: "Podtablica 'aalt' Dost+ARkA-p do wszystkich alternatyw w +AUIA-aci+AUQA-skie w tablicy 1" quotedbl quotesingle quoteleft quoteright quotedblleft quotedblright quotesinglbase quotedblbase guilsinglleft guilsinglright guillemotleft guillemotright
EndChar

StartChar: parenleft
Encoding: 40 40 11
Width: 285
GlyphClass: 1
Flags: MW
VStem: 42 61<256.5 419.5 256.5 419.5>
LayerCount: 2
Fore
SplineSet
225 -90 m 1
 204 -103 l 1
 103 -3 42 167 42 338 c 0
 42 501 103 680 204 779 c 1
 225 765 l 1
 135 648 103 501 103 338 c 0
 103 175 135 28 225 -90 c 1
EndSplineSet
EndChar

StartChar: parenright
Encoding: 41 41 12
Width: 285
GlyphClass: 1
Flags: W
LayerCount: 2
Fore
SplineSet
61 -90 m 1
 151 28 183 175 183 338 c 0
 183 501 151 648 61 765 c 1
 82 779 l 1
 183 680 244 501 244 338 c 0
 244 167 183 -3 82 -103 c 1
 61 -90 l 1
EndSplineSet
EndChar

StartChar: asterisk
Encoding: 42 42 13
Width: 482
GlyphClass: 1
Flags: W
LayerCount: 2
Fore
SplineSet
256 605 m 0
 255 596 259 594 266 599 c 0
 304 620 353 658 383 683 c 1
 386 676 391 666 396 656 c 0
 402 647 408 638 412 632 c 1
 375 620 320 593 281 573 c 0
 273 569 274 565 281 561 c 0
 319 539 376 515 412 502 c 1
 408 496 402 487 396 477 c 0
 391 468 386 458 383 451 c 1
 354 477 303 512 266 535 c 0
 259 540 256 538 256 529 c 0
 256 486 264 424 270 386 c 1
 263 387 252 388 241 388 c 0
 230 388 219 387 212 386 c 1
 220 424 224 486 226 529 c 0
 226 538 223 540 216 535 c 0
 178 514 129 476 99 451 c 1
 96 458 91 468 86 478 c 0
 80 487 74 496 70 502 c 1
 107 514 162 541 201 561 c 0
 209 565 208 569 201 573 c 0
 163 595 106 619 70 632 c 1
 74 638 80 647 86 657 c 0
 91 666 96 676 99 683 c 1
 128 657 179 622 215 599 c 0
 223 594 226 596 226 605 c 0
 226 648 218 710 212 748 c 1
 219 747 230 746 241 746 c 0
 252 746 263 747 270 748 c 1
 262 710 258 648 256 605 c 0
EndSplineSet
EndChar

StartChar: plus
Encoding: 43 43 14
Width: 480
GlyphClass: 1
Flags: W
LayerCount: 2
Fore
SplineSet
270 282 m 2
 261 282 l 1
 261 272 l 2
 261 225 263 136 266 88 c 1
 255 89 248 89 241 89 c 0
 234 89 228 89 216 88 c 1
 219 136 220 227 220 272 c 2
 220 282 l 1
 209 282 l 2
 166 282 82 279 37 277 c 1
 38 286 38 293 38 300 c 0
 38 307 38 313 37 323 c 1
 82 320 166 319 209 319 c 2
 220 319 l 1
 220 332 l 2
 220 377 218 466 215 514 c 1
 226 513 233 513 240 513 c 0
 247 513 253 513 265 514 c 1
 262 466 261 377 261 332 c 2
 261 319 l 1
 270 319 l 2
 314 319 398 321 443 324 c 1
 442 315 442 308 442 301 c 0
 442 294 442 288 443 278 c 1
 398 281 312 283 270 282 c 2
EndSplineSet
EndChar

StartChar: comma
Encoding: 44 44 15
Width: 260
GlyphClass: 1
Flags: W
LayerCount: 2
Fore
SplineSet
178 81 m 0
 178 74 176 66 169 54 c 0
 139 0 69 -121 41 -167 c 1
 22 -164 l 1
 21 -162 l 1
 49 -84 85 20 99 71 c 0
 105 93 111 108 139 108 c 0
 161 108 178 102 178 81 c 0
EndSplineSet
EndChar

StartChar: hyphen
Encoding: 45 45 16
Width: 300
GlyphClass: 1
Flags: W
LayerCount: 2
Fore
SplineSet
45 376 m 1
 102 375 183 375 258 379 c 1
 263 376 l 1
 259 363 256 339 255 326 c 1
 203 329 96 327 41 325 c 1
 37 328 l 1
 41 337 44 358 45 376 c 1
EndSplineSet
AlternateSubs2: "Podtablica 'aalt' Dost+ARkA-p do wszystkich alternatyw w +AUIA-aci+AUQA-skie w tablicy 1" hyphen uni00AD endash emdash minus
EndChar

StartChar: period
Encoding: 46 46 17
Width: 260
GlyphClass: 1
Flags: MW
HStem: -11 20
LayerCount: 2
Fore
SplineSet
185 43 m 0
 185 13 160 -11 131 -11 c 0
 102 -11 77 13 77 43 c 0
 77 72 102 95 131 95 c 0
 160 95 185 72 185 43 c 0
EndSplineSet
EndChar

StartChar: slash
Encoding: 47 47 18
Width: 411
GlyphClass: 1
Flags: W
LayerCount: 2
Fore
SplineSet
342 547 m 2
 342 542 l 1
 311 487 153 219 104 137 c 0
 99 134 89 130 81 129 c 1
 77 135 l 1
 151 263 211 373 304 559 c 0
 306 562 311 564 316 564 c 0
 327 564 340 556 342 547 c 2
EndSplineSet
Substitution2: "Podtablica 'frac' U+AUIA-amki uko+AVsA-ne w +AUIA-aci+AUQA-skie w tablicy 9" fraction
Substitution2: "Podtablica 'aalt' Dost+ARkA-p do wszystkich alternatyw w +AUIA-aci+AUQA-skie w tablicy 0" fraction
EndChar

StartChar: zero
Encoding: 48 48 19
Width: 835
GlyphClass: 1
Flags: MW
HStem: -16 20 676 20<309 531>
LayerCount: 2
Fore
SplineSet
775 341 m 0
 775 128 636 -16 419 -16 c 0
 202 -16 60 123 60 341 c 0
 60 558 199 696 419 696 c 0
 643 696 775 559 775 341 c 0
685 341 m 0
 685 552 583 666 418 666 c 0
 254 666 151 558 151 341 c 0
 151 127 255 16 418 16 c 0
 580 16 685 126 685 341 c 0
EndSplineSet
Substitution2: "Podtablica 'sups' Frakcja g+APMA-rna w +AUIA-aci+AUQA-skie w tablicy 10" zero
Substitution2: "Podtablica 'aalt' Dost+ARkA-p do wszystkich alternatyw w +AUIA-aci+AUQA-skie w tablicy 0" zero
EndChar

StartChar: one
Encoding: 49 49 20
Width: 350
GlyphClass: 1
Flags: MW
HStem: -5 20 676 20<234 234>
LayerCount: 2
Fore
SplineSet
140 -2 m 1
 151 149 156 404 156 479 c 2
 156 542 l 2
 156 602 153 613 138 619 c 0
 120 626 79 626 5 623 c 1
 5 648 l 1
 108 659 188 677 234 696 c 1
 242 692 l 1
 236 621 232 508 232 431 c 2
 232 341 l 2
 232 249 234 81 239 3 c 1
 236 0 l 1
 212 0 175 -2 143 -5 c 1
 140 -2 l 1
EndSplineSet
Substitution2: "Podtablica 'sups' Frakcja g+APMA-rna w +AUIA-aci+AUQA-skie w tablicy 11" onesuperior
Substitution2: "Podtablica 'sups' Frakcja g+APMA-rna w +AUIA-aci+AUQA-skie w tablicy 10" one
AlternateSubs2: "Podtablica 'aalt' Dost+ARkA-p do wszystkich alternatyw w +AUIA-aci+AUQA-skie w tablicy 1" one onesuperior
EndChar

StartChar: two
Encoding: 50 50 21
Width: 520
GlyphClass: 1
Flags: MW
HStem: -2 20 677 20<207.5 311>
LayerCount: 2
Fore
SplineSet
488 76 m 1
 491 73 l 1
 488 59 487 16 487 -2 c 1
 404 0 326 1 254 1 c 0
 179 1 91 0 16 -2 c 1
 13 11 l 1
 276 272 349 385 349 500 c 0
 349 582 311 648 225 648 c 0
 159 648 110 611 84 558 c 1
 77 558 l 1
 60 578 l 1
 92 645 162 697 253 697 c 0
 369 697 438 627 438 524 c 0
 438 430 393 351 164 118 c 0
 154 107 148 97 148 90 c 0
 148 70 175 68 268 68 c 0
 337 68 443 72 488 76 c 1
EndSplineSet
Substitution2: "Podtablica 'sups' Frakcja g+APMA-rna w +AUIA-aci+AUQA-skie w tablicy 11" twosuperior
Substitution2: "Podtablica 'sups' Frakcja g+APMA-rna w +AUIA-aci+AUQA-skie w tablicy 10" two
AlternateSubs2: "Podtablica 'aalt' Dost+ARkA-p do wszystkich alternatyw w +AUIA-aci+AUQA-skie w tablicy 1" two twosuperior
EndChar

StartChar: three
Encoding: 51 51 22
Width: 500
GlyphClass: 1
Flags: MW
HStem: -17 20 677 20<204 288.5>
LayerCount: 2
Fore
SplineSet
212 651 m 0
 160 651 110 620 86 575 c 1
 80 575 l 1
 64 595 l 1
 100 657 167 697 241 697 c 0
 336 697 411 646 411 544 c 0
 411 462 349 411 304 391 c 0
 292 386 285 377 285 372 c 0
 285 365 292 359 303 357 c 0
 361 346 440 315 440 209 c 0
 440 84 335 -17 178 -17 c 0
 110 -17 59 0 23 20 c 1
 28 36 37 84 40 111 c 1
 53 112 l 1
 72 51 108 15 180 15 c 0
 282 15 353 88 353 195 c 0
 353 309 286 346 200 346 c 0
 186 346 167 343 154 340 c 1
 155 351 155 357 155 362 c 0
 155 368 155 375 154 385 c 1
 165 384 185 383 200 383 c 0
 297 383 329 463 329 530 c 0
 329 604 287 651 212 651 c 0
EndSplineSet
Substitution2: "Podtablica 'sups' Frakcja g+APMA-rna w +AUIA-aci+AUQA-skie w tablicy 11" threesuperior
Substitution2: "Podtablica 'sups' Frakcja g+APMA-rna w +AUIA-aci+AUQA-skie w tablicy 10" three
AlternateSubs2: "Podtablica 'aalt' Dost+ARkA-p do wszystkich alternatyw w +AUIA-aci+AUQA-skie w tablicy 1" three threesuperior
EndChar

StartChar: four
Encoding: 52 52 23
Width: 530
GlyphClass: 1
Flags: MW
HStem: -5 20 674 20<408 408>
LayerCount: 2
Fore
SplineSet
408 694 m 1
 414 690 l 1
 405 569 404 425 404 277 c 0
 404 254 407 242 435 242 c 0
 458 242 485 244 505 247 c 1
 508 244 l 1
 505 230 503 200 503 187 c 1
 484 189 460 191 436 191 c 0
 408 191 404 180 404 163 c 2
 404 148 l 2
 404 95 406 49 411 3 c 1
 408 0 l 1
 393 0 350 -2 324 -5 c 1
 322 -3 l 1
 327 48 329 97 329 148 c 2
 329 163 l 2
 329 181 322 191 279 191 c 0
 186 191 86 190 15 188 c 1
 12 211 l 1
 128 370 273 575 344 680 c 1
 361 686 391 692 408 694 c 1
121 241 m 0
 145 239 174 239 190 239 c 0
 226 239 282 240 299 241 c 0
 326 243 332 251 333 324 c 2
 335 556 l 2
 335 571 333 581 325 581 c 0
 318 581 308 569 296 553 c 0
 244 483 153 356 107 283 c 0
 102 275 96 264 96 257 c 0
 96 247 101 243 121 241 c 0
EndSplineSet
Substitution2: "Podtablica 'sups' Frakcja g+APMA-rna w +AUIA-aci+AUQA-skie w tablicy 10" four
Substitution2: "Podtablica 'aalt' Dost+ARkA-p do wszystkich alternatyw w +AUIA-aci+AUQA-skie w tablicy 0" four
EndChar

StartChar: five
Encoding: 53 53 24
Width: 500
GlyphClass: 1
Flags: MW
HStem: -17 20 662 20<94 94 429 429>
LayerCount: 2
Fore
SplineSet
428 605 m 1
 362 610 268 612 206 612 c 0
 145 612 139 607 135 587 c 0
 130 557 125 482 125 436 c 0
 125 394 136 393 156 398 c 0
 174 403 211 410 244 410 c 0
 368 410 438 322 438 219 c 0
 438 88 337 -17 185 -17 c 0
 124 -17 65 -5 21 25 c 1
 26 42 33 74 36 111 c 1
 50 112 l 1
 72 43 124 13 190 13 c 0
 278 13 350 85 350 207 c 0
 350 323 280 371 206 371 c 0
 154 371 111 350 94 337 c 1
 83 342 l 1
 89 390 91 452 91 503 c 0
 91 560 90 639 85 676 c 1
 94 682 l 1
 133 679 180 678 213 678 c 0
 273 678 340 679 429 682 c 1
 432 679 l 1
 429 654 428 622 428 605 c 1
EndSplineSet
Substitution2: "Podtablica 'sups' Frakcja g+APMA-rna w +AUIA-aci+AUQA-skie w tablicy 10" five
Substitution2: "Podtablica 'aalt' Dost+ARkA-p do wszystkich alternatyw w +AUIA-aci+AUQA-skie w tablicy 0" five
EndChar

StartChar: six
Encoding: 54 54 25
Width: 600
GlyphClass: 1
Flags: MW
HStem: -17 20 677 20<311 448.5>
LayerCount: 2
Fore
SplineSet
346 407 m 0
 482 407 546 317 546 204 c 0
 546 92 469 -17 317 -17 c 0
 126 -17 61 125 61 263 c 0
 61 469 195 697 427 697 c 0
 470 697 515 689 533 684 c 1
 530 658 527 622 527 598 c 1
 512 596 l 1
 502 642 471 664 416 664 c 0
 242 664 146 457 146 275 c 0
 146 118 214 14 323 14 c 0
 420 14 467 99 467 196 c 0
 467 274 433 366 326 366 c 0
 270 366 221 336 200 305 c 1
 193 305 l 1
 185 321 l 1
 210 364 271 407 346 407 c 0
EndSplineSet
Substitution2: "Podtablica 'sups' Frakcja g+APMA-rna w +AUIA-aci+AUQA-skie w tablicy 10" six
Substitution2: "Podtablica 'aalt' Dost+ARkA-p do wszystkich alternatyw w +AUIA-aci+AUQA-skie w tablicy 0" six
EndChar

StartChar: seven
Encoding: 55 55 26
Width: 500
GlyphClass: 1
Flags: MW
HStem: -3 20 662 20
LayerCount: 2
Fore
SplineSet
49 599 m 1
 46 602 l 1
 48 625 51 665 51 682 c 1
 130 677 226 675 339 675 c 0
 400 675 442 675 487 677 c 1
 488 660 l 1
 371 459 245 237 137 25 c 0
 133 17 130 9 127 0 c 1
 108 0 72 -1 48 -3 c 1
 45 0 l 1
 163 186 314 438 394 576 c 0
 398 582 400 589 400 594 c 0
 400 607 389 610 330 610 c 0
 256 610 140 606 49 599 c 1
EndSplineSet
Substitution2: "Podtablica 'sups' Frakcja g+APMA-rna w +AUIA-aci+AUQA-skie w tablicy 10" seven
Substitution2: "Podtablica 'aalt' Dost+ARkA-p do wszystkich alternatyw w +AUIA-aci+AUQA-skie w tablicy 0" seven
EndChar

StartChar: eight
Encoding: 56 56 27
Width: 580
GlyphClass: 1
Flags: MW
HStem: -17 20 677 20<231 358.5>
LayerCount: 2
Fore
SplineSet
59 185 m 0
 59 269 111 333 178 362 c 0
 192 368 203 375 203 385 c 0
 203 393 194 398 182 404 c 0
 135 427 95 462 95 531 c 0
 95 619 172 697 290 697 c 0
 427 697 488 623 488 544 c 0
 488 473 452 434 407 410 c 0
 394 403 383 396 383 386 c 0
 383 377 393 372 406 367 c 0
 456 348 521 308 521 209 c 0
 521 72 418 -17 290 -17 c 0
 159 -17 59 57 59 185 c 0
408 535 m 0
 408 607 373 669 291 669 c 0
 210 669 175 607 175 535 c 0
 175 464 210 398 291 398 c 0
 373 398 408 464 408 535 c 0
436 190 m 0
 436 292 379 370 290 370 c 0
 201 370 144 292 144 190 c 0
 144 89 201 11 290 11 c 0
 379 11 436 89 436 190 c 0
EndSplineSet
Substitution2: "Podtablica 'sups' Frakcja g+APMA-rna w +AUIA-aci+AUQA-skie w tablicy 10" eight
Substitution2: "Podtablica 'aalt' Dost+ARkA-p do wszystkich alternatyw w +AUIA-aci+AUQA-skie w tablicy 0" eight
EndChar

StartChar: nine
Encoding: 57 57 28
Width: 600
GlyphClass: 1
Flags: MW
HStem: -17 20 677 20<211 382.5>
LayerCount: 2
Fore
SplineSet
454 405 m 0
 454 558 393 668 282 668 c 0
 179 668 134 574 134 489 c 0
 134 416 172 333 275 333 c 0
 333 333 375 364 395 391 c 1
 402 391 l 1
 410 375 l 1
 390 340 330 289 249 289 c 0
 131 289 55 363 55 476 c 0
 55 588 135 697 287 697 c 0
 478 697 539 550 539 417 c 0
 539 211 405 -17 173 -17 c 0
 130 -17 84 -10 67 -4 c 1
 70 22 73 58 73 88 c 1
 88 90 l 1
 97 54 123 16 184 16 c 0
 358 16 454 223 454 405 c 0
EndSplineSet
Substitution2: "Podtablica 'sups' Frakcja g+APMA-rna w +AUIA-aci+AUQA-skie w tablicy 10" nine
Substitution2: "Podtablica 'aalt' Dost+ARkA-p do wszystkich alternatyw w +AUIA-aci+AUQA-skie w tablicy 0" nine
EndChar

StartChar: colon
Encoding: 58 58 29
Width: 300
GlyphClass: 1
Flags: MW
HStem: 0 20
LayerCount: 2
Fore
SplineSet
206 413 m 0
 206 384 181 360 152 360 c 0
 123 360 98 384 98 413 c 0
 98 443 123 467 152 467 c 0
 181 467 206 443 206 413 c 0
206 53 m 0
 206 25 181 0 152 0 c 0
 123 0 98 25 98 53 c 0
 98 83 123 107 152 107 c 0
 181 107 206 83 206 53 c 0
EndSplineSet
EndChar

StartChar: semicolon
Encoding: 59 59 30
Width: 280
GlyphClass: 1
Flags: W
LayerCount: 2
Fore
SplineSet
205 413 m 0
 205 384 180 360 151 360 c 0
 122 360 97 384 97 413 c 0
 97 443 122 467 151 467 c 0
 180 467 205 443 205 413 c 0
200 81 m 0
 200 74 198 66 191 54 c 0
 161 0 90 -121 62 -167 c 1
 44 -164 l 1
 43 -162 l 1
 71 -84 107 20 121 71 c 0
 127 93 133 108 162 108 c 0
 184 108 200 102 200 81 c 0
EndSplineSet
EndChar

StartChar: less
Encoding: 60 60 31
Width: 480
GlyphClass: 1
Flags: W
LayerCount: 2
Fore
SplineSet
33 296 m 1
 33 300 l 1
 143 360 291 443 385 503 c 1
 390 491 398 474 407 463 c 1
 320 420 160 334 101 298 c 1
 160 262 320 176 407 133 c 1
 398 122 390 105 385 93 c 1
 291 153 143 236 33 296 c 1
EndSplineSet
EndChar

StartChar: equal
Encoding: 61 61 32
Width: 480
GlyphClass: 1
Flags: W
LayerCount: 2
Fore
SplineSet
269 349 m 2
 209 349 l 2
 166 349 82 347 37 344 c 1
 38 353 38 360 38 367 c 0
 38 374 38 380 37 390 c 1
 82 387 166 386 209 386 c 2
 269 386 l 2
 314 386 398 388 443 391 c 1
 442 382 442 375 442 368 c 0
 442 361 442 355 443 345 c 1
 398 348 312 349 269 349 c 2
269 210 m 2
 209 210 l 2
 166 210 82 208 37 205 c 1
 38 214 38 221 38 228 c 0
 38 235 38 241 37 251 c 1
 82 248 166 247 209 247 c 2
 269 247 l 2
 314 247 398 249 443 252 c 1
 442 243 442 236 442 229 c 0
 442 222 442 216 443 206 c 1
 398 209 312 210 269 210 c 2
EndSplineSet
EndChar

StartChar: greater
Encoding: 62 62 33
Width: 480
GlyphClass: 1
Flags: W
LayerCount: 2
Fore
SplineSet
447 296 m 1
 337 236 189 153 95 93 c 1
 90 105 82 122 73 133 c 1
 160 176 320 262 379 298 c 1
 320 334 160 420 73 463 c 1
 82 474 90 491 95 503 c 1
 189 443 337 360 447 300 c 1
 447 296 l 1
EndSplineSet
EndChar

StartChar: question
Encoding: 63 63 34
Width: 390
GlyphClass: 1
Flags: MW
HStem: -9 20
LayerCount: 2
Fore
SplineSet
100 610 m 1
 99 630 95 654 91 668 c 1
 114 683 156 698 202 698 c 0
 298 698 346 637 346 566 c 0
 346 485 287 430 234 379 c 0
 193 340 169 309 169 266 c 0
 169 230 190 205 226 205 c 0
 249 205 265 213 278 225 c 1
 286 220 l 1
 280 208 275 195 272 184 c 1
 259 179 239 176 220 176 c 0
 164 176 106 203 106 285 c 0
 106 344 138 386 191 441 c 0
 244 495 278 529 278 579 c 0
 278 630 248 665 192 665 c 0
 151 665 128 642 113 610 c 1
 100 610 l 1
250 45 m 0
 250 16 225 -9 196 -9 c 0
 167 -9 142 16 142 45 c 0
 142 75 167 100 196 100 c 0
 225 100 250 75 250 45 c 0
EndSplineSet
EndChar

StartChar: at
Encoding: 64 64 35
Width: 1000
GlyphClass: 1
Flags: W
LayerCount: 2
Fore
SplineSet
927 457 m 0
 927 301 815 122 634 122 c 0
 582 122 570 148 570 186 c 0
 570 211 583 262 588 276 c 1
 584 276 l 1
 544 223 466 122 375 122 c 0
 316 122 297 168 297 215 c 0
 297 353 433 583 582 583 c 0
 632 583 659 554 663 511 c 1
 670 529 679 555 686 579 c 1
 701 574 738 572 753 573 c 1
 714 493 634 266 634 200 c 0
 634 167 643 152 679 152 c 0
 776 152 881 294 881 441 c 0
 881 612 790 747 574 747 c 0
 304 747 155 527 155 282 c 0
 155 46 296 -67 491 -67 c 0
 639 -67 775 -8 869 111 c 1
 875 106 l 1
 868 75 l 1
 806 -12 659 -99 490 -99 c 0
 302 -99 86 -15 86 281 c 0
 86 533 255 775 577 775 c 0
 832 775 927 622 927 457 c 0
646 479 m 0
 646 510 633 553 586 553 c 0
 470 553 370 326 370 236 c 0
 370 202 376 171 419 171 c 0
 494 171 585 307 610 362 c 0
 627 401 646 462 646 479 c 0
EndSplineSet
EndChar

StartChar: A
Encoding: 65 65 36
Width: 721
GlyphClass: 1
Flags: MW
HStem: -5 20
LayerCount: 2
Fore
SplineSet
247 385 m 0
 238 367 244 355 266 352 c 0
 287 349 324 348 344 348 c 0
 373 348 408 349 430 352 c 0
 452 355 459 366 450 390 c 0
 434 433 405 503 379 550 c 0
 373 562 366 567 359 567 c 0
 352 567 346 561 339 550 c 0
 310 504 268 429 247 385 c 0
384 699 m 1
 399 700 l 1
 493 470 640 136 714 3 c 1
 711 0 l 1
 699 0 633 -2 609 -5 c 1
 583 66 536 185 502 263 c 0
 486 301 470 312 436 314 c 0
 413 315 377 316 341 316 c 0
 294 316 255 315 234 312 c 0
 210 309 195 291 182 266 c 0
 130 165 85 70 58 0 c 1
 32 0 7 -1 -14 -3 c 1
 -17 0 l 1
 113 221 255 470 384 699 c 1
EndSplineSet
Substitution2: "Podtablica Podstawienie pojedyncze w tablicy 21" ordfeminine
Substitution2: "Podtablica 'sups' Frakcja g+APMA-rna w +AUIA-aci+AUQA-skie w tablicy 13" ordfeminine
Substitution2: "Podtablica 'aalt' Dost+ARkA-p do wszystkich alternatyw w +AUIA-aci+AUQA-skie w tablicy 0" ordfeminine
EndChar

StartChar: B
Encoding: 66 66 37
Width: 572
GlyphClass: 1
Flags: MW
HStem: -3 20 663 20<268 335.5>
LayerCount: 2
Fore
SplineSet
351 362 m 0
 418 351 512 323 512 216 c 0
 512 46 371 -3 255 -3 c 0
 223 -3 195 0 167 0 c 0
 149 0 111 -1 97 -3 c 1
 94 0 l 1
 103 81 107 235 107 325 c 2
 107 375 l 2
 107 465 106 598 101 678 c 1
 105 682 l 1
 131 681 151 680 176 680 c 0
 202 680 257 683 279 683 c 0
 392 683 475 664 475 545 c 0
 475 450 413 405 345 386 c 0
 330 381 331 364 351 362 c 0
254 30 m 0
 342 30 425 77 425 197 c 0
 425 311 351 349 216 351 c 1
 212 353 l 1
 210 372 l 1
 214 375 l 1
 302 386 389 418 389 536 c 0
 389 639 323 653 247 653 c 0
 207 653 187 643 185 619 c 0
 183 567 181 465 181 375 c 2
 181 325 l 2
 181 234 184 119 188 72 c 0
 190 41 216 30 254 30 c 0
EndSplineSet
EndChar

StartChar: C
Encoding: 67 67 38
Width: 694
GlyphClass: 1
Flags: MW
HStem: -13 20 673 20<320.5 493.5>
LayerCount: 2
Fore
SplineSet
151 340 m 0
 151 120 282 26 454 26 c 0
 538 26 618 64 653 106 c 1
 660 104 l 1
 659 93 654 58 650 46 c 1
 619 20 537 -13 438 -13 c 0
 214 -13 62 115 62 340 c 0
 62 562 196 693 445 693 c 0
 542 693 632 669 671 647 c 1
 662 621 654 592 649 561 c 1
 635 559 l 1
 607 629 532 661 439 661 c 0
 264 661 151 550 151 340 c 0
EndSplineSet
EndChar

StartChar: D
Encoding: 68 68 39
Width: 780
GlyphClass: 1
Flags: MW
HStem: -2 20 662 20<105 105 337.5 483>
LayerCount: 2
Fore
SplineSet
189 600 m 0
 185 553 182 465 182 375 c 2
 182 325 l 2
 182 256 184 140 189 92 c 0
 194 41 232 34 317 34 c 0
 468 34 631 90 631 354 c 0
 631 586 509 647 341 647 c 0
 215 647 192 639 189 600 c 0
94 2 m 1
 103 81 107 235 107 325 c 2
 107 375 l 2
 107 465 106 598 101 678 c 1
 105 682 l 1
 131 680 161 679 191 679 c 0
 232 679 309 682 366 682 c 0
 600 682 720 596 720 354 c 0
 720 90 540 -2 339 -2 c 0
 291 -2 240 0 195 0 c 0
 168 0 127 -1 97 -1 c 1
 94 2 l 1
EndSplineSet
EndChar

StartChar: E
Encoding: 69 69 40
Width: 465
GlyphClass: 1
Flags: MW
HStem: -2 20 662 20<106 106 407 407>
LayerCount: 2
Fore
SplineSet
95 2 m 1
 104 81 108 235 108 325 c 2
 108 375 l 2
 108 465 107 598 102 678 c 1
 106 682 l 1
 132 680 162 679 190 679 c 0
 256 679 347 680 407 682 c 1
 410 679 l 1
 408 666 406 645 406 631 c 1
 369 639 303 645 248 645 c 0
 196 645 186 635 184 600 c 0
 181 552 180 491 180 458 c 2
 180 439 l 2
 180 387 189 385 226 385 c 0
 285 385 358 389 389 394 c 1
 392 391 l 1
 390 379 389 356 389 343 c 1
 354 347 285 351 226 351 c 0
 184 351 180 347 180 290 c 2
 180 273 l 2
 180 201 181 155 185 91 c 0
 188 48 201 35 259 35 c 0
 308 35 359 40 410 51 c 1
 413 48 l 1
 411 36 409 13 409 -2 c 1
 338 0 243 1 177 1 c 0
 147 1 122 0 98 -1 c 1
 95 2 l 1
EndSplineSet
EndChar

StartChar: F
Encoding: 70 70 41
Width: 455
GlyphClass: 1
Flags: MW
HStem: -5 20 662 20<106 106 407 407>
LayerCount: 2
Fore
SplineSet
182 263 m 2
 182 197 185 81 192 3 c 1
 189 0 l 1
 167 0 130 -2 98 -5 c 1
 95 -2 l 1
 104 81 108 235 108 325 c 2
 108 375 l 2
 108 465 107 598 102 678 c 1
 106 682 l 1
 132 680 162 679 190 679 c 0
 256 679 347 680 407 682 c 1
 410 679 l 1
 408 666 406 645 406 631 c 1
 369 639 303 645 250 645 c 0
 198 645 188 635 186 600 c 0
 183 552 182 491 182 458 c 2
 182 429 l 2
 182 377 191 375 228 375 c 0
 285 375 358 379 389 384 c 1
 392 381 l 1
 390 369 389 346 389 333 c 1
 354 337 285 341 228 341 c 0
 186 341 182 337 182 280 c 2
 182 263 l 2
EndSplineSet
EndChar

StartChar: G
Encoding: 71 71 42
Width: 764
GlyphClass: 1
Flags: MW
HStem: -15 20 675 20<322.5 503>
LayerCount: 2
Fore
SplineSet
691 27 m 1
 689 24 l 1
 644 7 543 -15 453 -15 c 0
 191 -15 62 130 62 341 c 0
 62 562 192 695 453 695 c 0
 553 695 644 671 684 649 c 1
 675 623 667 594 662 565 c 1
 650 563 l 1
 621 630 542 664 447 664 c 0
 253 664 151 550 151 341 c 0
 151 147 253 19 462 19 c 0
 519 19 567 28 594 43 c 0
 605 49 611 64 611 78 c 0
 611 149 608 214 602 281 c 1
 605 284 l 1
 623 284 660 286 689 289 c 1
 692 286 l 1
 688 242 687 179 687 124 c 0
 687 87 688 54 691 27 c 1
EndSplineSet
EndChar

StartChar: H
Encoding: 72 72 43
Width: 792
GlyphClass: 1
Flags: MW
HStem: -5 20 665 20<192 192 695 695>
LayerCount: 2
Fore
SplineSet
182 282 m 2
 182 207 185 81 191 3 c 1
 188 0 l 1
 166 0 129 -2 97 -5 c 1
 94 -2 l 1
 103 81 107 235 107 325 c 2
 107 375 l 2
 107 465 104 599 98 677 c 1
 101 680 l 1
 125 680 162 682 192 685 c 1
 195 682 l 1
 186 599 182 526 182 446 c 2
 182 435 l 2
 182 404 187 391 208 389 c 0
 248 386 310 385 391 385 c 0
 462 385 532 386 569 389 c 0
 597 391 610 406 610 442 c 2
 610 453 l 2
 610 543 607 599 601 677 c 1
 604 680 l 1
 626 680 663 682 695 685 c 1
 698 682 l 1
 689 599 685 465 685 375 c 2
 685 325 l 2
 685 235 688 81 694 3 c 1
 691 0 l 1
 667 0 630 -2 600 -5 c 1
 597 -2 l 1
 606 81 610 209 610 283 c 2
 610 295 l 2
 610 335 594 340 568 343 c 0
 531 346 453 348 391 348 c 0
 319 348 271 347 221 343 c 0
 200 340 182 336 182 294 c 2
 182 282 l 2
EndSplineSet
EndChar

StartChar: I
Encoding: 73 73 44
Width: 289
GlyphClass: 1
Flags: MW
HStem: -5 20 665 20<194 194>
LayerCount: 2
Fore
SplineSet
103 680 m 1
 127 680 164 682 194 685 c 1
 197 682 l 1
 188 599 184 465 184 375 c 2
 184 325 l 2
 184 234 187 81 193 3 c 1
 190 0 l 1
 168 0 131 -2 99 -5 c 1
 96 -2 l 1
 105 81 109 235 109 325 c 2
 109 375 l 2
 109 465 106 599 100 677 c 1
 103 680 l 1
EndSplineSet
EndChar

StartChar: J
Encoding: 74 74 45
Width: 287
GlyphClass: 1
Flags: MW
HStem: 665 20<196 196>
LayerCount: 2
Fore
SplineSet
114 153 m 2
 114 180 l 2
 114 439 110 599 102 677 c 1
 105 680 l 1
 127 680 169 682 196 685 c 1
 199 682 l 1
 192 599 189 465 189 375 c 2
 189 325 l 2
 189 250 191 172 191 125 c 0
 191 -33 137 -145 -14 -145 c 0
 -23 -145 -36 -144 -47 -142 c 1
 -55 -119 l 1
 -52 -114 l 1
 -42 -115 -33 -116 -24 -116 c 0
 85 -116 114 -27 114 153 c 2
EndSplineSet
EndChar

StartChar: K
Encoding: 75 75 46
Width: 616
GlyphClass: 1
Flags: MW
HStem: -7 20 665 20<192 192>
LayerCount: 2
Fore
SplineSet
518 -7 m 1
 432 99 309 233 226 320 c 0
 211 335 202 341 192 341 c 0
 182 341 180 326 180 296 c 2
 180 284 l 2
 180 205 185 81 191 3 c 1
 188 0 l 1
 166 0 129 -2 97 -5 c 1
 94 -2 l 1
 103 81 107 235 107 325 c 2
 107 375 l 2
 107 465 104 599 98 677 c 1
 101 680 l 1
 125 680 162 682 192 685 c 1
 195 682 l 1
 185 599 180 503 180 431 c 2
 180 420 l 2
 180 391 183 371 196 371 c 0
 205 371 215 377 228 389 c 0
 317 469 430 587 509 680 c 1
 537 680 568 681 589 682 c 1
 592 679 l 1
 499 600 375 483 297 405 c 0
 284 392 280 384 280 377 c 0
 280 372 282 365 298 347 c 0
 384 251 543 88 634 3 c 1
 631 0 l 1
 597 0 554 -1 518 -7 c 1
EndSplineSet
EndChar

StartChar: L
Encoding: 76 76 47
Width: 440
GlyphClass: 1
Flags: MW
HStem: -2 20 665 20<193 193>
LayerCount: 2
Fore
SplineSet
183 325 m 2
 183 227 183 153 185 101 c 0
 187 47 202 35 267 35 c 0
 314 35 368 40 426 51 c 1
 429 48 l 1
 427 36 425 13 425 -2 c 1
 338 0 243 1 177 1 c 0
 147 1 120 0 98 -1 c 1
 95 2 l 1
 104 81 108 235 108 325 c 2
 108 375 l 2
 108 465 105 599 99 677 c 1
 102 680 l 1
 126 680 163 682 193 685 c 1
 196 682 l 1
 187 599 183 465 183 375 c 2
 183 325 l 2
EndSplineSet
EndChar

StartChar: M
Encoding: 77 77 48
Width: 951
GlyphClass: 1
Flags: MW
HStem: -5 20
LayerCount: 2
Fore
SplineSet
748 445 m 0
 743 473 736 494 724 494 c 0
 712 494 699 474 690 457 c 0
 638 361 540 165 468 12 c 0
 463 9 453 8 449 12 c 0
 387 161 282 364 223 466 c 0
 213 483 207 492 199 492 c 0
 191 492 184 480 179 451 c 0
 161 350 133 128 126 0 c 1
 105 0 77 0 57 -1 c 1
 54 2 l 1
 98 192 152 490 181 698 c 1
 199 700 l 1
 270 539 393 297 454 187 c 0
 464 169 475 160 484 160 c 0
 493 160 502 170 510 185 c 0
 566 292 687 525 774 697 c 1
 795 700 l 1
 810 516 857 164 895 2 c 1
 893 0 l 1
 875 0 819 -2 798 -5 c 1
 789 123 767 337 748 445 c 0
EndSplineSet
EndChar

StartChar: N
Encoding: 78 78 49
Width: 787
GlyphClass: 1
Flags: MW
HStem: -11 20
LayerCount: 2
Fore
SplineSet
585 206 m 0
 607 187 619 180 626 180 c 0
 638 180 643 204 643 250 c 2
 643 262 l 2
 643 407 633 593 623 677 c 1
 626 680 l 1
 650 680 672 681 693 683 c 1
 696 680 l 1
 688 600 685 418 685 331 c 2
 685 281 l 2
 685 179 686 48 689 -2 c 1
 673 -11 l 1
 588 89 343 346 207 480 c 0
 190 497 171 511 161 511 c 0
 148 511 144 493 144 461 c 2
 144 441 l 2
 144 283 154 88 164 3 c 1
 161 0 l 1
 137 0 115 -1 94 -3 c 1
 91 0 l 1
 99 81 102 263 102 350 c 2
 102 400 l 2
 102 526 100 657 99 697 c 1
 112 702 l 1
 260 529 477 310 585 206 c 0
EndSplineSet
EndChar

StartChar: O
Encoding: 79 79 50
Width: 855
GlyphClass: 1
Flags: MW
HStem: -17 20 677 20<314 543.5>
LayerCount: 2
Fore
SplineSet
793 340 m 0
 793 125 649 -17 426 -17 c 0
 205 -17 62 122 62 340 c 0
 62 558 202 697 426 697 c 0
 661 697 793 560 793 340 c 0
702 340 m 0
 702 553 596 665 426 665 c 0
 260 665 153 560 153 340 c 0
 153 126 263 17 426 17 c 0
 593 17 702 125 702 340 c 0
EndSplineSet
Substitution2: "Podtablica Podstawienie pojedyncze w tablicy 21" ordmasculine
Substitution2: "Podtablica 'sups' Frakcja g+APMA-rna w +AUIA-aci+AUQA-skie w tablicy 13" ordmasculine
Substitution2: "Podtablica 'aalt' Dost+ARkA-p do wszystkich alternatyw w +AUIA-aci+AUQA-skie w tablicy 0" ordmasculine
EndChar

StartChar: P
Encoding: 80 80 51
Width: 536
GlyphClass: 1
Flags: MW
HStem: -5 20 663 20<288.5 338.5>
LayerCount: 2
Fore
SplineSet
260 653 m 0
 205 653 189 643 187 607 c 0
 185 555 184 465 184 375 c 2
 184 325 l 2
 184 235 187 81 193 3 c 1
 190 0 l 1
 166 0 129 -2 97 -5 c 1
 94 -2 l 1
 103 81 107 235 107 325 c 2
 107 375 l 2
 107 465 106 598 101 678 c 1
 105 682 l 1
 131 681 161 680 186 680 c 0
 226 680 277 683 300 683 c 0
 377 683 495 660 495 511 c 0
 495 346 341 321 226 321 c 1
 223 325 219 332 215 342 c 1
 219 346 l 1
 318 350 408 376 408 510 c 0
 408 633 339 653 260 653 c 0
EndSplineSet
EndChar

StartChar: Q
Encoding: 81 81 52
Width: 864
GlyphClass: 1
Flags: MW
HStem: 677 20<314 543.5>
LayerCount: 2
Fore
SplineSet
793 340 m 0
 793 197 722 96 620 49 c 0
 604 41 601 26 622 26 c 0
 706 35 803 43 883 48 c 1
 886 45 l 1
 882 27 878 -9 877 -29 c 1
 819 -23 658 -14 591 -14 c 0
 560 -14 529 -14 498 -15 c 0
 471 -16 458 -16 426 -17 c 0
 205 -17 62 122 62 340 c 0
 62 558 202 697 426 697 c 0
 661 697 793 560 793 340 c 0
702 340 m 0
 702 553 596 665 426 665 c 0
 260 665 153 560 153 340 c 0
 153 126 263 17 426 17 c 0
 593 17 702 125 702 340 c 0
EndSplineSet
EndChar

StartChar: R
Encoding: 82 82 53
Width: 586
GlyphClass: 1
Flags: MW
HStem: -7 20 663 20<271 341.5>
LayerCount: 2
Fore
SplineSet
187 607 m 0
 183 555 181 465 181 375 c 2
 181 325 l 2
 181 235 187 81 193 3 c 1
 190 0 l 1
 166 0 129 -2 97 -5 c 1
 94 -2 l 1
 103 81 107 235 107 325 c 2
 107 375 l 2
 107 465 106 598 101 678 c 1
 105 682 l 1
 131 681 152 680 177 680 c 0
 219 680 257 683 285 683 c 0
 398 683 487 664 487 545 c 0
 487 450 423 404 331 373 c 0
 320 369 312 363 312 354 c 0
 312 347 316 342 326 330 c 0
 412 232 547 86 634 3 c 1
 631 0 l 1
 597 0 554 -1 518 -7 c 1
 451 79 293 266 206 366 c 1
 211 374 l 1
 319 382 399 418 399 536 c 0
 399 632 336 653 260 653 c 0
 205 653 189 643 187 607 c 0
EndSplineSet
EndChar

StartChar: S
Encoding: 83 83 54
Width: 492
GlyphClass: 1
Flags: MW
HStem: -14 20 675 20<214 305>
LayerCount: 2
Fore
SplineSet
417 672 m 1
 419 668 l 1
 412 651 403 618 399 590 c 1
 389 589 l 1
 369 640 315 663 267 663 c 0
 190 663 143 608 143 535 c 0
 143 456 191 424 253 399 c 0
 366 352 438 314 438 195 c 0
 438 73 331 -14 193 -14 c 0
 141 -14 68 -2 38 14 c 1
 40 37 48 82 55 109 c 1
 65 111 l 1
 88 55 138 20 208 20 c 0
 279 20 360 63 360 168 c 0
 360 250 299 286 224 320 c 0
 148 354 67 388 67 508 c 0
 67 619 152 695 276 695 c 0
 334 695 386 685 417 672 c 1
EndSplineSet
EndChar

StartChar: T
Encoding: 84 84 55
Width: 534
GlyphClass: 1
Flags: MW
HStem: -5 20 664 20<553 553>
LayerCount: 2
Fore
SplineSet
553 684 m 1
 558 681 l 1
 556 670 553 647 553 635 c 1
 499 642 433 643 385 643 c 0
 324 643 312 632 308 615 c 0
 303 594 302 556 302 532 c 2
 302 400 l 2
 302 309 305 81 311 3 c 1
 308 0 l 1
 284 0 247 -2 215 -5 c 1
 212 -2 l 1
 221 81 225 310 225 400 c 2
 225 532 l 2
 225 555 225 590 222 612 c 0
 219 629 204 643 144 643 c 0
 99 643 32 640 -20 634 c 1
 -24 637 l 1
 -21 648 -17 671 -16 684 c 1
 68 678 180 677 264 677 c 0
 350 677 464 678 553 684 c 1
EndSplineSet
EndChar

StartChar: U
Encoding: 85 85 56
Width: 781
GlyphClass: 1
Flags: MW
HStem: -17 20 664 20<180 180 695 695>
LayerCount: 2
Fore
SplineSet
631 676 m 1
 634 680 l 1
 655 680 679 681 695 684 c 1
 699 680 l 1
 695 605 693 438 693 303 c 0
 693 243 685 190 670 149 c 0
 632 49 542 -17 386 -17 c 0
 175 -17 86 62 86 265 c 0
 86 327 89 394 89 444 c 0
 89 510 88 598 85 676 c 1
 88 680 l 1
 114 680 150 680 180 684 c 1
 184 680 l 1
 171 600 164 428 164 327 c 0
 164 146 193 21 406 21 c 0
 537 21 604 87 630 179 c 0
 641 219 644 262 644 321 c 0
 644 425 640 596 631 676 c 1
EndSplineSet
EndChar

StartChar: V
Encoding: 86 86 57
Width: 654
GlyphClass: 1
Flags: MW
HStem: 666 20
LayerCount: 2
Fore
SplineSet
321 -13 m 0
 316 -16 306 -20 298 -16 c 1
 239 137 99 468 4 677 c 1
 7 680 l 1
 35 680 76 682 108 686 c 1
 162 511 255 289 311 168 c 0
 319 151 328 135 338 135 c 0
 348 135 354 143 366 166 c 0
 433 292 549 552 587 680 c 1
 605 680 638 681 663 685 c 1
 666 682 l 1
 591 541 408 175 321 -13 c 0
EndSplineSet
EndChar

StartChar: W
Encoding: 87 87 58
Width: 1055
GlyphClass: 1
Flags: MW
HStem: -15 20 666 20
LayerCount: 2
Fore
SplineSet
767 -11 m 1
 759 -14 743 -16 738 -14 c 1
 695 119 608 365 550 519 c 0
 537 548 523 543 510 516 c 0
 453 383 352 140 294 -11 c 1
 282 -14 272 -17 263 -14 c 1
 214 139 96 470 15 677 c 1
 18 680 l 1
 48 680 89 682 116 686 c 1
 152 544 237 288 284 167 c 0
 291 149 299 141 305 141 c 0
 311 141 317 150 322 160 c 0
 380 292 487 559 524 679 c 1
 539 679 555 680 578 684 c 1
 638 495 706 297 755 170 c 0
 761 154 770 145 779 145 c 0
 787 145 795 156 802 171 c 0
 856 288 955 553 987 680 c 1
 1002 680 1040 681 1062 685 c 1
 1065 682 l 1
 1002 547 843 177 767 -11 c 1
EndSplineSet
EndChar

StartChar: X
Encoding: 88 88 59
Width: 588
GlyphClass: 1
Flags: MW
HStem: -3 20 664 20
LayerCount: 2
Fore
SplineSet
484 680 m 1
 509 680 537 682 555 683 c 1
 558 680 l 1
 481 581 402 468 347 385 c 0
 344 380 340 371 340 363 c 0
 340 356 344 346 346 343 c 0
 416 220 481 113 552 3 c 1
 549 0 l 1
 529 0 474 -1 445 -3 c 1
 408 85 351 193 304 275 c 0
 298 286 292 291 286 291 c 0
 280 291 274 288 267 278 c 0
 204 184 152 99 99 0 c 1
 72 0 43 -1 31 -2 c 1
 27 1 l 1
 112 119 183 216 249 316 c 0
 254 324 257 333 257 339 c 0
 257 347 255 355 250 364 c 0
 187 473 121 586 61 677 c 1
 64 680 l 1
 88 680 138 682 167 684 c 1
 202 601 252 504 294 430 c 0
 300 419 307 413 314 413 c 0
 319 413 325 417 331 426 c 0
 389 513 437 588 484 680 c 1
EndSplineSet
EndChar

StartChar: Y
Encoding: 89 89 60
Width: 574
GlyphClass: 1
Flags: MW
HStem: -5 20 664 20
LayerCount: 2
Fore
SplineSet
257 263 m 2
 257 277 l 2
 257 288 255 305 247 318 c 0
 178 431 88 575 20 676 c 1
 23 680 l 1
 40 680 92 682 124 684 c 1
 164 590 236 465 286 383 c 0
 293 372 298 365 308 365 c 0
 317 365 322 372 328 381 c 0
 389 482 440 575 491 680 c 1
 519 680 552 682 566 683 c 1
 568 680 l 1
 487 567 400 432 342 334 c 0
 333 319 332 305 332 293 c 2
 332 263 l 2
 332 172 335 81 341 3 c 1
 338 0 l 1
 314 0 277 -2 245 -5 c 1
 242 -2 l 1
 251 81 257 167 257 263 c 2
EndSplineSet
EndChar

StartChar: Z
Encoding: 90 90 61
Width: 633
GlyphClass: 1
Flags: MW
HStem: -2 20 662 20<608 608>
LayerCount: 2
Fore
SplineSet
459 605 m 0
 464 612 467 619 467 623 c 0
 467 638 446 641 346 641 c 0
 251 641 155 635 78 628 c 1
 75 631 l 1
 77 639 79 665 80 682 c 1
 160 680 337 679 418 679 c 0
 506 679 573 681 608 682 c 1
 610 666 l 1
 527 575 244 195 165 79 c 0
 160 71 157 65 157 61 c 0
 157 45 184 42 289 42 c 0
 410 42 536 49 612 57 c 1
 615 54 l 1
 612 41 609 13 609 -2 c 1
 521 -1 373 1 292 1 c 0
 181 1 81 0 14 -2 c 1
 12 12 l 1
 176 218 392 512 459 605 c 0
EndSplineSet
EndChar

StartChar: bracketleft
Encoding: 91 91 62
Width: 285
GlyphClass: 1
Flags: MW
HStem: -91 25<73 231> 742 25<73 231>
VStem: 78 50<200 478 478 479>
LayerCount: 2
Fore
SplineSet
231 -91 m 1
 73 -91 l 1
 76 4 78 101 78 200 c 2
 78 478 l 2
 78 575 76 672 73 767 c 1
 231 767 l 1
 231 742 l 1
 130 735 l 1
 128 653 128 566 128 479 c 2
 128 199 l 2
 128 110 128 23 130 -59 c 1
 231 -66 l 1
 231 -91 l 1
EndSplineSet
EndChar

StartChar: backslash
Encoding: 92 92 63
Width: 500
GlyphClass: 1
Flags: W
LayerCount: 2
Fore
SplineSet
494 -123 m 1
 449 -128 l 1
 413 -47 358 66 315 153 c 2
 157 470 l 2
 112 560 52 680 9 762 c 1
 54 767 l 1
 91 686 145 573 188 486 c 2
 346 169 l 2
 391 79 451 -41 494 -123 c 1
EndSplineSet
EndChar

StartChar: bracketright
Encoding: 93 93 64
Width: 285
GlyphClass: 1
Flags: MW
HStem: -91 31<157 157 157 214> 736 31<157 157>
VStem: 159 50<199 200 200 478>
LayerCount: 2
Fore
SplineSet
214 -91 m 1
 56 -91 l 1
 56 -66 l 1
 157 -60 l 1
 159 23 159 110 159 199 c 2
 159 479 l 2
 159 566 159 653 157 736 c 1
 56 742 l 1
 56 767 l 1
 214 767 l 1
 211 672 209 575 209 478 c 2
 209 200 l 2
 209 101 211 4 214 -91 c 1
EndSplineSet
EndChar

StartChar: asciicircum
Encoding: 94 94 65
Width: 480
GlyphClass: 1
Flags: W
LayerCount: 2
Fore
SplineSet
444 163 m 1
 432 159 417 151 406 142 c 1
 363 229 276 388 240 447 c 1
 204 388 117 229 74 142 c 1
 63 151 48 159 36 163 c 1
 96 255 178 403 238 512 c 1
 242 512 l 1
 302 403 384 255 444 163 c 1
EndSplineSet
EndChar

StartChar: underscore
Encoding: 95 95 66
Width: 500
GlyphClass: 1
Flags: MW
HStem: -130 50<0 500 0 500>
LayerCount: 2
Fore
SplineSet
500 -130 m 1
 0 -130 l 1
 0 -80 l 1
 500 -80 l 1
 500 -130 l 1
EndSplineSet
EndChar

StartChar: grave
Encoding: 96 96 67
Width: 333
GlyphClass: 1
Flags: W
LayerCount: 2
Fore
SplineSet
201 731 m 1
 199 729 l 1
 177 729 l 1
 149 756 96 808 71 833 c 0
 65 839 59 845 59 851 c 0
 59 866 76 870 90 870 c 0
 104 870 110 862 116 851 c 0
 133 826 170 773 201 731 c 1
EndSplineSet
AlternateSubs2: "Podtablica 'aalt' Dost+ARkA-p do wszystkich alternatyw w +AUIA-aci+AUQA-skie w tablicy 1" quotedbl quotesingle quoteleft quoteright quotedblleft quotedblright quotesinglbase quotedblbase guilsinglleft guilsinglright guillemotleft guillemotright
EndChar

StartChar: a
Encoding: 97 97 68
Width: 721
GlyphClass: 1
Flags: MW
HStem: -5 20
LayerCount: 2
Fore
SplineSet
247 385 m 0
 238 367 244 355 266 352 c 0
 287 349 324 348 344 348 c 0
 373 348 408 349 430 352 c 0
 452 355 459 366 450 390 c 0
 434 433 405 503 379 550 c 0
 373 562 366 567 359 567 c 0
 352 567 346 561 339 550 c 0
 310 504 268 429 247 385 c 0
384 699 m 1
 399 700 l 1
 493 470 640 136 714 3 c 1
 711 0 l 1
 699 0 633 -2 609 -5 c 1
 583 66 536 185 502 263 c 0
 486 301 470 312 436 314 c 0
 413 315 377 316 341 316 c 0
 294 316 255 315 234 312 c 0
 210 309 195 291 182 266 c 0
 130 165 85 70 58 0 c 1
 32 0 7 -1 -14 -3 c 1
 -17 0 l 1
 113 221 255 470 384 699 c 1
EndSplineSet
Substitution2: "Podtablica Podstawienie pojedyncze w tablicy 21" ordfeminine
Substitution2: "Podtablica 'sups' Frakcja g+APMA-rna w +AUIA-aci+AUQA-skie w tablicy 13" ordfeminine
Substitution2: "Podtablica 'case' Warianty wersalikowe w +AUIA-aci+AUQA-skie w tablicy 4" A
AlternateSubs2: "Podtablica 'aalt' Dost+ARkA-p do wszystkich alternatyw w +AUIA-aci+AUQA-skie w tablicy 1" A ordfeminine
EndChar

StartChar: b
Encoding: 98 98 69
Width: 572
GlyphClass: 1
Flags: MW
HStem: -3 20 663 20<268 335.5>
LayerCount: 2
Fore
SplineSet
351 362 m 0
 418 351 512 323 512 216 c 0
 512 46 371 -3 255 -3 c 0
 223 -3 195 0 167 0 c 0
 149 0 111 -1 97 -3 c 1
 94 0 l 1
 103 81 107 235 107 325 c 2
 107 375 l 2
 107 465 106 598 101 678 c 1
 105 682 l 1
 131 681 151 680 176 680 c 0
 202 680 257 683 279 683 c 0
 392 683 475 664 475 545 c 0
 475 450 413 405 345 386 c 0
 330 381 331 364 351 362 c 0
254 30 m 0
 342 30 425 77 425 197 c 0
 425 311 351 349 216 351 c 1
 212 353 l 1
 210 372 l 1
 214 375 l 1
 302 386 389 418 389 536 c 0
 389 639 323 653 247 653 c 0
 207 653 187 643 185 619 c 0
 183 567 181 465 181 375 c 2
 181 325 l 2
 181 234 184 119 188 72 c 0
 190 41 216 30 254 30 c 0
EndSplineSet
Substitution2: "Podtablica 'case' Warianty wersalikowe w +AUIA-aci+AUQA-skie w tablicy 4" B
Substitution2: "Podtablica 'aalt' Dost+ARkA-p do wszystkich alternatyw w +AUIA-aci+AUQA-skie w tablicy 0" B
EndChar

StartChar: c
Encoding: 99 99 70
Width: 694
GlyphClass: 1
Flags: MW
HStem: -13 20 673 20<320.5 493.5>
LayerCount: 2
Fore
SplineSet
151 340 m 0
 151 120 282 26 454 26 c 0
 538 26 618 64 653 106 c 1
 660 104 l 1
 659 93 654 58 650 46 c 1
 619 20 537 -13 438 -13 c 0
 214 -13 62 115 62 340 c 0
 62 562 196 693 445 693 c 0
 542 693 632 669 671 647 c 1
 662 621 654 592 649 561 c 1
 635 559 l 1
 607 629 532 661 439 661 c 0
 264 661 151 550 151 340 c 0
EndSplineSet
Substitution2: "Podtablica 'case' Warianty wersalikowe w +AUIA-aci+AUQA-skie w tablicy 4" C
Substitution2: "Podtablica 'aalt' Dost+ARkA-p do wszystkich alternatyw w +AUIA-aci+AUQA-skie w tablicy 0" C
EndChar

StartChar: d
Encoding: 100 100 71
Width: 780
GlyphClass: 1
Flags: MW
HStem: -2 20 662 20<105 105 337.5 483>
LayerCount: 2
Fore
SplineSet
189 600 m 0
 185 553 182 465 182 375 c 2
 182 325 l 2
 182 256 184 140 189 92 c 0
 194 41 232 34 317 34 c 0
 468 34 631 90 631 354 c 0
 631 586 509 647 341 647 c 0
 215 647 192 639 189 600 c 0
94 2 m 1
 103 81 107 235 107 325 c 2
 107 375 l 2
 107 465 106 598 101 678 c 1
 105 682 l 1
 131 680 161 679 191 679 c 0
 232 679 309 682 366 682 c 0
 600 682 720 596 720 354 c 0
 720 90 540 -2 339 -2 c 0
 291 -2 240 0 195 0 c 0
 168 0 127 -1 97 -1 c 1
 94 2 l 1
EndSplineSet
Substitution2: "Podtablica 'case' Warianty wersalikowe w +AUIA-aci+AUQA-skie w tablicy 4" D
Substitution2: "Podtablica 'aalt' Dost+ARkA-p do wszystkich alternatyw w +AUIA-aci+AUQA-skie w tablicy 0" D
EndChar

StartChar: e
Encoding: 101 101 72
Width: 465
GlyphClass: 1
Flags: MW
HStem: -2 20 662 20<106 106 407 407>
LayerCount: 2
Fore
SplineSet
95 2 m 1
 104 81 108 235 108 325 c 2
 108 375 l 2
 108 465 107 598 102 678 c 1
 106 682 l 1
 132 680 162 679 190 679 c 0
 256 679 347 680 407 682 c 1
 410 679 l 1
 408 666 406 645 406 631 c 1
 369 639 303 645 248 645 c 0
 196 645 186 635 184 600 c 0
 181 552 180 491 180 458 c 2
 180 439 l 2
 180 387 189 385 226 385 c 0
 285 385 358 389 389 394 c 1
 392 391 l 1
 390 379 389 356 389 343 c 1
 354 347 285 351 226 351 c 0
 184 351 180 347 180 290 c 2
 180 273 l 2
 180 201 181 155 185 91 c 0
 188 48 201 35 259 35 c 0
 308 35 359 40 410 51 c 1
 413 48 l 1
 411 36 409 13 409 -2 c 1
 338 0 243 1 177 1 c 0
 147 1 122 0 98 -1 c 1
 95 2 l 1
EndSplineSet
AlternateSubs2: "Podtablica 'salt' Alternatywy stylistyczne w +AUIA-aci+AUQA-skie w tablicy 20" e.alt
Substitution2: "Podtablica 'case' Warianty wersalikowe w +AUIA-aci+AUQA-skie w tablicy 4" E
AlternateSubs2: "Podtablica 'aalt' Dost+ARkA-p do wszystkich alternatyw w +AUIA-aci+AUQA-skie w tablicy 1" E e.alt
EndChar

StartChar: f
Encoding: 102 102 73
Width: 455
GlyphClass: 1
Flags: MW
HStem: -5 20 662 20<106 106 407 407>
LayerCount: 2
Fore
SplineSet
182 263 m 2
 182 197 185 81 192 3 c 1
 189 0 l 1
 167 0 130 -2 98 -5 c 1
 95 -2 l 1
 104 81 108 235 108 325 c 2
 108 375 l 2
 108 465 107 598 102 678 c 1
 106 682 l 1
 132 680 162 679 190 679 c 0
 256 679 347 680 407 682 c 1
 410 679 l 1
 408 666 406 645 406 631 c 1
 369 639 303 645 250 645 c 0
 198 645 188 635 186 600 c 0
 183 552 182 491 182 458 c 2
 182 429 l 2
 182 377 191 375 228 375 c 0
 285 375 358 379 389 384 c 1
 392 381 l 1
 390 369 389 346 389 333 c 1
 354 337 285 341 228 341 c 0
 186 341 182 337 182 280 c 2
 182 263 l 2
EndSplineSet
Substitution2: "Podtablica 'case' Warianty wersalikowe w +AUIA-aci+AUQA-skie w tablicy 4" F
Substitution2: "Podtablica 'aalt' Dost+ARkA-p do wszystkich alternatyw w +AUIA-aci+AUQA-skie w tablicy 0" F
EndChar

StartChar: g
Encoding: 103 103 74
Width: 764
GlyphClass: 1
Flags: MW
HStem: -15 20 675 20<322.5 503>
LayerCount: 2
Fore
SplineSet
691 27 m 1
 689 24 l 1
 644 7 543 -15 453 -15 c 0
 191 -15 62 130 62 341 c 0
 62 562 192 695 453 695 c 0
 553 695 644 671 684 649 c 1
 675 623 667 594 662 565 c 1
 650 563 l 1
 621 630 542 664 447 664 c 0
 253 664 151 550 151 341 c 0
 151 147 253 19 462 19 c 0
 519 19 567 28 594 43 c 0
 605 49 611 64 611 78 c 0
 611 149 608 214 602 281 c 1
 605 284 l 1
 623 284 660 286 689 289 c 1
 692 286 l 1
 688 242 687 179 687 124 c 0
 687 87 688 54 691 27 c 1
EndSplineSet
Substitution2: "Podtablica 'case' Warianty wersalikowe w +AUIA-aci+AUQA-skie w tablicy 4" G
Substitution2: "Podtablica 'aalt' Dost+ARkA-p do wszystkich alternatyw w +AUIA-aci+AUQA-skie w tablicy 0" G
EndChar

StartChar: h
Encoding: 104 104 75
Width: 792
GlyphClass: 1
Flags: MW
HStem: -5 20 665 20<192 192 695 695>
LayerCount: 2
Fore
SplineSet
182 282 m 2
 182 207 185 81 191 3 c 1
 188 0 l 1
 166 0 129 -2 97 -5 c 1
 94 -2 l 1
 103 81 107 235 107 325 c 2
 107 375 l 2
 107 465 104 599 98 677 c 1
 101 680 l 1
 125 680 162 682 192 685 c 1
 195 682 l 1
 186 599 182 526 182 446 c 2
 182 435 l 2
 182 404 187 391 208 389 c 0
 248 386 310 385 391 385 c 0
 462 385 532 386 569 389 c 0
 597 391 610 406 610 442 c 2
 610 453 l 2
 610 543 607 599 601 677 c 1
 604 680 l 1
 626 680 663 682 695 685 c 1
 698 682 l 1
 689 599 685 465 685 375 c 2
 685 325 l 2
 685 235 688 81 694 3 c 1
 691 0 l 1
 667 0 630 -2 600 -5 c 1
 597 -2 l 1
 606 81 610 209 610 283 c 2
 610 295 l 2
 610 335 594 340 568 343 c 0
 531 346 453 348 391 348 c 0
 319 348 271 347 221 343 c 0
 200 340 182 336 182 294 c 2
 182 282 l 2
EndSplineSet
Substitution2: "Podtablica 'case' Warianty wersalikowe w +AUIA-aci+AUQA-skie w tablicy 4" H
Substitution2: "Podtablica 'aalt' Dost+ARkA-p do wszystkich alternatyw w +AUIA-aci+AUQA-skie w tablicy 0" H
EndChar

StartChar: i
Encoding: 105 105 76
Width: 289
GlyphClass: 1
Flags: MW
HStem: -5 20 665 20<194 194>
LayerCount: 2
Fore
SplineSet
103 680 m 1
 127 680 164 682 194 685 c 1
 197 682 l 1
 188 599 184 465 184 375 c 2
 184 325 l 2
 184 234 187 81 193 3 c 1
 190 0 l 1
 168 0 131 -2 99 -5 c 1
 96 -2 l 1
 105 81 109 235 109 325 c 2
 109 375 l 2
 109 465 106 599 100 677 c 1
 103 680 l 1
EndSplineSet
AlternateSubs2: "Podtablica 'salt' Alternatywy stylistyczne w +AUIA-aci+AUQA-skie w tablicy 20" i.alt
Substitution2: "Podtablica 'case' Warianty wersalikowe w +AUIA-aci+AUQA-skie w tablicy 7" Idotaccent
Substitution2: "Podtablica 'case' Warianty wersalikowe w +AUIA-aci+AUQA-skie w tablicy 6" I
AlternateSubs2: "Podtablica 'aalt' Dost+ARkA-p do wszystkich alternatyw w +AUIA-aci+AUQA-skie w tablicy 1" I Idotaccent i.alt
EndChar

StartChar: j
Encoding: 106 106 77
Width: 287
GlyphClass: 1
Flags: MW
HStem: 665 20<196 196>
LayerCount: 2
Fore
SplineSet
114 153 m 2
 114 180 l 2
 114 439 110 599 102 677 c 1
 105 680 l 1
 127 680 169 682 196 685 c 1
 199 682 l 1
 192 599 189 465 189 375 c 2
 189 325 l 2
 189 250 191 172 191 125 c 0
 191 -33 137 -145 -14 -145 c 0
 -23 -145 -36 -144 -47 -142 c 1
 -55 -119 l 1
 -52 -114 l 1
 -42 -115 -33 -116 -24 -116 c 0
 85 -116 114 -27 114 153 c 2
EndSplineSet
Substitution2: "Podtablica 'case' Warianty wersalikowe w +AUIA-aci+AUQA-skie w tablicy 4" J
Substitution2: "Podtablica 'aalt' Dost+ARkA-p do wszystkich alternatyw w +AUIA-aci+AUQA-skie w tablicy 0" J
EndChar

StartChar: k
Encoding: 107 107 78
Width: 616
GlyphClass: 1
Flags: MW
HStem: -7 20 665 20<192 192>
LayerCount: 2
Fore
SplineSet
518 -7 m 1
 432 99 309 233 226 320 c 0
 211 335 202 341 192 341 c 0
 182 341 180 326 180 296 c 2
 180 284 l 2
 180 205 185 81 191 3 c 1
 188 0 l 1
 166 0 129 -2 97 -5 c 1
 94 -2 l 1
 103 81 107 235 107 325 c 2
 107 375 l 2
 107 465 104 599 98 677 c 1
 101 680 l 1
 125 680 162 682 192 685 c 1
 195 682 l 1
 185 599 180 503 180 431 c 2
 180 420 l 2
 180 391 183 371 196 371 c 0
 205 371 215 377 228 389 c 0
 317 469 430 587 509 680 c 1
 537 680 568 681 589 682 c 1
 592 679 l 1
 499 600 375 483 297 405 c 0
 284 392 280 384 280 377 c 0
 280 372 282 365 298 347 c 0
 384 251 543 88 634 3 c 1
 631 0 l 1
 597 0 554 -1 518 -7 c 1
EndSplineSet
Substitution2: "Podtablica 'case' Warianty wersalikowe w +AUIA-aci+AUQA-skie w tablicy 4" K
Substitution2: "Podtablica 'aalt' Dost+ARkA-p do wszystkich alternatyw w +AUIA-aci+AUQA-skie w tablicy 0" K
EndChar

StartChar: l
Encoding: 108 108 79
Width: 440
GlyphClass: 1
Flags: MW
HStem: -2 20 665 20<193 193>
LayerCount: 2
Fore
SplineSet
183 325 m 2
 183 227 183 153 185 101 c 0
 187 47 202 35 267 35 c 0
 314 35 368 40 426 51 c 1
 429 48 l 1
 427 36 425 13 425 -2 c 1
 338 0 243 1 177 1 c 0
 147 1 120 0 98 -1 c 1
 95 2 l 1
 104 81 108 235 108 325 c 2
 108 375 l 2
 108 465 105 599 99 677 c 1
 102 680 l 1
 126 680 163 682 193 685 c 1
 196 682 l 1
 187 599 183 465 183 375 c 2
 183 325 l 2
EndSplineSet
Substitution2: "Podtablica 'case' Warianty wersalikowe w +AUIA-aci+AUQA-skie w tablicy 4" L
Substitution2: "Podtablica 'aalt' Dost+ARkA-p do wszystkich alternatyw w +AUIA-aci+AUQA-skie w tablicy 0" L
EndChar

StartChar: m
Encoding: 109 109 80
Width: 951
GlyphClass: 1
Flags: MW
HStem: -5 20
LayerCount: 2
Fore
SplineSet
748 445 m 0
 743 473 736 494 724 494 c 0
 712 494 699 474 690 457 c 0
 638 361 540 165 468 12 c 0
 463 9 453 8 449 12 c 0
 387 161 282 364 223 466 c 0
 213 483 207 492 199 492 c 0
 191 492 184 480 179 451 c 0
 161 350 133 128 126 0 c 1
 105 0 77 0 57 -1 c 1
 54 2 l 1
 98 192 152 490 181 698 c 1
 199 700 l 1
 270 539 393 297 454 187 c 0
 464 169 475 160 484 160 c 0
 493 160 502 170 510 185 c 0
 566 292 687 525 774 697 c 1
 795 700 l 1
 810 516 857 164 895 2 c 1
 893 0 l 1
 875 0 819 -2 798 -5 c 1
 789 123 767 337 748 445 c 0
EndSplineSet
Substitution2: "Podtablica 'case' Warianty wersalikowe w +AUIA-aci+AUQA-skie w tablicy 4" M
Substitution2: "Podtablica 'aalt' Dost+ARkA-p do wszystkich alternatyw w +AUIA-aci+AUQA-skie w tablicy 0" M
EndChar

StartChar: n
Encoding: 110 110 81
Width: 787
GlyphClass: 1
Flags: MW
HStem: -11 20
LayerCount: 2
Fore
SplineSet
585 206 m 0
 607 187 619 180 626 180 c 0
 638 180 643 204 643 250 c 2
 643 262 l 2
 643 407 633 593 623 677 c 1
 626 680 l 1
 650 680 672 681 693 683 c 1
 696 680 l 1
 688 600 685 418 685 331 c 2
 685 281 l 2
 685 179 686 48 689 -2 c 1
 673 -11 l 1
 588 89 343 346 207 480 c 0
 190 497 171 511 161 511 c 0
 148 511 144 493 144 461 c 2
 144 441 l 2
 144 283 154 88 164 3 c 1
 161 0 l 1
 137 0 115 -1 94 -3 c 1
 91 0 l 1
 99 81 102 263 102 350 c 2
 102 400 l 2
 102 526 100 657 99 697 c 1
 112 702 l 1
 260 529 477 310 585 206 c 0
EndSplineSet
Substitution2: "Podtablica 'case' Warianty wersalikowe w +AUIA-aci+AUQA-skie w tablicy 4" N
Substitution2: "Podtablica 'aalt' Dost+ARkA-p do wszystkich alternatyw w +AUIA-aci+AUQA-skie w tablicy 0" N
EndChar

StartChar: o
Encoding: 111 111 82
Width: 855
GlyphClass: 1
Flags: MW
HStem: -17 20 677 20<314 543.5>
LayerCount: 2
Fore
SplineSet
793 340 m 0
 793 125 649 -17 426 -17 c 0
 205 -17 62 122 62 340 c 0
 62 558 202 697 426 697 c 0
 661 697 793 560 793 340 c 0
702 340 m 0
 702 553 596 665 426 665 c 0
 260 665 153 560 153 340 c 0
 153 126 263 17 426 17 c 0
 593 17 702 125 702 340 c 0
EndSplineSet
Substitution2: "Podtablica Podstawienie pojedyncze w tablicy 21" ordmasculine
Substitution2: "Podtablica 'sups' Frakcja g+APMA-rna w +AUIA-aci+AUQA-skie w tablicy 13" ordmasculine
Substitution2: "Podtablica 'case' Warianty wersalikowe w +AUIA-aci+AUQA-skie w tablicy 4" O
AlternateSubs2: "Podtablica 'aalt' Dost+ARkA-p do wszystkich alternatyw w +AUIA-aci+AUQA-skie w tablicy 1" O ordmasculine
EndChar

StartChar: p
Encoding: 112 112 83
Width: 536
GlyphClass: 1
Flags: MW
HStem: -5 20 663 20<288.5 338.5>
LayerCount: 2
Fore
SplineSet
260 653 m 0
 205 653 189 643 187 607 c 0
 185 555 184 465 184 375 c 2
 184 325 l 2
 184 235 187 81 193 3 c 1
 190 0 l 1
 166 0 129 -2 97 -5 c 1
 94 -2 l 1
 103 81 107 235 107 325 c 2
 107 375 l 2
 107 465 106 598 101 678 c 1
 105 682 l 1
 131 681 161 680 186 680 c 0
 226 680 277 683 300 683 c 0
 377 683 495 660 495 511 c 0
 495 346 341 321 226 321 c 1
 223 325 219 332 215 342 c 1
 219 346 l 1
 318 350 408 376 408 510 c 0
 408 633 339 653 260 653 c 0
EndSplineSet
Substitution2: "Podtablica 'case' Warianty wersalikowe w +AUIA-aci+AUQA-skie w tablicy 4" P
Substitution2: "Podtablica 'aalt' Dost+ARkA-p do wszystkich alternatyw w +AUIA-aci+AUQA-skie w tablicy 0" P
EndChar

StartChar: q
Encoding: 113 113 84
Width: 864
GlyphClass: 1
Flags: MW
HStem: 677 20<314 543.5>
LayerCount: 2
Fore
SplineSet
793 340 m 0
 793 197 722 96 620 49 c 0
 604 41 601 26 622 26 c 0
 706 35 803 43 883 48 c 1
 886 45 l 1
 882 27 878 -9 877 -29 c 1
 819 -23 658 -14 591 -14 c 0
 560 -14 529 -14 498 -15 c 0
 471 -16 458 -16 426 -17 c 0
 205 -17 62 122 62 340 c 0
 62 558 202 697 426 697 c 0
 661 697 793 560 793 340 c 0
702 340 m 0
 702 553 596 665 426 665 c 0
 260 665 153 560 153 340 c 0
 153 126 263 17 426 17 c 0
 593 17 702 125 702 340 c 0
EndSplineSet
AlternateSubs2: "Podtablica 'salt' Alternatywy stylistyczne w +AUIA-aci+AUQA-skie w tablicy 20" q.alt
Substitution2: "Podtablica 'case' Warianty wersalikowe w +AUIA-aci+AUQA-skie w tablicy 4" Q
AlternateSubs2: "Podtablica 'aalt' Dost+ARkA-p do wszystkich alternatyw w +AUIA-aci+AUQA-skie w tablicy 1" Q q.alt
EndChar

StartChar: r
Encoding: 114 114 85
Width: 586
GlyphClass: 1
Flags: MW
HStem: -7 20 663 20<271 341.5>
LayerCount: 2
Fore
SplineSet
187 607 m 0
 183 555 181 465 181 375 c 2
 181 325 l 2
 181 235 187 81 193 3 c 1
 190 0 l 1
 166 0 129 -2 97 -5 c 1
 94 -2 l 1
 103 81 107 235 107 325 c 2
 107 375 l 2
 107 465 106 598 101 678 c 1
 105 682 l 1
 131 681 152 680 177 680 c 0
 219 680 257 683 285 683 c 0
 398 683 487 664 487 545 c 0
 487 450 423 404 331 373 c 0
 320 369 312 363 312 354 c 0
 312 347 316 342 326 330 c 0
 412 232 547 86 634 3 c 1
 631 0 l 1
 597 0 554 -1 518 -7 c 1
 451 79 293 266 206 366 c 1
 211 374 l 1
 319 382 399 418 399 536 c 0
 399 632 336 653 260 653 c 0
 205 653 189 643 187 607 c 0
EndSplineSet
Substitution2: "Podtablica 'case' Warianty wersalikowe w +AUIA-aci+AUQA-skie w tablicy 4" R
Substitution2: "Podtablica 'aalt' Dost+ARkA-p do wszystkich alternatyw w +AUIA-aci+AUQA-skie w tablicy 0" R
EndChar

StartChar: s
Encoding: 115 115 86
Width: 492
GlyphClass: 1
Flags: MW
HStem: -14 20 675 20<214 305>
LayerCount: 2
Fore
SplineSet
417 672 m 1
 419 668 l 1
 412 651 403 618 399 590 c 1
 389 589 l 1
 369 640 315 663 267 663 c 0
 190 663 143 608 143 535 c 0
 143 456 191 424 253 399 c 0
 366 352 438 314 438 195 c 0
 438 73 331 -14 193 -14 c 0
 141 -14 68 -2 38 14 c 1
 40 37 48 82 55 109 c 1
 65 111 l 1
 88 55 138 20 208 20 c 0
 279 20 360 63 360 168 c 0
 360 250 299 286 224 320 c 0
 148 354 67 388 67 508 c 0
 67 619 152 695 276 695 c 0
 334 695 386 685 417 672 c 1
EndSplineSet
Substitution2: "Podtablica 'case' Warianty wersalikowe w +AUIA-aci+AUQA-skie w tablicy 4" S
Substitution2: "Podtablica 'aalt' Dost+ARkA-p do wszystkich alternatyw w +AUIA-aci+AUQA-skie w tablicy 0" S
EndChar

StartChar: t
Encoding: 116 116 87
Width: 534
GlyphClass: 1
Flags: MW
HStem: -5 20 664 20<553 553>
LayerCount: 2
Fore
SplineSet
553 684 m 1
 558 681 l 1
 556 670 553 647 553 635 c 1
 499 642 433 643 385 643 c 0
 324 643 312 632 308 615 c 0
 303 594 302 556 302 532 c 2
 302 400 l 2
 302 309 305 81 311 3 c 1
 308 0 l 1
 284 0 247 -2 215 -5 c 1
 212 -2 l 1
 221 81 225 310 225 400 c 2
 225 532 l 2
 225 555 225 590 222 612 c 0
 219 629 204 643 144 643 c 0
 99 643 32 640 -20 634 c 1
 -24 637 l 1
 -21 648 -17 671 -16 684 c 1
 68 678 180 677 264 677 c 0
 350 677 464 678 553 684 c 1
EndSplineSet
AlternateSubs2: "Podtablica 'salt' Alternatywy stylistyczne w +AUIA-aci+AUQA-skie w tablicy 20" t.alt
Substitution2: "Podtablica 'case' Warianty wersalikowe w +AUIA-aci+AUQA-skie w tablicy 4" T
AlternateSubs2: "Podtablica 'aalt' Dost+ARkA-p do wszystkich alternatyw w +AUIA-aci+AUQA-skie w tablicy 1" T t.alt
EndChar

StartChar: u
Encoding: 117 117 88
Width: 781
GlyphClass: 1
Flags: MW
HStem: -17 20 664 20<180 180 695 695>
LayerCount: 2
Fore
SplineSet
631 676 m 1
 634 680 l 1
 655 680 679 681 695 684 c 1
 699 680 l 1
 695 605 693 438 693 303 c 0
 693 243 685 190 670 149 c 0
 632 49 542 -17 386 -17 c 0
 175 -17 86 62 86 265 c 0
 86 327 89 394 89 444 c 0
 89 510 88 598 85 676 c 1
 88 680 l 1
 114 680 150 680 180 684 c 1
 184 680 l 1
 171 600 164 428 164 327 c 0
 164 146 193 21 406 21 c 0
 537 21 604 87 630 179 c 0
 641 219 644 262 644 321 c 0
 644 425 640 596 631 676 c 1
EndSplineSet
AlternateSubs2: "Podtablica 'salt' Alternatywy stylistyczne w +AUIA-aci+AUQA-skie w tablicy 20" u.alt
Substitution2: "Podtablica 'case' Warianty wersalikowe w +AUIA-aci+AUQA-skie w tablicy 4" U
AlternateSubs2: "Podtablica 'aalt' Dost+ARkA-p do wszystkich alternatyw w +AUIA-aci+AUQA-skie w tablicy 1" U u.alt
EndChar

StartChar: v
Encoding: 118 118 89
Width: 654
GlyphClass: 1
Flags: MW
HStem: 666 20
LayerCount: 2
Fore
SplineSet
321 -13 m 0
 316 -16 306 -20 298 -16 c 1
 239 137 99 468 4 677 c 1
 7 680 l 1
 35 680 76 682 108 686 c 1
 162 511 255 289 311 168 c 0
 319 151 328 135 338 135 c 0
 348 135 354 143 366 166 c 0
 433 292 549 552 587 680 c 1
 605 680 638 681 663 685 c 1
 666 682 l 1
 591 541 408 175 321 -13 c 0
EndSplineSet
Substitution2: "Podtablica 'case' Warianty wersalikowe w +AUIA-aci+AUQA-skie w tablicy 4" V
Substitution2: "Podtablica 'aalt' Dost+ARkA-p do wszystkich alternatyw w +AUIA-aci+AUQA-skie w tablicy 0" V
EndChar

StartChar: w
Encoding: 119 119 90
Width: 1055
GlyphClass: 1
Flags: MW
HStem: -15 20 666 20
LayerCount: 2
Fore
SplineSet
767 -11 m 1
 759 -14 743 -16 738 -14 c 1
 695 119 608 365 550 519 c 0
 537 548 523 543 510 516 c 0
 453 383 352 140 294 -11 c 1
 282 -14 272 -17 263 -14 c 1
 214 139 96 470 15 677 c 1
 18 680 l 1
 48 680 89 682 116 686 c 1
 152 544 237 288 284 167 c 0
 291 149 299 141 305 141 c 0
 311 141 317 150 322 160 c 0
 380 292 487 559 524 679 c 1
 539 679 555 680 578 684 c 1
 638 495 706 297 755 170 c 0
 761 154 770 145 779 145 c 0
 787 145 795 156 802 171 c 0
 856 288 955 553 987 680 c 1
 1002 680 1040 681 1062 685 c 1
 1065 682 l 1
 1002 547 843 177 767 -11 c 1
EndSplineSet
Substitution2: "Podtablica 'case' Warianty wersalikowe w +AUIA-aci+AUQA-skie w tablicy 4" W
Substitution2: "Podtablica 'aalt' Dost+ARkA-p do wszystkich alternatyw w +AUIA-aci+AUQA-skie w tablicy 0" W
EndChar

StartChar: x
Encoding: 120 120 91
Width: 588
GlyphClass: 1
Flags: MW
HStem: -3 20 664 20
LayerCount: 2
Fore
SplineSet
484 680 m 1
 509 680 537 682 555 683 c 1
 558 680 l 1
 481 581 402 468 347 385 c 0
 344 380 340 371 340 363 c 0
 340 356 344 346 346 343 c 0
 416 220 481 113 552 3 c 1
 549 0 l 1
 529 0 474 -1 445 -3 c 1
 408 85 351 193 304 275 c 0
 298 286 292 291 286 291 c 0
 280 291 274 288 267 278 c 0
 204 184 152 99 99 0 c 1
 72 0 43 -1 31 -2 c 1
 27 1 l 1
 112 119 183 216 249 316 c 0
 254 324 257 333 257 339 c 0
 257 347 255 355 250 364 c 0
 187 473 121 586 61 677 c 1
 64 680 l 1
 88 680 138 682 167 684 c 1
 202 601 252 504 294 430 c 0
 300 419 307 413 314 413 c 0
 319 413 325 417 331 426 c 0
 389 513 437 588 484 680 c 1
EndSplineSet
Substitution2: "Podtablica 'case' Warianty wersalikowe w +AUIA-aci+AUQA-skie w tablicy 4" X
Substitution2: "Podtablica 'aalt' Dost+ARkA-p do wszystkich alternatyw w +AUIA-aci+AUQA-skie w tablicy 0" X
EndChar

StartChar: y
Encoding: 121 121 92
Width: 574
GlyphClass: 1
Flags: MW
HStem: -5 20 664 20
LayerCount: 2
Fore
SplineSet
257 263 m 2
 257 277 l 2
 257 288 255 305 247 318 c 0
 178 431 88 575 20 676 c 1
 23 680 l 1
 40 680 92 682 124 684 c 1
 164 590 236 465 286 383 c 0
 293 372 298 365 308 365 c 0
 317 365 322 372 328 381 c 0
 389 482 440 575 491 680 c 1
 519 680 552 682 566 683 c 1
 568 680 l 1
 487 567 400 432 342 334 c 0
 333 319 332 305 332 293 c 2
 332 263 l 2
 332 172 335 81 341 3 c 1
 338 0 l 1
 314 0 277 -2 245 -5 c 1
 242 -2 l 1
 251 81 257 167 257 263 c 2
EndSplineSet
Substitution2: "Podtablica 'case' Warianty wersalikowe w +AUIA-aci+AUQA-skie w tablicy 4" Y
Substitution2: "Podtablica 'aalt' Dost+ARkA-p do wszystkich alternatyw w +AUIA-aci+AUQA-skie w tablicy 0" Y
EndChar

StartChar: z
Encoding: 122 122 93
Width: 633
GlyphClass: 1
Flags: MW
HStem: -2 20 662 20<608 608>
LayerCount: 2
Fore
SplineSet
459 605 m 0
 464 612 467 619 467 623 c 0
 467 638 446 641 346 641 c 0
 251 641 155 635 78 628 c 1
 75 631 l 1
 77 639 79 665 80 682 c 1
 160 680 337 679 418 679 c 0
 506 679 573 681 608 682 c 1
 610 666 l 1
 527 575 244 195 165 79 c 0
 160 71 157 65 157 61 c 0
 157 45 184 42 289 42 c 0
 410 42 536 49 612 57 c 1
 615 54 l 1
 612 41 609 13 609 -2 c 1
 521 -1 373 1 292 1 c 0
 181 1 81 0 14 -2 c 1
 12 12 l 1
 176 218 392 512 459 605 c 0
EndSplineSet
Substitution2: "Podtablica 'case' Warianty wersalikowe w +AUIA-aci+AUQA-skie w tablicy 4" Z
Substitution2: "Podtablica 'aalt' Dost+ARkA-p do wszystkich alternatyw w +AUIA-aci+AUQA-skie w tablicy 0" Z
EndChar

StartChar: braceleft
Encoding: 123 123 94
Width: 285
GlyphClass: 1
Flags: MW
HStem: -91 21<157 235> 742 25<198 198>
VStem: 78 52<19 19>
LayerCount: 2
Fore
SplineSet
235 -91 m 1
 157 -91 l 2
 81 -91 76 -61 78 19 c 2
 84 227 l 2
 86 286 67 326 0 329 c 1
 0 347 l 1
 67 350 86 390 84 449 c 2
 78 657 l 2
 76 737 81 767 157 767 c 2
 235 767 l 1
 235 746 l 1
 198 742 l 2
 142 737 130 721 130 651 c 2
 130 465 l 2
 130 389 105 361 49 339 c 1
 49 337 l 1
 105 315 130 287 130 211 c 2
 130 25 l 2
 130 -45 142 -61 198 -66 c 2
 235 -70 l 1
 235 -91 l 1
EndSplineSet
EndChar

StartChar: bar
Encoding: 124 124 95
Width: 260
GlyphClass: 1
Flags: MW
VStem: 107 45<773 773 4.29497e+009 4.29497e+009>
LayerCount: 2
Fore
SplineSet
152 -111 m 1
 144 -110 136 -110 129 -110 c 0
 123 -110 115 -110 107 -111 c 1
 110 -63 112 43 112 118 c 2
 112 546 l 2
 112 621 110 725 107 773 c 1
 115 772 123 772 129 772 c 0
 136 772 144 772 152 773 c 1
 149 725 148 621 148 546 c 2
 148 118 l 2
 148 41 149 -63 152 -111 c 1
EndSplineSet
EndChar

StartChar: braceright
Encoding: 125 125 96
Width: 285
GlyphClass: 1
Flags: W
LayerCount: 2
Fore
SplineSet
50 -91 m 1
 50 -70 l 1
 87 -66 l 2
 143 -61 154 -45 154 25 c 2
 154 211 l 2
 154 287 179 315 236 337 c 1
 236 339 l 1
 179 361 154 389 154 465 c 2
 154 651 l 2
 154 721 143 737 87 742 c 2
 50 746 l 1
 50 767 l 1
 128 767 l 2
 204 767 209 737 207 657 c 2
 201 449 l 2
 199 390 218 350 285 347 c 1
 285 329 l 1
 218 326 199 286 201 227 c 2
 207 19 l 2
 209 -61 204 -91 128 -91 c 2
 50 -91 l 1
EndSplineSet
EndChar

StartChar: asciitilde
Encoding: 126 126 97
Width: 480
GlyphClass: 1
Flags: MW
HStem: 246 41<327 368.5 327 371> 325 40<110 152>
LayerCount: 2
Fore
SplineSet
457 358 m 1
 443 310 410 246 332 246 c 0
 304 246 272 255 232 286 c 0
 190 317 167 325 137 325 c 0
 83 325 60 282 47 245 c 1
 23 254 l 1
 37 301 69 365 147 365 c 0
 175 365 205 359 249 325 c 0
 288 296 312 287 342 287 c 0
 395 287 420 329 433 366 c 1
 457 358 l 1
EndSplineSet
EndChar

StartChar: Agrave
Encoding: 192 192 99
Width: 721
GlyphClass: 1
Flags: MW
HStem: -5 20
LayerCount: 2
Fore
SplineSet
247 385 m 0
 238 367 244 355 266 352 c 0
 287 349 324 348 344 348 c 0
 373 348 408 349 430 352 c 0
 452 355 459 366 450 390 c 0
 434 433 405 503 379 550 c 0
 373 562 366 567 359 567 c 0
 352 567 346 561 339 550 c 0
 310 504 268 429 247 385 c 0
384 699 m 1
 399 700 l 1
 493 470 640 136 714 3 c 1
 711 0 l 1
 699 0 633 -2 609 -5 c 1
 583 66 536 185 502 263 c 0
 486 301 470 312 436 314 c 0
 413 315 377 316 341 316 c 0
 294 316 255 315 234 312 c 0
 210 309 195 291 182 266 c 0
 130 165 85 70 58 0 c 1
 32 0 7 -1 -14 -3 c 1
 -17 0 l 1
 113 221 255 470 384 699 c 1
429 731 m 1
 427 729 l 1
 405 729 l 1
 377 756 324 808 299 833 c 0
 293 839 287 845 287 851 c 0
 287 866 304 870 318 870 c 0
 332 870 338 862 344 851 c 0
 361 826 398 773 429 731 c 1
EndSplineSet
EndChar

StartChar: Aacute
Encoding: 193 193 100
Width: 721
GlyphClass: 1
Flags: MW
HStem: -5 20
LayerCount: 2
Fore
SplineSet
247 385 m 0
 238 367 244 355 266 352 c 0
 287 349 324 348 344 348 c 0
 373 348 408 349 430 352 c 0
 452 355 459 366 450 390 c 0
 434 433 405 503 379 550 c 0
 373 562 366 567 359 567 c 0
 352 567 346 561 339 550 c 0
 310 504 268 429 247 385 c 0
384 699 m 1
 399 700 l 1
 493 470 640 136 714 3 c 1
 711 0 l 1
 699 0 633 -2 609 -5 c 1
 583 66 536 185 502 263 c 0
 486 301 470 312 436 314 c 0
 413 315 377 316 341 316 c 0
 294 316 255 315 234 312 c 0
 210 309 195 291 182 266 c 0
 130 165 85 70 58 0 c 1
 32 0 7 -1 -14 -3 c 1
 -17 0 l 1
 113 221 255 470 384 699 c 1
361 731 m 1
 392 773 429 826 446 851 c 0
 452 862 458 870 472 870 c 0
 486 870 503 866 503 851 c 0
 503 845 497 839 491 833 c 0
 466 808 413 756 385 729 c 1
 363 729 l 1
 361 731 l 1
EndSplineSet
EndChar

StartChar: Acircumflex
Encoding: 194 194 101
Width: 721
GlyphClass: 1
Flags: MW
HStem: -5 20
LayerCount: 2
Fore
SplineSet
247 385 m 0
 238 367 244 355 266 352 c 0
 287 349 324 348 344 348 c 0
 373 348 408 349 430 352 c 0
 452 355 459 366 450 390 c 0
 434 433 405 503 379 550 c 0
 373 562 366 567 359 567 c 0
 352 567 346 561 339 550 c 0
 310 504 268 429 247 385 c 0
384 699 m 1
 399 700 l 1
 493 470 640 136 714 3 c 1
 711 0 l 1
 699 0 633 -2 609 -5 c 1
 583 66 536 185 502 263 c 0
 486 301 470 312 436 314 c 0
 413 315 377 316 341 316 c 0
 294 316 255 315 234 312 c 0
 210 309 195 291 182 266 c 0
 130 165 85 70 58 0 c 1
 32 0 7 -1 -14 -3 c 1
 -17 0 l 1
 113 221 255 470 384 699 c 1
531 738 m 1
 505 734 l 1
 390 800 l 1
 275 734 l 1
 249 738 l 1
 249 742 l 1
 286 770 342 815 383 852 c 1
 397 852 l 1
 438 815 494 770 531 742 c 1
 531 738 l 1
EndSplineSet
EndChar

StartChar: Atilde
Encoding: 195 195 102
Width: 721
GlyphClass: 1
Flags: MW
HStem: -5 20
LayerCount: 2
Fore
SplineSet
247 385 m 0
 238 367 244 355 266 352 c 0
 287 349 324 348 344 348 c 0
 373 348 408 349 430 352 c 0
 452 355 459 366 450 390 c 0
 434 433 405 503 379 550 c 0
 373 562 366 567 359 567 c 0
 352 567 346 561 339 550 c 0
 310 504 268 429 247 385 c 0
384 699 m 1
 399 700 l 1
 493 470 640 136 714 3 c 1
 711 0 l 1
 699 0 633 -2 609 -5 c 1
 583 66 536 185 502 263 c 0
 486 301 470 312 436 314 c 0
 413 315 377 316 341 316 c 0
 294 316 255 315 234 312 c 0
 210 309 195 291 182 266 c 0
 130 165 85 70 58 0 c 1
 32 0 7 -1 -14 -3 c 1
 -17 0 l 1
 113 221 255 470 384 699 c 1
562 832 m 1
 547 785 521 742 473 742 c 0
 444 742 422 754 391 776 c 0
 366 793 347 802 330 802 c 0
 303 802 285 789 272 747 c 1
 253 756 l 1
 269 805 291 847 347 847 c 0
 373 847 398 836 429 815 c 0
 451 799 473 786 490 786 c 0
 517 786 530 805 543 840 c 1
 562 832 l 1
EndSplineSet
EndChar

StartChar: Adieresis
Encoding: 196 196 103
Width: 721
GlyphClass: 1
Flags: MW
HStem: -5 20
LayerCount: 2
Fore
SplineSet
604 784 m 0
 604 761 584 742 561 742 c 0
 537 742 518 760 518 784 c 0
 518 808 537 826 561 826 c 0
 584 826 604 808 604 784 c 0
263 784 m 0
 263 761 244 742 221 742 c 0
 197 742 178 760 178 784 c 0
 178 808 197 826 221 826 c 0
 244 826 263 808 263 784 c 0
247 385 m 0
 238 367 244 355 266 352 c 0
 287 349 324 348 344 348 c 0
 373 348 408 349 430 352 c 0
 452 355 459 366 450 390 c 0
 434 433 405 503 379 550 c 0
 373 562 366 567 359 567 c 0
 352 567 346 561 339 550 c 0
 310 504 268 429 247 385 c 0
384 699 m 1
 399 700 l 1
 493 470 640 136 714 3 c 1
 711 0 l 1
 699 0 633 -2 609 -5 c 1
 583 66 536 185 502 263 c 0
 486 301 470 312 436 314 c 0
 413 315 377 316 341 316 c 0
 294 316 255 315 234 312 c 0
 210 309 195 291 182 266 c 0
 130 165 85 70 58 0 c 1
 32 0 7 -1 -14 -3 c 1
 -17 0 l 1
 113 221 255 470 384 699 c 1
EndSplineSet
EndChar

StartChar: Amacron
Encoding: 256 256 104
Width: 721
GlyphClass: 1
Flags: MW
HStem: -5 20
LayerCount: 2
Fore
SplineSet
247 385 m 0
 238 367 244 355 266 352 c 0
 287 349 324 348 344 348 c 0
 373 348 408 349 430 352 c 0
 452 355 459 366 450 390 c 0
 434 433 405 503 379 550 c 0
 373 562 366 567 359 567 c 0
 352 567 346 561 339 550 c 0
 310 504 268 429 247 385 c 0
384 699 m 1
 399 700 l 1
 493 470 640 136 714 3 c 1
 711 0 l 1
 699 0 633 -2 609 -5 c 1
 583 66 536 185 502 263 c 0
 486 301 470 312 436 314 c 0
 413 315 377 316 341 316 c 0
 294 316 255 315 234 312 c 0
 210 309 195 291 182 266 c 0
 130 165 85 70 58 0 c 1
 32 0 7 -1 -14 -3 c 1
 -17 0 l 1
 113 221 255 470 384 699 c 1
538 759 m 1
 271 759 l 1
 271 795 l 1
 538 795 l 1
 538 759 l 1
EndSplineSet
EndChar

StartChar: Abreve
Encoding: 258 258 105
Width: 721
GlyphClass: 1
Flags: MW
HStem: -5 20
LayerCount: 2
Fore
SplineSet
247 385 m 0
 238 367 244 355 266 352 c 0
 287 349 324 348 344 348 c 0
 373 348 408 349 430 352 c 0
 452 355 459 366 450 390 c 0
 434 433 405 503 379 550 c 0
 373 562 366 567 359 567 c 0
 352 567 346 561 339 550 c 0
 310 504 268 429 247 385 c 0
384 699 m 1
 399 700 l 1
 493 470 640 136 714 3 c 1
 711 0 l 1
 699 0 633 -2 609 -5 c 1
 583 66 536 185 502 263 c 0
 486 301 470 312 436 314 c 0
 413 315 377 316 341 316 c 0
 294 316 255 315 234 312 c 0
 210 309 195 291 182 266 c 0
 130 165 85 70 58 0 c 1
 32 0 7 -1 -14 -3 c 1
 -17 0 l 1
 113 221 255 470 384 699 c 1
544 862 m 1
 535 797 497 738 408 738 c 0
 319 738 281 795 272 859 c 1
 290 869 l 1
 306 819 333 789 408 789 c 0
 483 789 510 819 525 869 c 1
 544 862 l 1
EndSplineSet
EndChar

StartChar: Aring
Encoding: 197 197 106
Width: 721
GlyphClass: 1
Flags: MW
HStem: -5 20
LayerCount: 2
Fore
SplineSet
247 385 m 0
 238 367 244 355 266 352 c 0
 287 349 324 348 344 348 c 0
 373 348 408 349 430 352 c 0
 452 355 459 366 450 390 c 0
 434 433 405 503 379 550 c 0
 373 562 366 567 359 567 c 0
 352 567 346 561 339 550 c 0
 310 504 268 429 247 385 c 0
-17 0 m 1
 113 221 230 422 347 632 c 0
 353 643 357 664 342 672 c 0
 319 683 297 698 297 746 c 0
 297 803 341 837 390 837 c 0
 440 837 483 805 483 746 c 0
 483 706 464 687 442 674 c 0
 422 664 420 646 428 627 c 0
 505 440 645 131 714 3 c 1
 711 0 l 1
 699 0 633 -2 609 -5 c 1
 583 66 536 185 502 263 c 0
 486 301 470 312 436 314 c 0
 413 315 377 316 341 316 c 0
 294 316 255 315 234 312 c 0
 210 309 195 291 182 266 c 0
 130 165 85 70 58 0 c 1
 32 0 7 -1 -14 -3 c 1
 -17 0 l 1
448 748 m 0
 448 785 428 815 390 815 c 0
 352 815 332 785 332 748 c 0
 332 708 352 680 390 680 c 0
 428 680 448 707 448 748 c 0
EndSplineSet
EndChar

StartChar: Aogonek
Encoding: 260 260 107
Width: 721
GlyphClass: 1
Flags: MW
HStem: -5 20
LayerCount: 2
Fore
SplineSet
695 -199 m 1
 673 -217 640 -228 608 -228 c 0
 556 -228 508 -205 508 -147 c 0
 508 -91 542 -54 615 -4 c 1
 613 -4 611 -5 609 -5 c 0
 583 66 536 185 502 263 c 0
 486 301 470 312 436 314 c 0
 413 315 377 316 341 316 c 0
 294 316 255 315 234 312 c 0
 210 309 195 291 182 266 c 0
 130 165 85 70 58 0 c 1
 32 0 7 -1 -14 -3 c 1
 -17 0 l 1
 113 221 255 470 384 699 c 1
 399 700 l 1
 493 470 640 136 714 3 c 1
 711 0 l 1
 704 0 679 0 655 -1 c 1
 585 -57 561 -90 561 -135 c 0
 561 -175 584 -200 628 -200 c 0
 647 -200 666 -194 686 -182 c 1
 695 -199 l 1
247 385 m 0
 238 367 244 355 266 352 c 0
 287 349 324 348 344 348 c 0
 373 348 408 349 430 352 c 0
 452 355 459 366 450 390 c 0
 434 433 405 503 379 550 c 0
 373 562 366 567 359 567 c 0
 352 567 346 561 339 550 c 0
 310 504 268 429 247 385 c 0
EndSplineSet
EndChar

StartChar: AE
Encoding: 198 198 108
Width: 839
GlyphClass: 1
Flags: MW
HStem: -3 20 662 20<780 780>
LayerCount: 2
Fore
SplineSet
479 415 m 2
 479 548 l 2
 479 580 477 598 467 598 c 0
 459 598 449 588 438 572 c 0
 402 521 358 457 329 409 c 0
 320 394 323 379 337 377 c 0
 357 374 377 373 399 373 c 0
 421 373 447 374 464 376 c 0
 473 377 479 385 479 415 c 2
560 679 m 0
 627 679 719 680 780 682 c 1
 783 679 l 1
 781 666 779 645 779 631 c 1
 742 639 676 645 621 645 c 0
 569 645 559 635 557 600 c 0
 554 554 553 491 553 458 c 2
 553 427 l 2
 553 375 562 373 599 373 c 0
 658 373 731 377 762 382 c 1
 765 379 l 1
 763 367 762 344 762 331 c 1
 727 335 658 339 599 339 c 0
 557 339 553 335 553 278 c 2
 553 261 l 2
 553 213 554 155 558 91 c 0
 561 48 574 35 632 35 c 0
 681 35 732 40 783 51 c 1
 786 48 l 1
 784 36 782 13 782 -2 c 1
 711 0 616 1 550 1 c 0
 522 1 498 0 474 -1 c 1
 471 2 l 1
 476 81 479 163 480 266 c 2
 480 288 l 2
 480 322 477 329 464 333 c 0
 448 338 421 339 379 339 c 0
 303 339 288 333 264 299 c 0
 192 194 109 63 77 0 c 1
 54 0 26 -1 5 -3 c 1
 2 0 l 1
 151 210 333 477 468 682 c 1
 496 680 533 679 560 679 c 0
EndSplineSet
Ligature2: "Podtablica 'dpng' Diphthongs (Obsolete) w +AUIA-aci+AUQA-skie w tablicy 14" A E
EndChar

StartChar: Cacute
Encoding: 262 262 109
Width: 694
GlyphClass: 1
Flags: MW
HStem: -13 20 673 20<320.5 493.5>
LayerCount: 2
Fore
SplineSet
151 340 m 0
 151 120 282 26 454 26 c 0
 538 26 618 64 653 106 c 1
 660 104 l 1
 659 93 654 58 650 46 c 1
 619 20 537 -13 438 -13 c 0
 214 -13 62 115 62 340 c 0
 62 562 196 693 445 693 c 0
 542 693 632 669 671 647 c 1
 662 621 654 592 649 561 c 1
 635 559 l 1
 607 629 532 661 439 661 c 0
 264 661 151 550 151 340 c 0
379 731 m 1
 410 773 447 826 464 851 c 0
 470 862 476 870 490 870 c 0
 504 870 521 866 521 851 c 0
 521 845 515 839 509 833 c 0
 484 808 431 756 403 729 c 1
 381 729 l 1
 379 731 l 1
EndSplineSet
EndChar

StartChar: Ccircumflex
Encoding: 264 264 110
Width: 694
GlyphClass: 1
Flags: MW
HStem: -13 20 673 20<320.5 493.5>
LayerCount: 2
Fore
SplineSet
151 340 m 0
 151 120 282 26 454 26 c 0
 538 26 618 64 653 106 c 1
 660 104 l 1
 659 93 654 58 650 46 c 1
 619 20 537 -13 438 -13 c 0
 214 -13 62 115 62 340 c 0
 62 562 196 693 445 693 c 0
 542 693 632 669 671 647 c 1
 662 621 654 592 649 561 c 1
 635 559 l 1
 607 629 532 661 439 661 c 0
 264 661 151 550 151 340 c 0
554 738 m 1
 528 734 l 1
 413 800 l 1
 298 734 l 1
 272 738 l 1
 272 742 l 1
 309 770 365 815 406 852 c 1
 420 852 l 1
 461 815 517 770 554 742 c 1
 554 738 l 1
EndSplineSet
EndChar

StartChar: Ccaron
Encoding: 268 268 111
Width: 694
GlyphClass: 1
Flags: MW
HStem: -13 20 673 20<320.5 493.5>
LayerCount: 2
Fore
SplineSet
151 340 m 0
 151 120 282 26 454 26 c 0
 538 26 618 64 653 106 c 1
 660 104 l 1
 659 93 654 58 650 46 c 1
 619 20 537 -13 438 -13 c 0
 214 -13 62 115 62 340 c 0
 62 562 196 693 445 693 c 0
 542 693 632 669 671 647 c 1
 662 621 654 592 649 561 c 1
 635 559 l 1
 607 629 532 661 439 661 c 0
 264 661 151 550 151 340 c 0
554 848 m 1
 554 844 l 1
 517 816 461 771 420 734 c 1
 406 734 l 1
 365 771 309 816 272 844 c 1
 272 848 l 1
 298 852 l 1
 413 786 l 1
 528 852 l 1
 554 848 l 1
EndSplineSet
EndChar

StartChar: Cdotaccent
Encoding: 266 266 112
Width: 694
GlyphClass: 1
Flags: MW
HStem: -13 20 673 20<320.5 493.5>
LayerCount: 2
Fore
SplineSet
151 340 m 0
 151 120 282 26 454 26 c 0
 538 26 618 64 653 106 c 1
 660 104 l 1
 659 93 654 58 650 46 c 1
 619 20 537 -13 438 -13 c 0
 214 -13 62 115 62 340 c 0
 62 562 196 693 445 693 c 0
 542 693 632 669 671 647 c 1
 662 621 654 592 649 561 c 1
 635 559 l 1
 607 629 532 661 439 661 c 0
 264 661 151 550 151 340 c 0
463 797 m 0
 463 771 442 750 416 750 c 0
 390 750 369 771 369 797 c 0
 369 824 390 844 416 844 c 0
 442 844 463 824 463 797 c 0
EndSplineSet
EndChar

StartChar: Ccedilla
Encoding: 199 199 113
Width: 694
GlyphClass: 1
Flags: MW
HStem: 673 20<320.5 493.5>
LayerCount: 2
Fore
SplineSet
441 -13 m 1
 421 -72 l 1
 436 -70 453 -69 461 -69 c 0
 499 -69 551 -87 551 -140 c 0
 551 -203 497 -228 435 -228 c 0
 412 -228 377 -223 353 -217 c 1
 358 -193 l 1
 374 -198 405 -202 426 -202 c 0
 462 -202 499 -192 499 -145 c 0
 499 -109 470 -97 442 -97 c 0
 423 -97 402 -100 383 -105 c 1
 378 -92 l 1
 391 -67 402 -44 415 -12 c 1
 205 -4 62 122 62 340 c 0
 62 562 196 693 445 693 c 0
 542 693 632 669 671 647 c 1
 662 621 654 592 649 561 c 1
 635 559 l 1
 607 629 532 661 439 661 c 0
 264 661 151 550 151 340 c 0
 151 120 282 26 454 26 c 0
 538 26 618 64 653 106 c 1
 660 104 l 1
 659 93 654 58 650 46 c 1
 619 20 537 -13 441 -13 c 1
EndSplineSet
EndChar

StartChar: Dcaron
Encoding: 270 270 114
Width: 780
GlyphClass: 1
Flags: MW
HStem: -2 20 662 20<105 105 337.5 483>
LayerCount: 2
Fore
SplineSet
189 600 m 0
 185 553 182 465 182 375 c 2
 182 325 l 2
 182 256 184 140 189 92 c 0
 194 41 232 34 317 34 c 0
 468 34 631 90 631 354 c 0
 631 586 509 647 341 647 c 0
 215 647 192 639 189 600 c 0
94 2 m 1
 103 81 107 235 107 325 c 2
 107 375 l 2
 107 465 106 598 101 678 c 1
 105 682 l 1
 131 680 161 679 191 679 c 0
 232 679 309 682 366 682 c 0
 600 682 720 596 720 354 c 0
 720 90 540 -2 339 -2 c 0
 291 -2 240 0 195 0 c 0
 168 0 127 -1 97 -1 c 1
 94 2 l 1
522 848 m 1
 522 844 l 1
 485 816 429 771 388 734 c 1
 374 734 l 1
 333 771 277 816 240 844 c 1
 240 848 l 1
 266 852 l 1
 381 786 l 1
 496 852 l 1
 522 848 l 1
EndSplineSet
EndChar

StartChar: Dcroat
Encoding: 272 272 115
Width: 780
GlyphClass: 1
Flags: MW
HStem: -2 20 662 20<105 105 337.5 483>
LayerCount: 2
Fore
SplineSet
182 300 m 0
 182 230 184 140 189 92 c 0
 194 41 232 34 317 34 c 0
 468 34 631 90 631 354 c 0
 631 586 509 647 341 647 c 0
 215 647 192 639 189 600 c 0
 185 553 180 473 181 431 c 0
 181 388 184 386 223 386 c 2
 230 386 l 2
 277 386 321 387 361 389 c 1
 360 383 360 375 360 368 c 0
 360 360 360 354 361 347 c 1
 321 349 276 350 243 350 c 2
 222 350 l 2
 189 350 182 336 182 300 c 0
107 299 m 0
 107 338 105 350 71 350 c 2
 58 350 l 2
 41 350 24 349 9 347 c 1
 10 354 10 360 10 368 c 0
 10 375 10 383 9 389 c 1
 24 387 41 386 58 386 c 2
 70 386 l 2
 95 386 108 391 108 434 c 0
 108 518 106 598 101 678 c 1
 105 682 l 1
 131 680 161 679 191 679 c 0
 232 679 309 682 366 682 c 0
 600 682 720 596 720 354 c 0
 720 90 540 -2 339 -2 c 0
 291 -2 240 0 195 0 c 0
 168 0 127 -1 97 -1 c 1
 94 2 l 1
 103 81 107 209 107 299 c 0
EndSplineSet
EndChar

StartChar: Eth
Encoding: 208 208 116
Width: 780
GlyphClass: 1
Flags: MW
HStem: -2 20 662 20<105 105 337.5 483>
LayerCount: 2
Fore
SplineSet
182 300 m 0
 182 230 184 140 189 92 c 0
 194 41 232 34 317 34 c 0
 468 34 631 90 631 354 c 0
 631 586 509 647 341 647 c 0
 215 647 192 639 189 600 c 0
 185 553 180 473 181 431 c 0
 181 388 184 386 223 386 c 2
 230 386 l 2
 277 386 321 387 361 389 c 1
 360 383 360 375 360 368 c 0
 360 360 360 354 361 347 c 1
 321 349 276 350 243 350 c 2
 222 350 l 2
 189 350 182 336 182 300 c 0
107 299 m 0
 107 338 105 350 71 350 c 2
 58 350 l 2
 41 350 24 349 9 347 c 1
 10 354 10 360 10 368 c 0
 10 375 10 383 9 389 c 1
 24 387 41 386 58 386 c 2
 70 386 l 2
 95 386 108 391 108 434 c 0
 108 518 106 598 101 678 c 1
 105 682 l 1
 131 680 161 679 191 679 c 0
 232 679 309 682 366 682 c 0
 600 682 720 596 720 354 c 0
 720 90 540 -2 339 -2 c 0
 291 -2 240 0 195 0 c 0
 168 0 127 -1 97 -1 c 1
 94 2 l 1
 103 81 107 209 107 299 c 0
EndSplineSet
EndChar

StartChar: Egrave
Encoding: 200 200 117
Width: 465
GlyphClass: 1
Flags: MW
HStem: -2 20 662 20<106 106 407 407>
LayerCount: 2
Fore
SplineSet
95 2 m 1
 104 81 108 235 108 325 c 2
 108 375 l 2
 108 465 107 598 102 678 c 1
 106 682 l 1
 132 680 162 679 190 679 c 0
 256 679 347 680 407 682 c 1
 410 679 l 1
 408 666 406 645 406 631 c 1
 369 639 303 645 248 645 c 0
 196 645 186 635 184 600 c 0
 181 552 180 491 180 458 c 2
 180 439 l 2
 180 387 189 385 226 385 c 0
 285 385 358 389 389 394 c 1
 392 391 l 1
 390 379 389 356 389 343 c 1
 354 347 285 351 226 351 c 0
 184 351 180 347 180 290 c 2
 180 273 l 2
 180 201 181 155 185 91 c 0
 188 48 201 35 259 35 c 0
 308 35 359 40 410 51 c 1
 413 48 l 1
 411 36 409 13 409 -2 c 1
 338 0 243 1 177 1 c 0
 147 1 122 0 98 -1 c 1
 95 2 l 1
273 731 m 1
 271 729 l 1
 249 729 l 1
 221 756 168 808 143 833 c 0
 137 839 131 845 131 851 c 0
 131 866 148 870 162 870 c 0
 176 870 182 862 188 851 c 0
 205 826 242 773 273 731 c 1
EndSplineSet
EndChar

StartChar: Eacute
Encoding: 201 201 118
Width: 465
GlyphClass: 1
Flags: MW
HStem: -2 20 662 20<106 106 407 407>
LayerCount: 2
Fore
SplineSet
95 2 m 1
 104 81 108 235 108 325 c 2
 108 375 l 2
 108 465 107 598 102 678 c 1
 106 682 l 1
 132 680 162 679 190 679 c 0
 256 679 347 680 407 682 c 1
 410 679 l 1
 408 666 406 645 406 631 c 1
 369 639 303 645 248 645 c 0
 196 645 186 635 184 600 c 0
 181 552 180 491 180 458 c 2
 180 439 l 2
 180 387 189 385 226 385 c 0
 285 385 358 389 389 394 c 1
 392 391 l 1
 390 379 389 356 389 343 c 1
 354 347 285 351 226 351 c 0
 184 351 180 347 180 290 c 2
 180 273 l 2
 180 201 181 155 185 91 c 0
 188 48 201 35 259 35 c 0
 308 35 359 40 410 51 c 1
 413 48 l 1
 411 36 409 13 409 -2 c 1
 338 0 243 1 177 1 c 0
 147 1 122 0 98 -1 c 1
 95 2 l 1
227 731 m 1
 258 773 295 826 312 851 c 0
 318 862 324 870 338 870 c 0
 352 870 369 866 369 851 c 0
 369 845 363 839 357 833 c 0
 332 808 279 756 251 729 c 1
 229 729 l 1
 227 731 l 1
EndSplineSet
EndChar

StartChar: Ecircumflex
Encoding: 202 202 119
Width: 465
GlyphClass: 1
Flags: MW
HStem: -2 20 662 20<106 106 407 407>
LayerCount: 2
Fore
SplineSet
95 2 m 1
 104 81 108 235 108 325 c 2
 108 375 l 2
 108 465 107 598 102 678 c 1
 106 682 l 1
 132 680 162 679 190 679 c 0
 256 679 347 680 407 682 c 1
 410 679 l 1
 408 666 406 645 406 631 c 1
 369 639 303 645 248 645 c 0
 196 645 186 635 184 600 c 0
 181 552 180 491 180 458 c 2
 180 439 l 2
 180 387 189 385 226 385 c 0
 285 385 358 389 389 394 c 1
 392 391 l 1
 390 379 389 356 389 343 c 1
 354 347 285 351 226 351 c 0
 184 351 180 347 180 290 c 2
 180 273 l 2
 180 201 181 155 185 91 c 0
 188 48 201 35 259 35 c 0
 308 35 359 40 410 51 c 1
 413 48 l 1
 411 36 409 13 409 -2 c 1
 338 0 243 1 177 1 c 0
 147 1 122 0 98 -1 c 1
 95 2 l 1
403 738 m 1
 377 734 l 1
 262 800 l 1
 147 734 l 1
 121 738 l 1
 121 742 l 1
 158 770 214 815 255 852 c 1
 269 852 l 1
 310 815 366 770 403 742 c 1
 403 738 l 1
EndSplineSet
EndChar

StartChar: Ecaron
Encoding: 282 282 120
Width: 465
GlyphClass: 1
Flags: MW
HStem: -2 20 662 20<106 106 407 407>
LayerCount: 2
Fore
SplineSet
95 2 m 1
 104 81 108 235 108 325 c 2
 108 375 l 2
 108 465 107 598 102 678 c 1
 106 682 l 1
 132 680 162 679 190 679 c 0
 256 679 347 680 407 682 c 1
 410 679 l 1
 408 666 406 645 406 631 c 1
 369 639 303 645 248 645 c 0
 196 645 186 635 184 600 c 0
 181 552 180 491 180 458 c 2
 180 439 l 2
 180 387 189 385 226 385 c 0
 285 385 358 389 389 394 c 1
 392 391 l 1
 390 379 389 356 389 343 c 1
 354 347 285 351 226 351 c 0
 184 351 180 347 180 290 c 2
 180 273 l 2
 180 201 181 155 185 91 c 0
 188 48 201 35 259 35 c 0
 308 35 359 40 410 51 c 1
 413 48 l 1
 411 36 409 13 409 -2 c 1
 338 0 243 1 177 1 c 0
 147 1 122 0 98 -1 c 1
 95 2 l 1
403 848 m 1
 403 844 l 1
 366 816 310 771 269 734 c 1
 255 734 l 1
 214 771 158 816 121 844 c 1
 121 848 l 1
 147 852 l 1
 262 786 l 1
 377 852 l 1
 403 848 l 1
EndSplineSet
EndChar

StartChar: Edieresis
Encoding: 203 203 121
Width: 465
GlyphClass: 1
Flags: MW
HStem: -2 20 662 20<106 106 407 407>
LayerCount: 2
Fore
SplineSet
95 2 m 1
 104 81 108 235 108 325 c 2
 108 375 l 2
 108 465 107 598 102 678 c 1
 106 682 l 1
 132 680 162 679 190 679 c 0
 256 679 347 680 407 682 c 1
 410 679 l 1
 408 666 406 645 406 631 c 1
 369 639 303 645 248 645 c 0
 196 645 186 635 184 600 c 0
 181 552 180 491 180 458 c 2
 180 439 l 2
 180 387 189 385 226 385 c 0
 285 385 358 389 389 394 c 1
 392 391 l 1
 390 379 389 356 389 343 c 1
 354 347 285 351 226 351 c 0
 184 351 180 347 180 290 c 2
 180 273 l 2
 180 201 181 155 185 91 c 0
 188 48 201 35 259 35 c 0
 308 35 359 40 410 51 c 1
 413 48 l 1
 411 36 409 13 409 -2 c 1
 338 0 243 1 177 1 c 0
 147 1 122 0 98 -1 c 1
 95 2 l 1
383 799 m 0
 383 776 363 757 340 757 c 0
 316 757 297 775 297 799 c 0
 297 823 316 841 340 841 c 0
 363 841 383 823 383 799 c 0
214 799 m 0
 214 776 195 757 172 757 c 0
 148 757 129 775 129 799 c 0
 129 823 148 841 172 841 c 0
 195 841 214 823 214 799 c 0
EndSplineSet
EndChar

StartChar: Emacron
Encoding: 274 274 122
Width: 465
GlyphClass: 1
Flags: MW
HStem: -2 20 662 20<106 106 407 407>
LayerCount: 2
Fore
SplineSet
95 2 m 1
 104 81 108 235 108 325 c 2
 108 375 l 2
 108 465 107 598 102 678 c 1
 106 682 l 1
 132 680 162 679 190 679 c 0
 256 679 347 680 407 682 c 1
 410 679 l 1
 408 666 406 645 406 631 c 1
 369 639 303 645 248 645 c 0
 196 645 186 635 184 600 c 0
 181 552 180 491 180 458 c 2
 180 439 l 2
 180 387 189 385 226 385 c 0
 285 385 358 389 389 394 c 1
 392 391 l 1
 390 379 389 356 389 343 c 1
 354 347 285 351 226 351 c 0
 184 351 180 347 180 290 c 2
 180 273 l 2
 180 201 181 155 185 91 c 0
 188 48 201 35 259 35 c 0
 308 35 359 40 410 51 c 1
 413 48 l 1
 411 36 409 13 409 -2 c 1
 338 0 243 1 177 1 c 0
 147 1 122 0 98 -1 c 1
 95 2 l 1
396 759 m 1
 129 759 l 1
 129 795 l 1
 396 795 l 1
 396 759 l 1
EndSplineSet
EndChar

StartChar: Ebreve
Encoding: 276 276 123
Width: 465
GlyphClass: 1
Flags: MW
HStem: -2 20 662 20<106 106 407 407>
LayerCount: 2
Fore
SplineSet
95 2 m 1
 104 81 108 235 108 325 c 2
 108 375 l 2
 108 465 107 598 102 678 c 1
 106 682 l 1
 132 680 162 679 190 679 c 0
 256 679 347 680 407 682 c 1
 410 679 l 1
 408 666 406 645 406 631 c 1
 369 639 303 645 248 645 c 0
 196 645 186 635 184 600 c 0
 181 552 180 491 180 458 c 2
 180 439 l 2
 180 387 189 385 226 385 c 0
 285 385 358 389 389 394 c 1
 392 391 l 1
 390 379 389 356 389 343 c 1
 354 347 285 351 226 351 c 0
 184 351 180 347 180 290 c 2
 180 273 l 2
 180 201 181 155 185 91 c 0
 188 48 201 35 259 35 c 0
 308 35 359 40 410 51 c 1
 413 48 l 1
 411 36 409 13 409 -2 c 1
 338 0 243 1 177 1 c 0
 147 1 122 0 98 -1 c 1
 95 2 l 1
398 862 m 1
 389 797 351 738 262 738 c 0
 173 738 135 795 126 859 c 1
 144 869 l 1
 160 819 187 789 262 789 c 0
 337 789 364 819 379 869 c 1
 398 862 l 1
EndSplineSet
EndChar

StartChar: Edotaccent
Encoding: 278 278 124
Width: 465
GlyphClass: 1
Flags: MW
HStem: -2 20 662 20<106 106 407 407>
LayerCount: 2
Fore
SplineSet
95 2 m 1
 104 81 108 235 108 325 c 2
 108 375 l 2
 108 465 107 598 102 678 c 1
 106 682 l 1
 132 680 162 679 190 679 c 0
 256 679 347 680 407 682 c 1
 410 679 l 1
 408 666 406 645 406 631 c 1
 369 639 303 645 248 645 c 0
 196 645 186 635 184 600 c 0
 181 552 180 491 180 458 c 2
 180 439 l 2
 180 387 189 385 226 385 c 0
 285 385 358 389 389 394 c 1
 392 391 l 1
 390 379 389 356 389 343 c 1
 354 347 285 351 226 351 c 0
 184 351 180 347 180 290 c 2
 180 273 l 2
 180 201 181 155 185 91 c 0
 188 48 201 35 259 35 c 0
 308 35 359 40 410 51 c 1
 413 48 l 1
 411 36 409 13 409 -2 c 1
 338 0 243 1 177 1 c 0
 147 1 122 0 98 -1 c 1
 95 2 l 1
309 797 m 0
 309 771 288 750 262 750 c 0
 236 750 215 771 215 797 c 0
 215 824 236 844 262 844 c 0
 288 844 309 824 309 797 c 0
EndSplineSet
EndChar

StartChar: Eogonek
Encoding: 280 280 125
Width: 465
GlyphClass: 1
Flags: MW
HStem: -2 20 662 20<106 106 407 407>
LayerCount: 2
Fore
SplineSet
423 -199 m 1
 401 -217 368 -228 336 -228 c 0
 284 -228 236 -205 236 -147 c 0
 236 -90 272 -52 349 0 c 1
 290 0 226 1 177 1 c 0
 147 1 122 0 98 -1 c 1
 95 2 l 1
 104 81 108 235 108 325 c 2
 108 375 l 2
 108 465 107 598 102 678 c 1
 106 682 l 1
 132 680 162 679 190 679 c 0
 256 679 347 680 407 682 c 1
 410 679 l 1
 408 666 406 645 406 631 c 1
 369 639 303 645 248 645 c 0
 196 645 186 635 184 600 c 0
 181 552 180 491 180 458 c 2
 180 439 l 2
 180 387 189 385 226 385 c 0
 285 385 358 389 389 394 c 1
 392 391 l 1
 390 379 389 356 389 343 c 1
 354 347 285 351 226 351 c 0
 184 351 180 347 180 290 c 2
 180 273 l 2
 180 201 181 155 185 91 c 0
 188 48 201 35 259 35 c 0
 308 35 359 40 410 51 c 1
 413 48 l 1
 411 36 409 13 409 -2 c 1
 401 -2 392 -1 383 -1 c 1
 313 -57 289 -90 289 -135 c 0
 289 -175 312 -200 356 -200 c 0
 375 -200 394 -194 414 -182 c 1
 423 -199 l 1
EndSplineSet
EndChar

StartChar: Gcircumflex
Encoding: 284 284 126
Width: 764
GlyphClass: 1
Flags: MW
HStem: -15 20 675 20<322.5 503>
LayerCount: 2
Fore
SplineSet
691 27 m 1
 689 24 l 1
 644 7 543 -15 453 -15 c 0
 191 -15 62 130 62 341 c 0
 62 562 192 695 453 695 c 0
 553 695 644 671 684 649 c 1
 675 623 667 594 662 565 c 1
 650 563 l 1
 621 630 542 664 447 664 c 0
 253 664 151 550 151 341 c 0
 151 147 253 19 462 19 c 0
 519 19 567 28 594 43 c 0
 605 49 611 64 611 78 c 0
 611 149 608 214 602 281 c 1
 605 284 l 1
 623 284 660 286 689 289 c 1
 692 286 l 1
 688 242 687 179 687 124 c 0
 687 87 688 54 691 27 c 1
566 738 m 1
 540 734 l 1
 425 800 l 1
 310 734 l 1
 284 738 l 1
 284 742 l 1
 321 770 377 815 418 852 c 1
 432 852 l 1
 473 815 529 770 566 742 c 1
 566 738 l 1
EndSplineSet
EndChar

StartChar: Gbreve
Encoding: 286 286 127
Width: 764
GlyphClass: 1
Flags: MW
HStem: -15 20 675 20<322.5 503>
LayerCount: 2
Fore
SplineSet
691 27 m 1
 689 24 l 1
 644 7 543 -15 453 -15 c 0
 191 -15 62 130 62 341 c 0
 62 562 192 695 453 695 c 0
 553 695 644 671 684 649 c 1
 675 623 667 594 662 565 c 1
 650 563 l 1
 621 630 542 664 447 664 c 0
 253 664 151 550 151 341 c 0
 151 147 253 19 462 19 c 0
 519 19 567 28 594 43 c 0
 605 49 611 64 611 78 c 0
 611 149 608 214 602 281 c 1
 605 284 l 1
 623 284 660 286 689 289 c 1
 692 286 l 1
 688 242 687 179 687 124 c 0
 687 87 688 54 691 27 c 1
559 862 m 1
 550 797 512 738 423 738 c 0
 334 738 296 795 287 859 c 1
 305 869 l 1
 321 819 348 789 423 789 c 0
 498 789 525 819 540 869 c 1
 559 862 l 1
EndSplineSet
EndChar

StartChar: Gdotaccent
Encoding: 288 288 128
Width: 764
GlyphClass: 1
Flags: MW
HStem: -15 20 675 20<322.5 503>
LayerCount: 2
Fore
SplineSet
691 27 m 1
 689 24 l 1
 644 7 543 -15 453 -15 c 0
 191 -15 62 130 62 341 c 0
 62 562 192 695 453 695 c 0
 553 695 644 671 684 649 c 1
 675 623 667 594 662 565 c 1
 650 563 l 1
 621 630 542 664 447 664 c 0
 253 664 151 550 151 341 c 0
 151 147 253 19 462 19 c 0
 519 19 567 28 594 43 c 0
 605 49 611 64 611 78 c 0
 611 149 608 214 602 281 c 1
 605 284 l 1
 623 284 660 286 689 289 c 1
 692 286 l 1
 688 242 687 179 687 124 c 0
 687 87 688 54 691 27 c 1
470 797 m 0
 470 771 449 750 423 750 c 0
 397 750 376 771 376 797 c 0
 376 824 397 844 423 844 c 0
 449 844 470 824 470 797 c 0
EndSplineSet
EndChar

StartChar: Gcommaaccent
Encoding: 290 290 129
Width: 764
GlyphClass: 1
Flags: MW
HStem: -15 20 675 20<322.5 503>
LayerCount: 2
Fore
SplineSet
691 27 m 1
 689 24 l 1
 644 7 543 -15 453 -15 c 0
 191 -15 62 130 62 341 c 0
 62 562 192 695 453 695 c 0
 553 695 644 671 684 649 c 1
 675 623 667 594 662 565 c 1
 650 563 l 1
 621 630 542 664 447 664 c 0
 253 664 151 550 151 341 c 0
 151 147 253 19 462 19 c 0
 519 19 567 28 594 43 c 0
 605 49 611 64 611 78 c 0
 611 149 608 214 602 281 c 1
 605 284 l 1
 623 284 660 286 689 289 c 1
 692 286 l 1
 688 242 687 179 687 124 c 0
 687 87 688 54 691 27 c 1
439 -143 m 0
 439 -113 424 -85 385 -85 c 0
 380 -85 371 -86 366 -87 c 1
 363 -78 l 1
 375 -65 391 -52 401 -44 c 1
 465 -44 484 -92 484 -127 c 0
 484 -187 434 -230 396 -242 c 1
 377 -230 l 1
 377 -226 l 1
 415 -209 439 -180 439 -143 c 0
EndSplineSet
EndChar

StartChar: Hcircumflex
Encoding: 292 292 130
Width: 792
GlyphClass: 1
Flags: MW
HStem: -5 20 665 20<192 192 695 695>
LayerCount: 2
Fore
SplineSet
537 738 m 1
 511 734 l 1
 396 800 l 1
 281 734 l 1
 255 738 l 1
 255 742 l 1
 292 770 348 815 389 852 c 1
 403 852 l 1
 444 815 500 770 537 742 c 1
 537 738 l 1
182 282 m 2
 182 207 185 81 191 3 c 1
 188 0 l 1
 166 0 129 -2 97 -5 c 1
 94 -2 l 1
 103 81 107 235 107 325 c 2
 107 375 l 2
 107 465 104 599 98 677 c 1
 101 680 l 1
 125 680 162 682 192 685 c 1
 195 682 l 1
 186 599 182 526 182 446 c 2
 182 435 l 2
 182 404 187 391 208 389 c 0
 248 386 310 385 391 385 c 0
 462 385 532 386 569 389 c 0
 597 391 610 406 610 442 c 2
 610 453 l 2
 610 543 607 599 601 677 c 1
 604 680 l 1
 626 680 663 682 695 685 c 1
 698 682 l 1
 689 599 685 465 685 375 c 2
 685 325 l 2
 685 235 688 81 694 3 c 1
 691 0 l 1
 667 0 630 -2 600 -5 c 1
 597 -2 l 1
 606 81 610 209 610 283 c 2
 610 295 l 2
 610 335 594 340 568 343 c 0
 531 346 453 348 391 348 c 0
 319 348 271 347 221 343 c 0
 200 340 182 336 182 294 c 2
 182 282 l 2
EndSplineSet
EndChar

StartChar: Hbar
Encoding: 294 294 131
Width: 792
GlyphClass: 1
Flags: MW
HStem: -5 20 665 20<192 192 695 695>
LayerCount: 2
Fore
SplineSet
182 282 m 2
 182 207 185 81 191 3 c 1
 188 0 l 1
 166 0 129 -2 97 -5 c 1
 94 -2 l 1
 103 81 107 235 107 325 c 2
 107 375 l 2
 107 465 104 599 98 677 c 1
 101 680 l 1
 125 680 162 682 192 685 c 1
 195 682 l 1
 188 621 184 565 183 508 c 1
 609 508 l 1
 608 568 605 616 601 677 c 1
 604 680 l 1
 626 680 663 682 695 685 c 1
 698 682 l 1
 689 599 685 465 685 375 c 2
 685 325 l 2
 685 235 688 81 694 3 c 1
 691 0 l 1
 667 0 630 -2 600 -5 c 1
 597 -2 l 1
 606 81 610 209 610 283 c 2
 610 295 l 2
 610 335 594 340 568 343 c 0
 531 346 453 348 391 348 c 0
 319 348 271 347 221 343 c 0
 200 340 182 336 182 294 c 2
 182 282 l 2
610 442 m 2
 610 453 l 1
 610 472 l 1
 182 472 l 1
 182 446 l 1
 182 435 l 2
 182 404 187 391 208 389 c 0
 248 386 310 385 391 385 c 0
 462 385 532 386 569 389 c 0
 597 391 610 406 610 442 c 2
EndSplineSet
EndChar

StartChar: Igrave
Encoding: 204 204 132
Width: 289
GlyphClass: 1
Flags: MW
HStem: -5 20 665 20<194 194>
LayerCount: 2
Fore
SplineSet
103 680 m 1
 127 680 164 682 194 685 c 1
 197 682 l 1
 188 599 184 465 184 375 c 2
 184 325 l 2
 184 234 187 81 193 3 c 1
 190 0 l 1
 168 0 131 -2 99 -5 c 1
 96 -2 l 1
 105 81 109 235 109 325 c 2
 109 375 l 2
 109 465 106 599 100 677 c 1
 103 680 l 1
179 731 m 1
 177 729 l 1
 155 729 l 1
 127 756 74 808 49 833 c 0
 43 839 37 845 37 851 c 0
 37 866 54 870 68 870 c 0
 82 870 88 862 94 851 c 0
 111 826 148 773 179 731 c 1
EndSplineSet
EndChar

StartChar: Iacute
Encoding: 205 205 133
Width: 289
GlyphClass: 1
Flags: MW
HStem: -5 20 665 20<194 194>
LayerCount: 2
Fore
SplineSet
103 680 m 1
 127 680 164 682 194 685 c 1
 197 682 l 1
 188 599 184 465 184 375 c 2
 184 325 l 2
 184 234 187 81 193 3 c 1
 190 0 l 1
 168 0 131 -2 99 -5 c 1
 96 -2 l 1
 105 81 109 235 109 325 c 2
 109 375 l 2
 109 465 106 599 100 677 c 1
 103 680 l 1
125 731 m 1
 156 773 193 826 210 851 c 0
 216 862 222 870 236 870 c 0
 250 870 267 866 267 851 c 0
 267 845 261 839 255 833 c 0
 230 808 177 756 149 729 c 1
 127 729 l 1
 125 731 l 1
EndSplineSet
EndChar

StartChar: Icircumflex
Encoding: 206 206 134
Width: 289
GlyphClass: 1
Flags: MW
HStem: -5 20 665 20<194 194>
LayerCount: 2
Fore
SplineSet
103 680 m 1
 127 680 164 682 194 685 c 1
 197 682 l 1
 188 599 184 465 184 375 c 2
 184 325 l 2
 184 234 187 81 193 3 c 1
 190 0 l 1
 168 0 131 -2 99 -5 c 1
 96 -2 l 1
 105 81 109 235 109 325 c 2
 109 375 l 2
 109 465 106 599 100 677 c 1
 103 680 l 1
287 738 m 1
 261 734 l 1
 146 800 l 1
 31 734 l 1
 5 738 l 1
 5 742 l 1
 42 770 98 815 139 852 c 1
 153 852 l 1
 194 815 250 770 287 742 c 1
 287 738 l 1
EndSplineSet
EndChar

StartChar: Itilde
Encoding: 296 296 135
Width: 289
GlyphClass: 1
Flags: MW
HStem: -5 20 665 20<194 194>
LayerCount: 2
Fore
SplineSet
299 832 m 1
 284 785 258 742 210 742 c 0
 181 742 159 754 128 776 c 0
 103 793 84 802 67 802 c 0
 40 802 22 789 9 747 c 1
 -10 756 l 1
 6 805 28 847 84 847 c 0
 110 847 135 836 166 815 c 0
 188 799 210 786 227 786 c 0
 254 786 267 805 280 840 c 1
 299 832 l 1
103 680 m 1
 127 680 164 682 194 685 c 1
 197 682 l 1
 188 599 184 465 184 375 c 2
 184 325 l 2
 184 234 187 81 193 3 c 1
 190 0 l 1
 168 0 131 -2 99 -5 c 1
 96 -2 l 1
 105 81 109 235 109 325 c 2
 109 375 l 2
 109 465 106 599 100 677 c 1
 103 680 l 1
EndSplineSet
EndChar

StartChar: Idieresis
Encoding: 207 207 136
Width: 289
GlyphClass: 1
Flags: MW
HStem: -5 20 665 20<194 194>
LayerCount: 2
Fore
SplineSet
103 680 m 1
 127 680 164 682 194 685 c 1
 197 682 l 1
 188 599 184 465 184 375 c 2
 184 325 l 2
 184 234 187 81 193 3 c 1
 190 0 l 1
 168 0 131 -2 99 -5 c 1
 96 -2 l 1
 105 81 109 235 109 325 c 2
 109 375 l 2
 109 465 106 599 100 677 c 1
 103 680 l 1
277 799 m 0
 277 776 257 757 234 757 c 0
 210 757 191 775 191 799 c 0
 191 823 210 841 234 841 c 0
 257 841 277 823 277 799 c 0
108 799 m 0
 108 776 89 757 66 757 c 0
 42 757 23 775 23 799 c 0
 23 823 42 841 66 841 c 0
 89 841 108 823 108 799 c 0
EndSplineSet
EndChar

StartChar: Imacron
Encoding: 298 298 137
Width: 289
GlyphClass: 1
Flags: MW
HStem: -5 20 665 20<194 194>
LayerCount: 2
Fore
SplineSet
278 759 m 1
 11 759 l 1
 11 795 l 1
 278 795 l 1
 278 759 l 1
103 680 m 1
 127 680 164 682 194 685 c 1
 197 682 l 1
 188 599 184 465 184 375 c 2
 184 325 l 2
 184 234 187 81 193 3 c 1
 190 0 l 1
 168 0 131 -2 99 -5 c 1
 96 -2 l 1
 105 81 109 235 109 325 c 2
 109 375 l 2
 109 465 106 599 100 677 c 1
 103 680 l 1
EndSplineSet
EndChar

StartChar: Idotaccent
Encoding: 304 304 138
Width: 289
GlyphClass: 1
Flags: MW
HStem: -5 20 665 20<194 194>
LayerCount: 2
Fore
SplineSet
191 797 m 0
 191 771 170 750 144 750 c 0
 118 750 97 771 97 797 c 0
 97 824 118 844 144 844 c 0
 170 844 191 824 191 797 c 0
103 680 m 1
 127 680 164 682 194 685 c 1
 197 682 l 1
 188 599 184 465 184 375 c 2
 184 325 l 2
 184 234 187 81 193 3 c 1
 190 0 l 1
 168 0 131 -2 99 -5 c 1
 96 -2 l 1
 105 81 109 235 109 325 c 2
 109 375 l 2
 109 465 106 599 100 677 c 1
 103 680 l 1
EndSplineSet
EndChar

StartChar: Iogonek
Encoding: 302 302 139
Width: 289
GlyphClass: 1
Flags: MW
HStem: -5 20 665 20<194 194>
LayerCount: 2
Fore
SplineSet
103 680 m 1
 127 680 164 682 194 685 c 1
 197 682 l 1
 188 599 184 465 184 375 c 2
 184 325 l 2
 184 234 187 81 193 3 c 1
 190 0 l 1
 161 0 l 1
 91 -57 66 -90 66 -135 c 0
 66 -175 89 -200 133 -200 c 0
 152 -200 171 -194 191 -182 c 1
 200 -199 l 1
 178 -217 145 -228 113 -228 c 0
 61 -228 13 -205 13 -147 c 0
 13 -91 47 -53 122 -3 c 1
 114 -3 106 -4 99 -5 c 1
 96 -2 l 1
 105 81 109 235 109 325 c 2
 109 375 l 2
 109 465 106 599 100 677 c 1
 103 680 l 1
EndSplineSet
EndChar

StartChar: Jcircumflex
Encoding: 308 308 140
Width: 289
GlyphClass: 1
Flags: MW
HStem: -5 20 665 20<194 194>
LayerCount: 2
Fore
SplineSet
285 738 m 1
 259 734 l 1
 144 800 l 1
 29 734 l 1
 3 738 l 1
 3 742 l 1
 40 770 96 815 137 852 c 1
 151 852 l 1
 192 815 248 770 285 742 c 1
 285 738 l 1
103 680 m 1
 127 680 164 682 194 685 c 1
 197 682 l 1
 188 599 184 465 184 375 c 2
 184 325 l 2
 184 234 187 81 193 3 c 1
 190 0 l 1
 168 0 131 -2 99 -5 c 1
 96 -2 l 1
 105 81 109 235 109 325 c 2
 109 375 l 2
 109 465 106 599 100 677 c 1
 103 680 l 1
EndSplineSet
EndChar

StartChar: Kcommaaccent
Encoding: 310 310 141
Width: 616
GlyphClass: 1
Flags: MW
HStem: -7 20 665 20<192 192>
LayerCount: 2
Fore
SplineSet
323 -143 m 0
 323 -113 308 -85 269 -85 c 0
 264 -85 255 -86 250 -87 c 1
 247 -78 l 1
 259 -65 275 -52 285 -44 c 1
 349 -44 368 -92 368 -127 c 0
 368 -187 318 -230 280 -242 c 1
 261 -230 l 1
 261 -226 l 1
 299 -209 323 -180 323 -143 c 0
518 -7 m 1
 432 99 309 233 226 320 c 0
 211 335 202 341 192 341 c 0
 182 341 180 326 180 296 c 2
 180 284 l 2
 180 205 185 81 191 3 c 1
 188 0 l 1
 166 0 129 -2 97 -5 c 1
 94 -2 l 1
 103 81 107 235 107 325 c 2
 107 375 l 2
 107 465 104 599 98 677 c 1
 101 680 l 1
 125 680 162 682 192 685 c 1
 195 682 l 1
 185 599 180 503 180 431 c 2
 180 420 l 2
 180 391 183 371 196 371 c 0
 205 371 215 377 228 389 c 0
 317 469 430 587 509 680 c 1
 537 680 568 681 589 682 c 1
 592 679 l 1
 499 600 375 483 297 405 c 0
 284 392 280 384 280 377 c 0
 280 372 282 365 298 347 c 0
 384 251 543 88 634 3 c 1
 631 0 l 1
 597 0 554 -1 518 -7 c 1
EndSplineSet
EndChar

StartChar: Lacute
Encoding: 313 313 142
Width: 440
GlyphClass: 1
Flags: MW
HStem: -2 20 665 20<193 193>
LayerCount: 2
Fore
SplineSet
183 325 m 2
 183 227 183 153 185 101 c 0
 187 47 202 35 267 35 c 0
 314 35 368 40 426 51 c 1
 429 48 l 1
 427 36 425 13 425 -2 c 1
 338 0 243 1 177 1 c 0
 147 1 120 0 98 -1 c 1
 95 2 l 1
 104 81 108 235 108 325 c 2
 108 375 l 2
 108 465 105 599 99 677 c 1
 102 680 l 1
 126 680 163 682 193 685 c 1
 196 682 l 1
 187 599 183 465 183 375 c 2
 183 325 l 2
128 731 m 1
 159 773 196 826 213 851 c 0
 219 862 225 870 239 870 c 0
 253 870 270 866 270 851 c 0
 270 845 264 839 258 833 c 0
 233 808 180 756 152 729 c 1
 130 729 l 1
 128 731 l 1
EndSplineSet
EndChar

StartChar: Lcaron
Encoding: 317 317 143
Width: 440
GlyphClass: 1
Flags: MW
HStem: -2 20 665 20<193 193>
LayerCount: 2
Fore
SplineSet
183 325 m 2
 183 227 183 153 185 101 c 0
 187 47 202 35 267 35 c 0
 314 35 368 40 426 51 c 1
 429 48 l 1
 427 36 425 13 425 -2 c 1
 338 0 243 1 177 1 c 0
 147 1 120 0 98 -1 c 1
 95 2 l 1
 104 81 108 235 108 325 c 2
 108 375 l 2
 108 465 105 599 99 677 c 1
 102 680 l 1
 126 680 163 682 193 685 c 1
 196 682 l 1
 187 599 183 465 183 375 c 2
 183 325 l 2
342 584 m 0
 342 614 327 642 288 642 c 0
 283 642 274 641 269 640 c 1
 266 649 l 1
 278 662 294 675 304 683 c 1
 368 683 387 635 387 600 c 0
 387 540 337 497 299 485 c 1
 280 497 l 1
 280 501 l 1
 318 518 342 547 342 584 c 0
EndSplineSet
EndChar

StartChar: Lcommaaccent
Encoding: 315 315 144
Width: 440
GlyphClass: 1
Flags: MW
HStem: -2 20 665 20<193 193>
LayerCount: 2
Fore
SplineSet
183 325 m 2
 183 227 183 153 185 101 c 0
 187 47 202 35 267 35 c 0
 314 35 368 40 426 51 c 1
 429 48 l 1
 427 36 425 13 425 -2 c 1
 338 0 243 1 177 1 c 0
 147 1 120 0 98 -1 c 1
 95 2 l 1
 104 81 108 235 108 325 c 2
 108 375 l 2
 108 465 105 599 99 677 c 1
 102 680 l 1
 126 680 163 682 193 685 c 1
 196 682 l 1
 187 599 183 465 183 375 c 2
 183 325 l 2
263 -143 m 0
 263 -113 248 -85 209 -85 c 0
 204 -85 195 -86 190 -87 c 1
 187 -78 l 1
 199 -65 215 -52 225 -44 c 1
 289 -44 308 -92 308 -127 c 0
 308 -187 258 -230 220 -242 c 1
 201 -230 l 1
 201 -226 l 1
 239 -209 263 -180 263 -143 c 0
EndSplineSet
EndChar

StartChar: Lslash
Encoding: 321 321 145
Width: 440
GlyphClass: 1
Flags: MW
HStem: -2 20 665 20<192 192>
LayerCount: 2
Fore
SplineSet
107 254 m 0
 107 289 101 298 90 298 c 0
 86 298 81 296 73 291 c 0
 54 279 34 265 20 254 c 1
 17 261 6 283 0 290 c 1
 18 299 41 312 62 325 c 0
 93 345 107 362 107 391 c 0
 107 470 104 599 98 677 c 1
 101 680 l 1
 125 680 162 682 192 685 c 1
 195 682 l 1
 186 599 182 521 182 448 c 0
 182 413 188 404 199 404 c 0
 203 404 208 406 216 411 c 0
 255 436 292 461 310 478 c 1
 313 471 327 450 332 443 c 1
 310 429 275 408 227 376 c 0
 196 356 182 340 182 311 c 0
 182 196 182 153 184 101 c 0
 186 47 201 35 266 35 c 0
 313 35 367 40 425 51 c 1
 428 48 l 1
 426 36 424 13 424 -2 c 1
 337 0 242 1 176 1 c 0
 146 1 119 0 97 -1 c 1
 94 2 l 1
 103 81 107 200 107 254 c 0
EndSplineSet
EndChar

StartChar: Ldot
Encoding: 319 319 146
Width: 440
GlyphClass: 1
Flags: MW
HStem: -2 20 665 20<193 193>
LayerCount: 2
Fore
SplineSet
183 325 m 2
 183 227 183 153 185 101 c 0
 187 47 202 35 267 35 c 0
 314 35 368 40 426 51 c 1
 429 48 l 1
 427 36 425 13 425 -2 c 1
 338 0 243 1 177 1 c 0
 147 1 120 0 98 -1 c 1
 95 2 l 1
 104 81 108 235 108 325 c 2
 108 375 l 2
 108 465 105 599 99 677 c 1
 102 680 l 1
 126 680 163 682 193 685 c 1
 196 682 l 1
 187 599 183 465 183 375 c 2
 183 325 l 2
420 432 m 0
 420 406 399 385 373 385 c 0
 347 385 326 406 326 432 c 0
 326 459 347 479 373 479 c 0
 399 479 420 459 420 432 c 0
EndSplineSet
EndChar

StartChar: Nacute
Encoding: 323 323 147
Width: 787
GlyphClass: 1
Flags: MW
HStem: -11 20
LayerCount: 2
Fore
SplineSet
338 731 m 1
 369 773 406 826 423 851 c 0
 429 862 435 870 449 870 c 0
 463 870 480 866 480 851 c 0
 480 845 474 839 468 833 c 0
 443 808 390 756 362 729 c 1
 340 729 l 1
 338 731 l 1
585 206 m 0
 607 187 619 180 626 180 c 0
 638 180 643 204 643 250 c 2
 643 262 l 2
 643 407 633 593 623 677 c 1
 626 680 l 1
 650 680 672 681 693 683 c 1
 696 680 l 1
 688 600 685 418 685 331 c 2
 685 281 l 2
 685 179 686 48 689 -2 c 1
 673 -11 l 1
 588 89 343 346 207 480 c 0
 190 497 171 511 161 511 c 0
 148 511 144 493 144 461 c 2
 144 441 l 2
 144 283 154 88 164 3 c 1
 161 0 l 1
 137 0 115 -1 94 -3 c 1
 91 0 l 1
 99 81 102 263 102 350 c 2
 102 400 l 2
 102 526 100 657 99 697 c 1
 112 702 l 1
 260 529 477 310 585 206 c 0
EndSplineSet
EndChar

StartChar: Ncaron
Encoding: 327 327 148
Width: 787
GlyphClass: 1
Flags: MW
HStem: -11 20
LayerCount: 2
Fore
SplineSet
548 848 m 1
 548 844 l 1
 511 816 455 771 414 734 c 1
 400 734 l 1
 359 771 303 816 266 844 c 1
 266 848 l 1
 292 852 l 1
 407 786 l 1
 522 852 l 1
 548 848 l 1
585 206 m 0
 607 187 619 180 626 180 c 0
 638 180 643 204 643 250 c 2
 643 262 l 2
 643 407 633 593 623 677 c 1
 626 680 l 1
 650 680 672 681 693 683 c 1
 696 680 l 1
 688 600 685 418 685 331 c 2
 685 281 l 2
 685 179 686 48 689 -2 c 1
 673 -11 l 1
 588 89 343 346 207 480 c 0
 190 497 171 511 161 511 c 0
 148 511 144 493 144 461 c 2
 144 441 l 2
 144 283 154 88 164 3 c 1
 161 0 l 1
 137 0 115 -1 94 -3 c 1
 91 0 l 1
 99 81 102 263 102 350 c 2
 102 400 l 2
 102 526 100 657 99 697 c 1
 112 702 l 1
 260 529 477 310 585 206 c 0
EndSplineSet
EndChar

StartChar: Ntilde
Encoding: 209 209 149
Width: 787
GlyphClass: 1
Flags: MW
HStem: -11 20
LayerCount: 2
Fore
SplineSet
585 206 m 0
 607 187 619 180 626 180 c 0
 638 180 643 204 643 250 c 2
 643 262 l 2
 643 407 633 593 623 677 c 1
 626 680 l 1
 650 680 672 681 693 683 c 1
 696 680 l 1
 688 600 685 418 685 331 c 2
 685 281 l 2
 685 179 686 48 689 -2 c 1
 673 -11 l 1
 588 89 343 346 207 480 c 0
 190 497 171 511 161 511 c 0
 148 511 144 493 144 461 c 2
 144 441 l 2
 144 283 154 88 164 3 c 1
 161 0 l 1
 137 0 115 -1 94 -3 c 1
 91 0 l 1
 99 81 102 263 102 350 c 2
 102 400 l 2
 102 526 100 657 99 697 c 1
 112 702 l 1
 260 529 477 310 585 206 c 0
561 832 m 1
 546 785 520 742 472 742 c 0
 443 742 421 754 390 776 c 0
 365 793 346 802 329 802 c 0
 302 802 284 789 271 747 c 1
 252 756 l 1
 268 805 290 847 346 847 c 0
 372 847 397 836 428 815 c 0
 450 799 472 786 489 786 c 0
 516 786 529 805 542 840 c 1
 561 832 l 1
EndSplineSet
EndChar

StartChar: Ncommaaccent
Encoding: 325 325 150
Width: 787
GlyphClass: 1
Flags: MW
HStem: -11 20
LayerCount: 2
Fore
SplineSet
425 -143 m 0
 425 -113 410 -85 371 -85 c 0
 366 -85 357 -86 352 -87 c 1
 349 -78 l 1
 361 -65 377 -52 387 -44 c 1
 451 -44 470 -92 470 -127 c 0
 470 -187 420 -230 382 -242 c 1
 363 -230 l 1
 363 -226 l 1
 401 -209 425 -180 425 -143 c 0
585 206 m 0
 607 187 619 180 626 180 c 0
 638 180 643 204 643 250 c 2
 643 262 l 2
 643 407 633 593 623 677 c 1
 626 680 l 1
 650 680 672 681 693 683 c 1
 696 680 l 1
 688 600 685 418 685 331 c 2
 685 281 l 2
 685 179 686 48 689 -2 c 1
 673 -11 l 1
 588 89 343 346 207 480 c 0
 190 497 171 511 161 511 c 0
 148 511 144 493 144 461 c 2
 144 441 l 2
 144 283 154 88 164 3 c 1
 161 0 l 1
 137 0 115 -1 94 -3 c 1
 91 0 l 1
 99 81 102 263 102 350 c 2
 102 400 l 2
 102 526 100 657 99 697 c 1
 112 702 l 1
 260 529 477 310 585 206 c 0
EndSplineSet
EndChar

StartChar: Ograve
Encoding: 210 210 151
Width: 855
GlyphClass: 1
Flags: MW
HStem: -17 20 677 20<314 543.5>
LayerCount: 2
Fore
SplineSet
793 340 m 0
 793 125 649 -17 426 -17 c 0
 205 -17 62 122 62 340 c 0
 62 558 202 697 426 697 c 0
 661 697 793 560 793 340 c 0
702 340 m 0
 702 553 596 665 426 665 c 0
 260 665 153 560 153 340 c 0
 153 126 263 17 426 17 c 0
 593 17 702 125 702 340 c 0
452 731 m 1
 450 729 l 1
 428 729 l 1
 400 756 347 808 322 833 c 0
 316 839 310 845 310 851 c 0
 310 866 327 870 341 870 c 0
 355 870 361 862 367 851 c 0
 384 826 421 773 452 731 c 1
EndSplineSet
EndChar

StartChar: Oacute
Encoding: 211 211 152
Width: 855
GlyphClass: 1
Flags: MW
HStem: -17 20 677 20<314 543.5>
LayerCount: 2
Fore
SplineSet
793 340 m 0
 793 125 649 -17 426 -17 c 0
 205 -17 62 122 62 340 c 0
 62 558 202 697 426 697 c 0
 661 697 793 560 793 340 c 0
702 340 m 0
 702 553 596 665 426 665 c 0
 260 665 153 560 153 340 c 0
 153 126 263 17 426 17 c 0
 593 17 702 125 702 340 c 0
410 731 m 1
 441 773 478 826 495 851 c 0
 501 862 507 870 521 870 c 0
 535 870 552 866 552 851 c 0
 552 845 546 839 540 833 c 0
 515 808 462 756 434 729 c 1
 412 729 l 1
 410 731 l 1
EndSplineSet
EndChar

StartChar: Ocircumflex
Encoding: 212 212 153
Width: 855
GlyphClass: 1
Flags: MW
HStem: -17 20 677 20<314 543.5>
LayerCount: 2
Fore
SplineSet
793 340 m 0
 793 125 649 -17 426 -17 c 0
 205 -17 62 122 62 340 c 0
 62 558 202 697 426 697 c 0
 661 697 793 560 793 340 c 0
702 340 m 0
 702 553 596 665 426 665 c 0
 260 665 153 560 153 340 c 0
 153 126 263 17 426 17 c 0
 593 17 702 125 702 340 c 0
569 738 m 1
 543 734 l 1
 428 800 l 1
 313 734 l 1
 287 738 l 1
 287 742 l 1
 324 770 380 815 421 852 c 1
 435 852 l 1
 476 815 532 770 569 742 c 1
 569 738 l 1
EndSplineSet
EndChar

StartChar: Otilde
Encoding: 213 213 154
Width: 855
GlyphClass: 1
Flags: MW
HStem: -17 20 677 20<314 543.5>
LayerCount: 2
Fore
SplineSet
793 340 m 0
 793 125 649 -17 426 -17 c 0
 205 -17 62 122 62 340 c 0
 62 558 202 697 426 697 c 0
 661 697 793 560 793 340 c 0
702 340 m 0
 702 553 596 665 426 665 c 0
 260 665 153 560 153 340 c 0
 153 126 263 17 426 17 c 0
 593 17 702 125 702 340 c 0
589 832 m 1
 574 785 548 742 500 742 c 0
 471 742 449 754 418 776 c 0
 393 793 374 802 357 802 c 0
 330 802 312 789 299 747 c 1
 280 756 l 1
 296 805 318 847 374 847 c 0
 400 847 425 836 456 815 c 0
 478 799 500 786 517 786 c 0
 544 786 557 805 570 840 c 1
 589 832 l 1
EndSplineSet
EndChar

StartChar: Odieresis
Encoding: 214 214 155
Width: 855
GlyphClass: 1
Flags: MW
HStem: -17 20 677 20<314 543.5>
LayerCount: 2
Fore
SplineSet
571 799 m 0
 571 776 551 757 528 757 c 0
 504 757 485 775 485 799 c 0
 485 823 504 841 528 841 c 0
 551 841 571 823 571 799 c 0
361 799 m 0
 361 776 342 757 319 757 c 0
 295 757 276 775 276 799 c 0
 276 823 295 841 319 841 c 0
 342 841 361 823 361 799 c 0
793 340 m 0xc0
 793 125 649 -17 426 -17 c 0
 205 -17 62 122 62 340 c 0
 62 558 202 697 426 697 c 0
 661 697 793 560 793 340 c 0xc0
702 340 m 0
 702 553 596 665 426 665 c 0
 260 665 153 560 153 340 c 0
 153 126 263 17 426 17 c 0
 593 17 702 125 702 340 c 0
EndSplineSet
EndChar

StartChar: Omacron
Encoding: 332 332 156
Width: 855
GlyphClass: 1
Flags: MW
HStem: -17 20 677 20<314 543.5>
LayerCount: 2
Fore
SplineSet
793 340 m 0
 793 125 649 -17 426 -17 c 0
 205 -17 62 122 62 340 c 0
 62 558 202 697 426 697 c 0
 661 697 793 560 793 340 c 0
702 340 m 0
 702 553 596 665 426 665 c 0
 260 665 153 560 153 340 c 0
 153 126 263 17 426 17 c 0
 593 17 702 125 702 340 c 0
567 759 m 1
 300 759 l 1
 300 795 l 1
 567 795 l 1
 567 759 l 1
EndSplineSet
EndChar

StartChar: Obreve
Encoding: 334 334 157
Width: 855
GlyphClass: 1
Flags: MW
HStem: -17 20 677 20<314 543.5>
LayerCount: 2
Fore
SplineSet
793 340 m 0
 793 125 649 -17 426 -17 c 0
 205 -17 62 122 62 340 c 0
 62 558 202 697 426 697 c 0
 661 697 793 560 793 340 c 0
702 340 m 0
 702 553 596 665 426 665 c 0
 260 665 153 560 153 340 c 0
 153 126 263 17 426 17 c 0
 593 17 702 125 702 340 c 0
572 862 m 1
 563 797 525 738 436 738 c 0
 347 738 309 795 300 859 c 1
 318 869 l 1
 334 819 361 789 436 789 c 0
 511 789 538 819 553 869 c 1
 572 862 l 1
EndSplineSet
EndChar

StartChar: Ohungarumlaut
Encoding: 336 336 158
Width: 855
GlyphClass: 1
Flags: MW
HStem: -17 20 677 20<314 543.5>
LayerCount: 2
Fore
SplineSet
793 340 m 0
 793 125 649 -17 426 -17 c 0
 205 -17 62 122 62 340 c 0
 62 558 202 697 426 697 c 0
 661 697 793 560 793 340 c 0
702 340 m 0
 702 553 596 665 426 665 c 0
 260 665 153 560 153 340 c 0
 153 126 263 17 426 17 c 0
 593 17 702 125 702 340 c 0
422 731 m 1
 453 773 490 826 507 851 c 0
 513 862 519 870 533 870 c 0
 547 870 564 866 564 851 c 0
 564 845 558 839 552 833 c 0
 527 808 474 756 446 729 c 1
 424 729 l 1
 422 731 l 1
308 731 m 1
 336 772 371 825 388 851 c 0
 395 862 402 870 413 870 c 0
 427 870 444 866 444 851 c 0
 444 845 440 839 434 833 c 0
 410 808 357 753 332 729 c 1
 310 729 l 1
 308 731 l 1
EndSplineSet
EndChar

StartChar: Oslash
Encoding: 216 216 159
Width: 855
GlyphClass: 1
Flags: W
LayerCount: 2
Fore
SplineSet
629 671 m 0
 654 706 667 726 685 756 c 1
 696 746 711 735 724 727 c 1
 703 702 687 682 667 655 c 0
 658 643 660 633 670 625 c 0
 750 563 793 465 793 340 c 0
 793 125 649 -17 426 -17 c 0
 352 -17 287 -1 234 28 c 0
 220 35 210 29 198 13 c 0
 176 -17 161 -40 138 -75 c 1
 127 -66 109 -53 98 -47 c 1
 123 -18 152 18 170 42 c 0
 176 50 180 65 169 74 c 0
 107 132 62 228 62 340 c 0
 62 558 202 697 426 697 c 0
 495 697 548 686 601 665 c 0
 611 660 620 659 629 671 c 0
579 601 m 0
 587 612 583 624 579 627 c 0
 540 655 481 667 426 667 c 0
 260 667 150 560 150 340 c 0
 150 248 169 166 206 118 c 0
 214 108 223 109 232 122 c 0
 305 220 485 468 579 601 c 0
603 569 m 0
 503 434 333 199 259 94 c 0
 252 83 248 71 260 62 c 0
 303 30 360 15 426 15 c 0
 593 15 706 119 706 340 c 0
 706 448 683 532 634 581 c 0
 627 588 615 586 603 569 c 0
EndSplineSet
EndChar

StartChar: OE
Encoding: 338 338 160
Width: 1058
GlyphClass: 1
Flags: MW
HStem: -17 20 677 20<314 485.5>
LayerCount: 2
Fore
SplineSet
694 -1 m 1
 696 -1 l 1
 693 2 l 1
 694 18 697 52 697 74 c 0
 697 86 694 97 688 97 c 0
 684 97 679 92 677 89 c 0
 626 28 544 -17 426 -17 c 0
 205 -17 62 122 62 340 c 0
 62 558 202 697 426 697 c 0
 545 697 621 657 672 596 c 0
 678 590 684 587 687 587 c 0
 695 587 699 600 699 620 c 0
 699 642 697 664 695 678 c 1
 699 682 l 1
 728 680 757 679 786 679 c 0
 851 679 941 680 1000 682 c 1
 1002 679 l 1
 1000 666 998 645 998 631 c 1
 961 639 895 645 840 645 c 0
 788 645 778 635 776 600 c 0
 773 552 772 491 772 458 c 2
 772 439 l 2
 772 387 781 385 818 385 c 0
 877 385 950 389 981 394 c 1
 984 391 l 1
 982 379 981 356 981 343 c 1
 946 347 877 351 818 351 c 0
 776 351 772 347 772 290 c 2
 772 273 l 2
 772 201 773 155 777 91 c 0
 780 48 793 35 851 35 c 0
 900 35 951 40 1002 51 c 1
 1005 48 l 1
 1003 36 1001 13 1001 -2 c 1
 930 0 835 1 769 1 c 0
 739 1 718 0 694 -1 c 1
702 340 m 0
 702 553 596 665 426 665 c 0
 260 665 153 560 153 340 c 0
 153 126 263 17 426 17 c 0
 593 17 702 125 702 340 c 0
EndSplineSet
Ligature2: "Podtablica 'dpng' Diphthongs (Obsolete) w +AUIA-aci+AUQA-skie w tablicy 14" O E
EndChar

StartChar: Racute
Encoding: 340 340 161
Width: 573
GlyphClass: 1
Flags: MW
HStem: -7 20 663 20<271 341.5>
LayerCount: 2
Fore
SplineSet
187 607 m 0
 183 555 181 465 181 375 c 2
 181 325 l 2
 181 235 187 81 193 3 c 1
 190 0 l 1
 166 0 129 -2 97 -5 c 1
 94 -2 l 1
 103 81 107 235 107 325 c 2
 107 375 l 2
 107 465 106 598 101 678 c 1
 105 682 l 1
 131 681 152 680 177 680 c 0
 219 680 257 683 285 683 c 0
 398 683 487 664 487 545 c 0
 487 450 423 404 331 373 c 0
 320 369 312 363 312 354 c 0
 312 347 316 342 326 330 c 0
 412 232 547 86 634 3 c 1
 631 0 l 1
 597 0 554 -1 518 -7 c 1
 451 79 293 266 206 366 c 1
 211 374 l 1
 319 382 399 418 399 536 c 0
 399 632 336 653 260 653 c 0
 205 653 189 643 187 607 c 0
268 731 m 1
 299 773 336 826 353 851 c 0
 359 862 365 870 379 870 c 0
 393 870 410 866 410 851 c 0
 410 845 404 839 398 833 c 0
 373 808 320 756 292 729 c 1
 270 729 l 1
 268 731 l 1
EndSplineSet
EndChar

StartChar: Rcaron
Encoding: 344 344 162
Width: 573
GlyphClass: 1
Flags: MW
HStem: -7 20 663 20<271 341.5>
LayerCount: 2
Fore
SplineSet
187 607 m 0
 183 555 181 465 181 375 c 2
 181 325 l 2
 181 235 187 81 193 3 c 1
 190 0 l 1
 166 0 129 -2 97 -5 c 1
 94 -2 l 1
 103 81 107 235 107 325 c 2
 107 375 l 2
 107 465 106 598 101 678 c 1
 105 682 l 1
 131 681 152 680 177 680 c 0
 219 680 257 683 285 683 c 0
 398 683 487 664 487 545 c 0
 487 450 423 404 331 373 c 0
 320 369 312 363 312 354 c 0
 312 347 316 342 326 330 c 0
 412 232 547 86 634 3 c 1
 631 0 l 1
 597 0 554 -1 518 -7 c 1
 451 79 293 266 206 366 c 1
 211 374 l 1
 319 382 399 418 399 536 c 0
 399 632 336 653 260 653 c 0
 205 653 189 643 187 607 c 0
409 848 m 1
 409 844 l 1
 372 816 316 771 275 734 c 1
 261 734 l 1
 220 771 164 816 127 844 c 1
 127 848 l 1
 153 852 l 1
 268 786 l 1
 383 852 l 1
 409 848 l 1
EndSplineSet
EndChar

StartChar: Rcommaaccent
Encoding: 342 342 163
Width: 573
GlyphClass: 1
Flags: MW
HStem: -7 20 663 20<271 341.5>
LayerCount: 2
Fore
SplineSet
187 607 m 0
 183 555 181 465 181 375 c 2
 181 325 l 2
 181 235 187 81 193 3 c 1
 190 0 l 1
 166 0 129 -2 97 -5 c 1
 94 -2 l 1
 103 81 107 235 107 325 c 2
 107 375 l 2
 107 465 106 598 101 678 c 1
 105 682 l 1
 131 681 152 680 177 680 c 0
 219 680 257 683 285 683 c 0
 398 683 487 664 487 545 c 0
 487 450 423 404 331 373 c 0
 320 369 312 363 312 354 c 0
 312 347 316 342 326 330 c 0
 412 232 547 86 634 3 c 1
 631 0 l 1
 597 0 554 -1 518 -7 c 1
 451 79 293 266 206 366 c 1
 211 374 l 1
 319 382 399 418 399 536 c 0
 399 632 336 653 260 653 c 0
 205 653 189 643 187 607 c 0
300 -143 m 0
 300 -113 285 -85 246 -85 c 0
 241 -85 232 -86 227 -87 c 1
 224 -78 l 1
 236 -65 252 -52 262 -44 c 1
 326 -44 345 -92 345 -127 c 0
 345 -187 295 -230 257 -242 c 1
 238 -230 l 1
 238 -226 l 1
 276 -209 300 -180 300 -143 c 0
EndSplineSet
EndChar

StartChar: Sacute
Encoding: 346 346 164
Width: 492
GlyphClass: 1
Flags: MW
HStem: -14 20 675 20<214 305>
LayerCount: 2
Fore
SplineSet
417 672 m 1
 419 668 l 1
 412 651 403 618 399 590 c 1
 389 589 l 1
 369 640 315 663 267 663 c 0
 190 663 143 608 143 535 c 0
 143 456 191 424 253 399 c 0
 366 352 438 314 438 195 c 0
 438 73 331 -14 193 -14 c 0
 141 -14 68 -2 38 14 c 1
 40 37 48 82 55 109 c 1
 65 111 l 1
 88 55 138 20 208 20 c 0
 279 20 360 63 360 168 c 0
 360 250 299 286 224 320 c 0
 148 354 67 388 67 508 c 0
 67 619 152 695 276 695 c 0
 334 695 386 685 417 672 c 1
262 731 m 1
 293 773 330 826 347 851 c 0
 353 862 359 870 373 870 c 0
 387 870 404 866 404 851 c 0
 404 845 398 839 392 833 c 0
 367 808 314 756 286 729 c 1
 264 729 l 1
 262 731 l 1
EndSplineSet
EndChar

StartChar: Scircumflex
Encoding: 348 348 165
Width: 492
GlyphClass: 1
Flags: MW
HStem: -14 20 675 20<214 305>
LayerCount: 2
Fore
SplineSet
417 672 m 1
 419 668 l 1
 412 651 403 618 399 590 c 1
 389 589 l 1
 369 640 315 663 267 663 c 0
 190 663 143 608 143 535 c 0
 143 456 191 424 253 399 c 0
 366 352 438 314 438 195 c 0
 438 73 331 -14 193 -14 c 0
 141 -14 68 -2 38 14 c 1
 40 37 48 82 55 109 c 1
 65 111 l 1
 88 55 138 20 208 20 c 0
 279 20 360 63 360 168 c 0
 360 250 299 286 224 320 c 0
 148 354 67 388 67 508 c 0
 67 619 152 695 276 695 c 0
 334 695 386 685 417 672 c 1
413 848 m 1
 413 844 l 1
 376 816 320 771 279 734 c 1
 265 734 l 1
 224 771 168 816 131 844 c 1
 131 848 l 1
 157 852 l 1
 272 786 l 1
 387 852 l 1
 413 848 l 1
EndSplineSet
EndChar

StartChar: Scaron
Encoding: 352 352 166
Width: 492
GlyphClass: 1
Flags: MW
HStem: -14 20 675 20<214 305>
LayerCount: 2
Fore
SplineSet
417 672 m 1
 419 668 l 1
 412 651 403 618 399 590 c 1
 389 589 l 1
 369 640 315 663 267 663 c 0
 190 663 143 608 143 535 c 0
 143 456 191 424 253 399 c 0
 366 352 438 314 438 195 c 0
 438 73 331 -14 193 -14 c 0
 141 -14 68 -2 38 14 c 1
 40 37 48 82 55 109 c 1
 65 111 l 1
 88 55 138 20 208 20 c 0
 279 20 360 63 360 168 c 0
 360 250 299 286 224 320 c 0
 148 354 67 388 67 508 c 0
 67 619 152 695 276 695 c 0
 334 695 386 685 417 672 c 1
413 848 m 1
 413 844 l 1
 376 816 320 771 279 734 c 1
 265 734 l 1
 224 771 168 816 131 844 c 1
 131 848 l 1
 157 852 l 1
 272 786 l 1
 387 852 l 1
 413 848 l 1
EndSplineSet
EndChar

StartChar: Scedilla
Encoding: 350 350 167
Width: 492
GlyphClass: 1
Flags: MW
HStem: -14 20 675 20<214 305>
LayerCount: 2
Fore
SplineSet
417 672 m 1
 419 668 l 1
 412 651 403 618 399 590 c 1
 389 589 l 1
 369 640 315 663 267 663 c 0
 190 663 143 608 143 535 c 0
 143 456 191 424 253 399 c 0
 366 352 438 314 438 195 c 0
 438 84 349 2 230 -12 c 1
 210 -72 l 1
 225 -70 242 -69 250 -69 c 0
 288 -69 340 -87 340 -140 c 0
 340 -203 286 -228 224 -228 c 0
 201 -228 166 -223 142 -217 c 1
 147 -193 l 1
 163 -198 194 -202 215 -202 c 0
 251 -202 288 -192 288 -145 c 0
 288 -109 259 -97 231 -97 c 0
 212 -97 191 -100 172 -105 c 1
 167 -92 l 1
 180 -67 191 -46 203 -14 c 1
 193 -14 l 2
 141 -14 68 -2 38 14 c 1
 40 37 48 82 55 109 c 1
 65 111 l 1
 88 55 138 20 208 20 c 0
 279 20 360 63 360 168 c 0
 360 250 299 286 224 320 c 0
 148 354 67 388 67 508 c 0
 67 619 152 695 276 695 c 0
 334 695 386 685 417 672 c 1
EndSplineSet
Substitution2: "Podtablica 'locl' Formy lokalne (np. narodowe) w +AUIA-aci+AUQA-skie w tablicy 2" Scommaaccent
EndChar

StartChar: Scommaaccent
Encoding: 536 536 168
Width: 492
GlyphClass: 1
Flags: MW
HStem: -14 20 675 20<214 305>
LayerCount: 2
Fore
SplineSet
417 672 m 1
 419 668 l 1
 412 651 403 618 399 590 c 1
 389 589 l 1
 369 640 315 663 267 663 c 0
 190 663 143 608 143 535 c 0
 143 456 191 424 253 399 c 0
 366 352 438 314 438 195 c 0
 438 73 331 -14 193 -14 c 0
 141 -14 68 -2 38 14 c 1
 40 37 48 82 55 109 c 1
 65 111 l 1
 88 55 138 20 208 20 c 0
 279 20 360 63 360 168 c 0
 360 250 299 286 224 320 c 0
 148 354 67 388 67 508 c 0
 67 619 152 695 276 695 c 0
 334 695 386 685 417 672 c 1
226 -143 m 0
 226 -113 211 -85 172 -85 c 0
 167 -85 158 -86 153 -87 c 1
 150 -78 l 1
 162 -65 178 -52 188 -44 c 1
 252 -44 271 -92 271 -127 c 0
 271 -187 221 -230 183 -242 c 1
 164 -230 l 1
 164 -226 l 1
 202 -209 226 -180 226 -143 c 0
EndSplineSet
EndChar

StartChar: Tcaron
Encoding: 356 356 169
Width: 534
GlyphClass: 1
Flags: MW
HStem: -5 20 664 20<553 553>
LayerCount: 2
Fore
SplineSet
408 848 m 1
 408 844 l 1
 371 816 315 771 274 734 c 1
 260 734 l 1
 219 771 163 816 126 844 c 1
 126 848 l 1
 152 852 l 1
 267 786 l 1
 382 852 l 1
 408 848 l 1
553 684 m 1
 558 681 l 1
 556 670 553 647 553 635 c 1
 499 642 433 643 385 643 c 0
 324 643 312 632 308 615 c 0
 303 594 302 556 302 532 c 2
 302 400 l 2
 302 309 305 81 311 3 c 1
 308 0 l 1
 284 0 247 -2 215 -5 c 1
 212 -2 l 1
 221 81 225 310 225 400 c 2
 225 532 l 2
 225 555 225 590 222 612 c 0
 219 629 204 643 144 643 c 0
 99 643 32 640 -20 634 c 1
 -24 637 l 1
 -21 648 -17 671 -16 684 c 1
 68 678 180 677 264 677 c 0
 350 677 464 678 553 684 c 1
EndSplineSet
EndChar

StartChar: Tcommaaccent
Encoding: 354 354 170
Width: 534
GlyphClass: 1
Flags: MW
HStem: -5 20 664 20<553 553>
LayerCount: 2
Fore
SplineSet
553 684 m 1
 558 681 l 1
 556 670 553 647 553 635 c 1
 499 642 433 643 385 643 c 0
 324 643 312 632 308 615 c 0
 303 594 302 556 302 532 c 2
 302 400 l 2
 302 309 305 81 311 3 c 1
 308 0 l 1
 284 0 247 -2 215 -5 c 1
 212 -2 l 1
 221 81 225 310 225 400 c 2
 225 532 l 2
 225 555 225 590 222 612 c 0
 219 629 204 643 144 643 c 0
 99 643 32 640 -20 634 c 1
 -24 637 l 1
 -21 648 -17 671 -16 684 c 1
 68 678 180 677 264 677 c 0
 350 677 464 678 553 684 c 1
268 -143 m 0
 268 -113 253 -85 214 -85 c 0
 209 -85 200 -86 195 -87 c 1
 192 -78 l 1
 204 -65 220 -52 230 -44 c 1
 294 -44 313 -92 313 -127 c 0
 313 -187 263 -230 225 -242 c 1
 206 -230 l 1
 206 -226 l 1
 244 -209 268 -180 268 -143 c 0
EndSplineSet
EndChar

StartChar: uni021A
Encoding: 538 538 171
Width: 534
GlyphClass: 1
Flags: MW
HStem: -5 20 664 20<553 553>
LayerCount: 2
Fore
SplineSet
553 684 m 1
 558 681 l 1
 556 670 553 647 553 635 c 1
 499 642 433 643 385 643 c 0
 324 643 312 632 308 615 c 0
 303 594 302 556 302 532 c 2
 302 400 l 2
 302 309 305 81 311 3 c 1
 308 0 l 1
 284 0 247 -2 215 -5 c 1
 212 -2 l 1
 221 81 225 310 225 400 c 2
 225 532 l 2
 225 555 225 590 222 612 c 0
 219 629 204 643 144 643 c 0
 99 643 32 640 -20 634 c 1
 -24 637 l 1
 -21 648 -17 671 -16 684 c 1
 68 678 180 677 264 677 c 0
 350 677 464 678 553 684 c 1
268 -143 m 0
 268 -113 253 -85 214 -85 c 0
 209 -85 200 -86 195 -87 c 1
 192 -78 l 1
 204 -65 220 -52 230 -44 c 1
 294 -44 313 -92 313 -127 c 0
 313 -187 263 -230 225 -242 c 1
 206 -230 l 1
 206 -226 l 1
 244 -209 268 -180 268 -143 c 0
EndSplineSet
EndChar

StartChar: Tbar
Encoding: 358 358 172
Width: 534
GlyphClass: 1
Flags: MW
HStem: -5 20 664 20<553 553>
LayerCount: 2
Fore
SplineSet
553 684 m 1
 558 681 l 1
 556 670 553 647 553 635 c 1
 499 642 433 643 385 643 c 0
 324 643 312 632 308 615 c 0
 303 594 302 556 302 532 c 2
 302 515 l 1
 481 515 l 1
 481 479 l 1
 302 479 l 1
 302 400 l 2
 302 309 305 81 311 3 c 1
 308 0 l 1
 284 0 247 -2 215 -5 c 1
 212 -2 l 1
 221 81 225 310 225 400 c 2
 225 479 l 1
 41 479 l 1
 41 515 l 1
 225 515 l 1
 225 532 l 2
 225 555 225 590 222 612 c 0
 219 629 204 643 144 643 c 0
 99 643 32 640 -20 634 c 1
 -24 637 l 1
 -21 648 -17 671 -16 684 c 1
 68 678 180 677 264 677 c 0
 350 677 464 678 553 684 c 1
EndSplineSet
EndChar

StartChar: Thorn
Encoding: 222 222 173
Width: 536
GlyphClass: 1
Flags: MW
HStem: -5 20 665 20<192 192>
LayerCount: 2
Fore
SplineSet
184 579 m 0
 184 557 188 533 213 533 c 0
 239 533 277 536 300 536 c 0
 377 536 495 513 495 364 c 0
 495 199 341 174 226 174 c 1
 223 178 219 185 215 195 c 1
 219 199 l 1
 318 203 408 229 408 363 c 0
 408 486 339 506 260 506 c 0
 205 506 185 487 184 442 c 2
 184 325 l 2
 184 235 187 81 193 3 c 1
 190 0 l 1
 166 0 129 -2 97 -5 c 1
 94 -2 l 1
 103 81 107 235 107 325 c 2
 107 375 l 2
 107 465 106 596 101 676 c 1
 104 680 l 1
 128 680 162 682 192 685 c 1
 195 682 l 1
 190 666 184 617 184 579 c 0
EndSplineSet
EndChar

StartChar: Ugrave
Encoding: 217 217 174
Width: 781
GlyphClass: 1
Flags: MW
HStem: -17 20 664 20<180 180 695 695>
LayerCount: 2
Fore
SplineSet
631 676 m 1
 634 680 l 1
 655 680 679 681 695 684 c 1
 699 680 l 1
 695 605 693 438 693 303 c 0
 693 243 685 190 670 149 c 0
 632 49 542 -17 386 -17 c 0
 175 -17 86 62 86 265 c 0
 86 327 89 394 89 444 c 0
 89 510 88 598 85 676 c 1
 88 680 l 1
 114 680 150 680 180 684 c 1
 184 680 l 1
 171 600 164 428 164 327 c 0
 164 146 193 21 406 21 c 0
 537 21 604 87 630 179 c 0
 641 219 644 262 644 321 c 0
 644 425 640 596 631 676 c 1
445 731 m 1
 443 729 l 1
 421 729 l 1
 393 756 340 808 315 833 c 0
 309 839 303 845 303 851 c 0
 303 866 320 870 334 870 c 0
 348 870 354 862 360 851 c 0
 377 826 414 773 445 731 c 1
EndSplineSet
EndChar

StartChar: Uacute
Encoding: 218 218 175
Width: 781
GlyphClass: 1
Flags: MW
HStem: -17 20 664 20<180 180 695 695>
LayerCount: 2
Fore
SplineSet
631 676 m 1
 634 680 l 1
 655 680 679 681 695 684 c 1
 699 680 l 1
 695 605 693 438 693 303 c 0
 693 243 685 190 670 149 c 0
 632 49 542 -17 386 -17 c 0
 175 -17 86 62 86 265 c 0
 86 327 89 394 89 444 c 0
 89 510 88 598 85 676 c 1
 88 680 l 1
 114 680 150 680 180 684 c 1
 184 680 l 1
 171 600 164 428 164 327 c 0
 164 146 193 21 406 21 c 0
 537 21 604 87 630 179 c 0
 641 219 644 262 644 321 c 0
 644 425 640 596 631 676 c 1
377 731 m 1
 408 773 445 826 462 851 c 0
 468 862 474 870 488 870 c 0
 502 870 519 866 519 851 c 0
 519 845 513 839 507 833 c 0
 482 808 429 756 401 729 c 1
 379 729 l 1
 377 731 l 1
EndSplineSet
EndChar

StartChar: Ucircumflex
Encoding: 219 219 176
Width: 781
GlyphClass: 1
Flags: MW
HStem: -17 20 664 20<180 180 695 695>
LayerCount: 2
Fore
SplineSet
631 676 m 1
 634 680 l 1
 655 680 679 681 695 684 c 1
 699 680 l 1
 695 605 693 438 693 303 c 0
 693 243 685 190 670 149 c 0
 632 49 542 -17 386 -17 c 0
 175 -17 86 62 86 265 c 0
 86 327 89 394 89 444 c 0
 89 510 88 598 85 676 c 1
 88 680 l 1
 114 680 150 680 180 684 c 1
 184 680 l 1
 171 600 164 428 164 327 c 0
 164 146 193 21 406 21 c 0
 537 21 604 87 630 179 c 0
 641 219 644 262 644 321 c 0
 644 425 640 596 631 676 c 1
549 738 m 1
 523 734 l 1
 408 800 l 1
 293 734 l 1
 267 738 l 1
 267 742 l 1
 304 770 360 815 401 852 c 1
 415 852 l 1
 456 815 512 770 549 742 c 1
 549 738 l 1
EndSplineSet
EndChar

StartChar: Utilde
Encoding: 360 360 177
Width: 781
GlyphClass: 1
Flags: MW
HStem: -17 20 664 20<180 180 695 695>
LayerCount: 2
Fore
SplineSet
631 676 m 1
 634 680 l 1
 655 680 679 681 695 684 c 1
 699 680 l 1
 695 605 693 438 693 303 c 0
 693 243 685 190 670 149 c 0
 632 49 542 -17 386 -17 c 0
 175 -17 86 62 86 265 c 0
 86 327 89 394 89 444 c 0
 89 510 88 598 85 676 c 1
 88 680 l 1
 114 680 150 680 180 684 c 1
 184 680 l 1
 171 600 164 428 164 327 c 0
 164 146 193 21 406 21 c 0
 537 21 604 87 630 179 c 0
 641 219 644 262 644 321 c 0
 644 425 640 596 631 676 c 1
555 832 m 1
 540 785 514 742 466 742 c 0
 437 742 415 754 384 776 c 0
 359 793 340 802 323 802 c 0
 296 802 278 789 265 747 c 1
 246 756 l 1
 262 805 284 847 340 847 c 0
 366 847 391 836 422 815 c 0
 444 799 466 786 483 786 c 0
 510 786 523 805 536 840 c 1
 555 832 l 1
EndSplineSet
EndChar

StartChar: Udieresis
Encoding: 220 220 178
Width: 781
GlyphClass: 1
Flags: MW
HStem: -17 20 664 20<180 180 695 695>
LayerCount: 2
Fore
SplineSet
631 676 m 1
 634 680 l 1
 655 680 679 681 695 684 c 1
 699 680 l 1
 695 605 693 438 693 303 c 0
 693 243 685 190 670 149 c 0
 632 49 542 -17 386 -17 c 0
 175 -17 86 62 86 265 c 0
 86 327 89 394 89 444 c 0
 89 510 88 598 85 676 c 1
 88 680 l 1
 114 680 150 680 180 684 c 1
 184 680 l 1
 171 600 164 428 164 327 c 0
 164 146 193 21 406 21 c 0
 537 21 604 87 630 179 c 0
 641 219 644 262 644 321 c 0
 644 425 640 596 631 676 c 1
534 799 m 0
 534 776 514 757 491 757 c 0
 467 757 448 775 448 799 c 0
 448 823 467 841 491 841 c 0
 514 841 534 823 534 799 c 0
365 799 m 0
 365 776 346 757 323 757 c 0
 299 757 280 775 280 799 c 0
 280 823 299 841 323 841 c 0
 346 841 365 823 365 799 c 0
EndSplineSet
EndChar

StartChar: Umacron
Encoding: 362 362 179
Width: 781
GlyphClass: 1
Flags: MW
HStem: -17 20 664 20<180 180 695 695>
LayerCount: 2
Fore
SplineSet
631 676 m 1
 634 680 l 1
 655 680 679 681 695 684 c 1
 699 680 l 1
 695 605 693 438 693 303 c 0
 693 243 685 190 670 149 c 0
 632 49 542 -17 386 -17 c 0
 175 -17 86 62 86 265 c 0
 86 327 89 394 89 444 c 0
 89 510 88 598 85 676 c 1
 88 680 l 1
 114 680 150 680 180 684 c 1
 184 680 l 1
 171 600 164 428 164 327 c 0
 164 146 193 21 406 21 c 0
 537 21 604 87 630 179 c 0
 641 219 644 262 644 321 c 0
 644 425 640 596 631 676 c 1
524 759 m 1
 257 759 l 1
 257 795 l 1
 524 795 l 1
 524 759 l 1
EndSplineSet
EndChar

StartChar: Ubreve
Encoding: 364 364 180
Width: 781
GlyphClass: 1
Flags: MW
HStem: -17 20 664 20<180 180 695 695>
LayerCount: 2
Fore
SplineSet
631 676 m 1
 634 680 l 1
 655 680 679 681 695 684 c 1
 699 680 l 1
 695 605 693 438 693 303 c 0
 693 243 685 190 670 149 c 0
 632 49 542 -17 386 -17 c 0
 175 -17 86 62 86 265 c 0
 86 327 89 394 89 444 c 0
 89 510 88 598 85 676 c 1
 88 680 l 1
 114 680 150 680 180 684 c 1
 184 680 l 1
 171 600 164 428 164 327 c 0
 164 146 193 21 406 21 c 0
 537 21 604 87 630 179 c 0
 641 219 644 262 644 321 c 0
 644 425 640 596 631 676 c 1
527 862 m 1
 518 797 480 738 391 738 c 0
 302 738 264 795 255 859 c 1
 273 869 l 1
 289 819 316 789 391 789 c 0
 466 789 493 819 508 869 c 1
 527 862 l 1
EndSplineSet
EndChar

StartChar: Uring
Encoding: 366 366 181
Width: 781
GlyphClass: 1
Flags: MW
HStem: -17 20 664 20<180 180 695 695>
LayerCount: 2
Fore
SplineSet
631 676 m 1
 634 680 l 1
 655 680 679 681 695 684 c 1
 699 680 l 1
 695 605 693 438 693 303 c 0
 693 243 685 190 670 149 c 0
 632 49 542 -17 386 -17 c 0
 175 -17 86 62 86 265 c 0
 86 327 89 394 89 444 c 0
 89 510 88 598 85 676 c 1
 88 680 l 1
 114 680 150 680 180 684 c 1
 184 680 l 1
 171 600 164 428 164 327 c 0
 164 146 193 21 406 21 c 0
 537 21 604 87 630 179 c 0
 641 219 644 262 644 321 c 0
 644 425 640 596 631 676 c 1
453 796 m 0
 453 833 433 863 395 863 c 0
 357 863 337 833 337 796 c 0
 337 756 357 728 395 728 c 0
 433 728 453 755 453 796 c 0
488 794 m 0
 488 737 444 703 395 703 c 0
 345 703 302 735 302 794 c 0
 302 851 346 885 395 885 c 0
 445 885 488 853 488 794 c 0
EndSplineSet
EndChar

StartChar: Uhungarumlaut
Encoding: 368 368 182
Width: 781
GlyphClass: 1
Flags: MW
HStem: -17 20 664 20<180 180 695 695>
LayerCount: 2
Fore
SplineSet
631 676 m 1
 634 680 l 1
 655 680 679 681 695 684 c 1
 699 680 l 1
 695 605 693 438 693 303 c 0
 693 243 685 190 670 149 c 0
 632 49 542 -17 386 -17 c 0
 175 -17 86 62 86 265 c 0
 86 327 89 394 89 444 c 0
 89 510 88 598 85 676 c 1
 88 680 l 1
 114 680 150 680 180 684 c 1
 184 680 l 1
 171 600 164 428 164 327 c 0
 164 146 193 21 406 21 c 0
 537 21 604 87 630 179 c 0
 641 219 644 262 644 321 c 0
 644 425 640 596 631 676 c 1
450 731 m 1
 481 773 518 826 535 851 c 0
 541 862 547 870 561 870 c 0
 575 870 592 866 592 851 c 0
 592 845 586 839 580 833 c 0
 555 808 502 756 474 729 c 1
 452 729 l 1
 450 731 l 1
336 731 m 1
 364 772 399 825 416 851 c 0
 423 862 430 870 441 870 c 0
 455 870 472 866 472 851 c 0
 472 845 468 839 462 833 c 0
 438 808 385 753 360 729 c 1
 338 729 l 1
 336 731 l 1
EndSplineSet
EndChar

StartChar: Uogonek
Encoding: 370 370 183
Width: 781
GlyphClass: 1
Flags: MW
HStem: -17 20 664 20<180 180 695 695>
LayerCount: 2
Fore
SplineSet
483 -199 m 1
 461 -217 428 -228 396 -228 c 0
 344 -228 296 -205 296 -147 c 0
 296 -96 324 -60 385 -17 c 1
 174 -16 86 62 86 265 c 0
 86 327 89 394 89 444 c 0
 89 510 88 598 85 676 c 1
 88 680 l 1
 114 680 150 680 180 684 c 1
 184 680 l 1
 171 600 164 428 164 327 c 0
 164 146 193 21 406 21 c 0
 537 21 604 87 630 179 c 0
 641 219 644 262 644 321 c 0
 644 425 640 596 631 676 c 1
 634 680 l 1
 655 680 679 681 695 684 c 1
 699 680 l 1
 695 605 693 438 693 303 c 0
 693 243 685 190 670 149 c 0
 635 58 558 -5 426 -15 c 1
 369 -63 349 -94 349 -135 c 0
 349 -175 372 -200 416 -200 c 0
 435 -200 454 -194 474 -182 c 1
 483 -199 l 1
EndSplineSet
EndChar

StartChar: Wcircumflex
Encoding: 372 372 184
Width: 1055
GlyphClass: 1
Flags: MW
HStem: -15 20 666 20
LayerCount: 2
Fore
SplineSet
767 -11 m 1
 759 -14 743 -16 738 -14 c 1
 695 119 608 365 550 519 c 0
 537 548 523 543 510 516 c 0
 453 383 352 140 294 -11 c 1
 282 -14 272 -17 263 -14 c 1
 214 139 96 470 15 677 c 1
 18 680 l 1
 48 680 89 682 116 686 c 1
 152 544 237 288 284 167 c 0
 291 149 299 141 305 141 c 0
 311 141 317 150 322 160 c 0
 380 292 487 559 524 679 c 1
 539 679 555 680 578 684 c 1
 638 495 706 297 755 170 c 0
 761 154 770 145 779 145 c 0
 787 145 795 156 802 171 c 0
 856 288 955 553 987 680 c 1
 1002 680 1040 681 1062 685 c 1
 1065 682 l 1
 1002 547 843 177 767 -11 c 1
662 738 m 1
 636 734 l 1
 521 800 l 1
 406 734 l 1
 380 738 l 1
 380 742 l 1
 417 770 473 815 514 852 c 1
 528 852 l 1
 569 815 625 770 662 742 c 1
 662 738 l 1
EndSplineSet
EndChar

StartChar: Yacute
Encoding: 221 221 185
Width: 574
GlyphClass: 1
Flags: MW
HStem: -5 20 664 20
LayerCount: 2
Fore
SplineSet
257 263 m 2
 257 277 l 2
 257 288 255 305 247 318 c 0
 178 431 88 575 20 676 c 1
 23 680 l 1
 40 680 92 682 124 684 c 1
 164 590 236 465 286 383 c 0
 293 372 298 365 308 365 c 0
 317 365 322 372 328 381 c 0
 389 482 440 575 491 680 c 1
 519 680 552 682 566 683 c 1
 568 680 l 1
 487 567 400 432 342 334 c 0
 333 319 332 305 332 293 c 2
 332 263 l 2
 332 172 335 81 341 3 c 1
 338 0 l 1
 314 0 277 -2 245 -5 c 1
 242 -2 l 1
 251 81 257 167 257 263 c 2
279 731 m 1
 310 773 347 826 364 851 c 0
 370 862 376 870 390 870 c 0
 404 870 421 866 421 851 c 0
 421 845 415 839 409 833 c 0
 384 808 331 756 303 729 c 1
 281 729 l 1
 279 731 l 1
EndSplineSet
EndChar

StartChar: Ycircumflex
Encoding: 374 374 186
Width: 574
GlyphClass: 1
Flags: MW
HStem: -5 20 664 20
LayerCount: 2
Fore
SplineSet
257 263 m 2
 257 277 l 2
 257 288 255 305 247 318 c 0
 178 431 88 575 20 676 c 1
 23 680 l 1
 40 680 92 682 124 684 c 1
 164 590 236 465 286 383 c 0
 293 372 298 365 308 365 c 0
 317 365 322 372 328 381 c 0
 389 482 440 575 491 680 c 1
 519 680 552 682 566 683 c 1
 568 680 l 1
 487 567 400 432 342 334 c 0
 333 319 332 305 332 293 c 2
 332 263 l 2
 332 172 335 81 341 3 c 1
 338 0 l 1
 314 0 277 -2 245 -5 c 1
 242 -2 l 1
 251 81 257 167 257 263 c 2
449 738 m 1
 423 734 l 1
 308 800 l 1
 193 734 l 1
 167 738 l 1
 167 742 l 1
 204 770 260 815 301 852 c 1
 315 852 l 1
 356 815 412 770 449 742 c 1
 449 738 l 1
EndSplineSet
EndChar

StartChar: Ydieresis
Encoding: 376 376 187
Width: 574
GlyphClass: 1
Flags: MW
HStem: -5 20 664 20
LayerCount: 2
Fore
SplineSet
257 263 m 2
 257 277 l 2
 257 288 255 305 247 318 c 0
 178 431 88 575 20 676 c 1
 23 680 l 1
 40 680 92 682 124 684 c 1
 164 590 236 465 286 383 c 0
 293 372 298 365 308 365 c 0
 317 365 322 372 328 381 c 0
 389 482 440 575 491 680 c 1
 519 680 552 682 566 683 c 1
 568 680 l 1
 487 567 400 432 342 334 c 0
 333 319 332 305 332 293 c 2
 332 263 l 2
 332 172 335 81 341 3 c 1
 338 0 l 1
 314 0 277 -2 245 -5 c 1
 242 -2 l 1
 251 81 257 167 257 263 c 2
424 799 m 0
 424 776 404 757 381 757 c 0
 357 757 338 775 338 799 c 0
 338 823 357 841 381 841 c 0
 404 841 424 823 424 799 c 0
255 799 m 0
 255 776 236 757 213 757 c 0
 189 757 170 775 170 799 c 0
 170 823 189 841 213 841 c 0
 236 841 255 823 255 799 c 0
EndSplineSet
EndChar

StartChar: Zacute
Encoding: 377 377 188
Width: 633
GlyphClass: 1
Flags: MW
HStem: -2 20 662 20<608 608>
LayerCount: 2
Fore
SplineSet
459 605 m 0
 464 612 467 619 467 623 c 0
 467 638 446 641 346 641 c 0
 251 641 155 635 78 628 c 1
 75 631 l 1
 77 639 79 665 80 682 c 1
 160 680 337 679 418 679 c 0
 506 679 573 681 608 682 c 1
 610 666 l 1
 527 575 244 195 165 79 c 0
 160 71 157 65 157 61 c 0
 157 45 184 42 289 42 c 0
 410 42 536 49 612 57 c 1
 615 54 l 1
 612 41 609 13 609 -2 c 1
 521 -1 373 1 292 1 c 0
 181 1 81 0 14 -2 c 1
 12 12 l 1
 176 218 392 512 459 605 c 0
309 731 m 1
 340 773 377 826 394 851 c 0
 400 862 406 870 420 870 c 0
 434 870 451 866 451 851 c 0
 451 845 445 839 439 833 c 0
 414 808 361 756 333 729 c 1
 311 729 l 1
 309 731 l 1
EndSplineSet
EndChar

StartChar: Zcaron
Encoding: 381 381 189
Width: 633
GlyphClass: 1
Flags: MW
HStem: -2 20 662 20<608 608>
LayerCount: 2
Fore
SplineSet
459 605 m 0
 464 612 467 619 467 623 c 0
 467 638 446 641 346 641 c 0
 251 641 155 635 78 628 c 1
 75 631 l 1
 77 639 79 665 80 682 c 1
 160 680 337 679 418 679 c 0
 506 679 573 681 608 682 c 1
 610 666 l 1
 527 575 244 195 165 79 c 0
 160 71 157 65 157 61 c 0
 157 45 184 42 289 42 c 0
 410 42 536 49 612 57 c 1
 615 54 l 1
 612 41 609 13 609 -2 c 1
 521 -1 373 1 292 1 c 0
 181 1 81 0 14 -2 c 1
 12 12 l 1
 176 218 392 512 459 605 c 0
483 848 m 1
 483 844 l 1
 446 816 390 771 349 734 c 1
 335 734 l 1
 294 771 238 816 201 844 c 1
 201 848 l 1
 227 852 l 1
 342 786 l 1
 457 852 l 1
 483 848 l 1
EndSplineSet
EndChar

StartChar: Zdotaccent
Encoding: 379 379 190
Width: 633
GlyphClass: 1
Flags: MW
HStem: -2 20 662 20<608 608>
LayerCount: 2
Fore
SplineSet
459 605 m 0
 464 612 467 619 467 623 c 0
 467 638 446 641 346 641 c 0
 251 641 155 635 78 628 c 1
 75 631 l 1
 77 639 79 665 80 682 c 1
 160 680 337 679 418 679 c 0
 506 679 573 681 608 682 c 1
 610 666 l 1
 527 575 244 195 165 79 c 0
 160 71 157 65 157 61 c 0
 157 45 184 42 289 42 c 0
 410 42 536 49 612 57 c 1
 615 54 l 1
 612 41 609 13 609 -2 c 1
 521 -1 373 1 292 1 c 0
 181 1 81 0 14 -2 c 1
 12 12 l 1
 176 218 392 512 459 605 c 0
364 797 m 0
 364 771 343 750 317 750 c 0
 291 750 270 771 270 797 c 0
 270 824 291 844 317 844 c 0
 343 844 364 824 364 797 c 0
EndSplineSet
EndChar

StartChar: agrave
Encoding: 224 224 191
Width: 721
GlyphClass: 1
Flags: MW
HStem: -5 20
LayerCount: 2
Fore
SplineSet
247 385 m 0
 238 367 244 355 266 352 c 0
 287 349 324 348 344 348 c 0
 373 348 408 349 430 352 c 0
 452 355 459 366 450 390 c 0
 434 433 405 503 379 550 c 0
 373 562 366 567 359 567 c 0
 352 567 346 561 339 550 c 0
 310 504 268 429 247 385 c 0
384 699 m 1
 399 700 l 1
 493 470 640 136 714 3 c 1
 711 0 l 1
 699 0 633 -2 609 -5 c 1
 583 66 536 185 502 263 c 0
 486 301 470 312 436 314 c 0
 413 315 377 316 341 316 c 0
 294 316 255 315 234 312 c 0
 210 309 195 291 182 266 c 0
 130 165 85 70 58 0 c 1
 32 0 7 -1 -14 -3 c 1
 -17 0 l 1
 113 221 255 470 384 699 c 1
429 731 m 1
 427 729 l 1
 405 729 l 1
 377 756 324 808 299 833 c 0
 293 839 287 845 287 851 c 0
 287 866 304 870 318 870 c 0
 332 870 338 862 344 851 c 0
 361 826 398 773 429 731 c 1
EndSplineSet
Substitution2: "Podtablica 'case' Warianty wersalikowe w +AUIA-aci+AUQA-skie w tablicy 5" Agrave
Substitution2: "Podtablica 'aalt' Dost+ARkA-p do wszystkich alternatyw w +AUIA-aci+AUQA-skie w tablicy 0" Agrave
EndChar

StartChar: aacute
Encoding: 225 225 192
Width: 721
GlyphClass: 1
Flags: MW
HStem: -5 20
LayerCount: 2
Fore
SplineSet
247 385 m 0
 238 367 244 355 266 352 c 0
 287 349 324 348 344 348 c 0
 373 348 408 349 430 352 c 0
 452 355 459 366 450 390 c 0
 434 433 405 503 379 550 c 0
 373 562 366 567 359 567 c 0
 352 567 346 561 339 550 c 0
 310 504 268 429 247 385 c 0
384 699 m 1
 399 700 l 1
 493 470 640 136 714 3 c 1
 711 0 l 1
 699 0 633 -2 609 -5 c 1
 583 66 536 185 502 263 c 0
 486 301 470 312 436 314 c 0
 413 315 377 316 341 316 c 0
 294 316 255 315 234 312 c 0
 210 309 195 291 182 266 c 0
 130 165 85 70 58 0 c 1
 32 0 7 -1 -14 -3 c 1
 -17 0 l 1
 113 221 255 470 384 699 c 1
361 731 m 1
 392 773 429 826 446 851 c 0
 452 862 458 870 472 870 c 0
 486 870 503 866 503 851 c 0
 503 845 497 839 491 833 c 0
 466 808 413 756 385 729 c 1
 363 729 l 1
 361 731 l 1
EndSplineSet
Substitution2: "Podtablica 'case' Warianty wersalikowe w +AUIA-aci+AUQA-skie w tablicy 5" Aacute
Substitution2: "Podtablica 'aalt' Dost+ARkA-p do wszystkich alternatyw w +AUIA-aci+AUQA-skie w tablicy 0" Aacute
EndChar

StartChar: acircumflex
Encoding: 226 226 193
Width: 721
GlyphClass: 1
Flags: MW
HStem: -5 20
LayerCount: 2
Fore
SplineSet
247 385 m 0
 238 367 244 355 266 352 c 0
 287 349 324 348 344 348 c 0
 373 348 408 349 430 352 c 0
 452 355 459 366 450 390 c 0
 434 433 405 503 379 550 c 0
 373 562 366 567 359 567 c 0
 352 567 346 561 339 550 c 0
 310 504 268 429 247 385 c 0
384 699 m 1
 399 700 l 1
 493 470 640 136 714 3 c 1
 711 0 l 1
 699 0 633 -2 609 -5 c 1
 583 66 536 185 502 263 c 0
 486 301 470 312 436 314 c 0
 413 315 377 316 341 316 c 0
 294 316 255 315 234 312 c 0
 210 309 195 291 182 266 c 0
 130 165 85 70 58 0 c 1
 32 0 7 -1 -14 -3 c 1
 -17 0 l 1
 113 221 255 470 384 699 c 1
531 738 m 1
 505 734 l 1
 390 800 l 1
 275 734 l 1
 249 738 l 1
 249 742 l 1
 286 770 342 815 383 852 c 1
 397 852 l 1
 438 815 494 770 531 742 c 1
 531 738 l 1
EndSplineSet
Substitution2: "Podtablica 'case' Warianty wersalikowe w +AUIA-aci+AUQA-skie w tablicy 5" Acircumflex
Substitution2: "Podtablica 'aalt' Dost+ARkA-p do wszystkich alternatyw w +AUIA-aci+AUQA-skie w tablicy 0" Acircumflex
EndChar

StartChar: atilde
Encoding: 227 227 194
Width: 721
GlyphClass: 1
Flags: MW
HStem: -5 20
LayerCount: 2
Fore
SplineSet
247 385 m 0
 238 367 244 355 266 352 c 0
 287 349 324 348 344 348 c 0
 373 348 408 349 430 352 c 0
 452 355 459 366 450 390 c 0
 434 433 405 503 379 550 c 0
 373 562 366 567 359 567 c 0
 352 567 346 561 339 550 c 0
 310 504 268 429 247 385 c 0
384 699 m 1
 399 700 l 1
 493 470 640 136 714 3 c 1
 711 0 l 1
 699 0 633 -2 609 -5 c 1
 583 66 536 185 502 263 c 0
 486 301 470 312 436 314 c 0
 413 315 377 316 341 316 c 0
 294 316 255 315 234 312 c 0
 210 309 195 291 182 266 c 0
 130 165 85 70 58 0 c 1
 32 0 7 -1 -14 -3 c 1
 -17 0 l 1
 113 221 255 470 384 699 c 1
562 832 m 1
 547 785 521 742 473 742 c 0
 444 742 422 754 391 776 c 0
 366 793 347 802 330 802 c 0
 303 802 285 789 272 747 c 1
 253 756 l 1
 269 805 291 847 347 847 c 0
 373 847 398 836 429 815 c 0
 451 799 473 786 490 786 c 0
 517 786 530 805 543 840 c 1
 562 832 l 1
EndSplineSet
Substitution2: "Podtablica 'case' Warianty wersalikowe w +AUIA-aci+AUQA-skie w tablicy 5" Atilde
Substitution2: "Podtablica 'aalt' Dost+ARkA-p do wszystkich alternatyw w +AUIA-aci+AUQA-skie w tablicy 0" Atilde
EndChar

StartChar: adieresis
Encoding: 228 228 195
Width: 721
GlyphClass: 1
Flags: MW
HStem: -5 20
LayerCount: 2
Fore
SplineSet
604 784 m 0
 604 761 584 742 561 742 c 0
 537 742 518 760 518 784 c 0
 518 808 537 826 561 826 c 0
 584 826 604 808 604 784 c 0
263 784 m 0
 263 761 244 742 221 742 c 0
 197 742 178 760 178 784 c 0
 178 808 197 826 221 826 c 0
 244 826 263 808 263 784 c 0
247 385 m 0x80
 238 367 244 355 266 352 c 0
 287 349 324 348 344 348 c 0
 373 348 408 349 430 352 c 0
 452 355 459 366 450 390 c 0
 434 433 405 503 379 550 c 0
 373 562 366 567 359 567 c 0
 352 567 346 561 339 550 c 0
 310 504 268 429 247 385 c 0x80
384 699 m 1
 399 700 l 1
 493 470 640 136 714 3 c 1
 711 0 l 1
 699 0 633 -2 609 -5 c 1
 583 66 536 185 502 263 c 0
 486 301 470 312 436 314 c 0
 413 315 377 316 341 316 c 0
 294 316 255 315 234 312 c 0
 210 309 195 291 182 266 c 0
 130 165 85 70 58 0 c 1
 32 0 7 -1 -14 -3 c 1
 -17 0 l 1
 113 221 255 470 384 699 c 1
EndSplineSet
AlternateSubs2: "Podtablica 'salt' Alternatywy stylistyczne w +AUIA-aci+AUQA-skie w tablicy 20" adieresis.alt01 adieresis.alt02
Substitution2: "Podtablica 'case' Warianty wersalikowe w +AUIA-aci+AUQA-skie w tablicy 5" Adieresis
AlternateSubs2: "Podtablica 'aalt' Dost+ARkA-p do wszystkich alternatyw w +AUIA-aci+AUQA-skie w tablicy 1" Adieresis adieresis.alt01 adieresis.alt02
EndChar

StartChar: amacron
Encoding: 257 257 196
Width: 721
GlyphClass: 1
Flags: MW
HStem: -5 20
LayerCount: 2
Fore
SplineSet
247 385 m 0
 238 367 244 355 266 352 c 0
 287 349 324 348 344 348 c 0
 373 348 408 349 430 352 c 0
 452 355 459 366 450 390 c 0
 434 433 405 503 379 550 c 0
 373 562 366 567 359 567 c 0
 352 567 346 561 339 550 c 0
 310 504 268 429 247 385 c 0
384 699 m 1
 399 700 l 1
 493 470 640 136 714 3 c 1
 711 0 l 1
 699 0 633 -2 609 -5 c 1
 583 66 536 185 502 263 c 0
 486 301 470 312 436 314 c 0
 413 315 377 316 341 316 c 0
 294 316 255 315 234 312 c 0
 210 309 195 291 182 266 c 0
 130 165 85 70 58 0 c 1
 32 0 7 -1 -14 -3 c 1
 -17 0 l 1
 113 221 255 470 384 699 c 1
538 759 m 1
 271 759 l 1
 271 795 l 1
 538 795 l 1
 538 759 l 1
EndSplineSet
Substitution2: "Podtablica 'case' Warianty wersalikowe w +AUIA-aci+AUQA-skie w tablicy 5" Amacron
Substitution2: "Podtablica 'aalt' Dost+ARkA-p do wszystkich alternatyw w +AUIA-aci+AUQA-skie w tablicy 0" Amacron
EndChar

StartChar: abreve
Encoding: 259 259 197
Width: 721
GlyphClass: 1
Flags: MW
HStem: -5 20
LayerCount: 2
Fore
SplineSet
247 385 m 0
 238 367 244 355 266 352 c 0
 287 349 324 348 344 348 c 0
 373 348 408 349 430 352 c 0
 452 355 459 366 450 390 c 0
 434 433 405 503 379 550 c 0
 373 562 366 567 359 567 c 0
 352 567 346 561 339 550 c 0
 310 504 268 429 247 385 c 0
384 699 m 1
 399 700 l 1
 493 470 640 136 714 3 c 1
 711 0 l 1
 699 0 633 -2 609 -5 c 1
 583 66 536 185 502 263 c 0
 486 301 470 312 436 314 c 0
 413 315 377 316 341 316 c 0
 294 316 255 315 234 312 c 0
 210 309 195 291 182 266 c 0
 130 165 85 70 58 0 c 1
 32 0 7 -1 -14 -3 c 1
 -17 0 l 1
 113 221 255 470 384 699 c 1
544 862 m 1
 535 797 497 738 408 738 c 0
 319 738 281 795 272 859 c 1
 290 869 l 1
 306 819 333 789 408 789 c 0
 483 789 510 819 525 869 c 1
 544 862 l 1
EndSplineSet
Substitution2: "Podtablica 'case' Warianty wersalikowe w +AUIA-aci+AUQA-skie w tablicy 5" Abreve
Substitution2: "Podtablica 'aalt' Dost+ARkA-p do wszystkich alternatyw w +AUIA-aci+AUQA-skie w tablicy 0" Abreve
EndChar

StartChar: aring
Encoding: 229 229 198
Width: 721
GlyphClass: 1
Flags: MW
HStem: -5 20
LayerCount: 2
Fore
SplineSet
247 385 m 0
 238 367 244 355 266 352 c 0
 287 349 324 348 344 348 c 0
 373 348 408 349 430 352 c 0
 452 355 459 366 450 390 c 0
 434 433 405 503 379 550 c 0
 373 562 366 567 359 567 c 0
 352 567 346 561 339 550 c 0
 310 504 268 429 247 385 c 0
-17 0 m 1
 113 221 230 422 347 632 c 0
 353 643 357 664 342 672 c 0
 319 683 297 698 297 746 c 0
 297 803 341 837 390 837 c 0
 440 837 483 805 483 746 c 0
 483 706 464 687 442 674 c 0
 422 664 420 646 428 627 c 0
 505 440 645 131 714 3 c 1
 711 0 l 1
 699 0 633 -2 609 -5 c 1
 583 66 536 185 502 263 c 0
 486 301 470 312 436 314 c 0
 413 315 377 316 341 316 c 0
 294 316 255 315 234 312 c 0
 210 309 195 291 182 266 c 0
 130 165 85 70 58 0 c 1
 32 0 7 -1 -14 -3 c 1
 -17 0 l 1
448 748 m 0
 448 785 428 815 390 815 c 0
 352 815 332 785 332 748 c 0
 332 708 352 680 390 680 c 0
 428 680 448 707 448 748 c 0
EndSplineSet
Substitution2: "Podtablica 'case' Warianty wersalikowe w +AUIA-aci+AUQA-skie w tablicy 5" Aring
Substitution2: "Podtablica 'aalt' Dost+ARkA-p do wszystkich alternatyw w +AUIA-aci+AUQA-skie w tablicy 0" Aring
EndChar

StartChar: aogonek
Encoding: 261 261 199
Width: 721
GlyphClass: 1
Flags: MW
HStem: -5 20
LayerCount: 2
Fore
SplineSet
695 -199 m 1
 673 -217 640 -228 608 -228 c 0
 556 -228 508 -205 508 -147 c 0
 508 -91 542 -54 615 -4 c 1
 613 -4 611 -5 609 -5 c 0
 583 66 536 185 502 263 c 0
 486 301 470 312 436 314 c 0
 413 315 377 316 341 316 c 0
 294 316 255 315 234 312 c 0
 210 309 195 291 182 266 c 0
 130 165 85 70 58 0 c 1
 32 0 7 -1 -14 -3 c 1
 -17 0 l 1
 113 221 255 470 384 699 c 1
 399 700 l 1
 493 470 640 136 714 3 c 1
 711 0 l 1
 704 0 679 0 655 -1 c 1
 585 -57 561 -90 561 -135 c 0
 561 -175 584 -200 628 -200 c 0
 647 -200 666 -194 686 -182 c 1
 695 -199 l 1
247 385 m 0
 238 367 244 355 266 352 c 0
 287 349 324 348 344 348 c 0
 373 348 408 349 430 352 c 0
 452 355 459 366 450 390 c 0
 434 433 405 503 379 550 c 0
 373 562 366 567 359 567 c 0
 352 567 346 561 339 550 c 0
 310 504 268 429 247 385 c 0
EndSplineSet
Substitution2: "Podtablica 'case' Warianty wersalikowe w +AUIA-aci+AUQA-skie w tablicy 5" Aogonek
Substitution2: "Podtablica 'aalt' Dost+ARkA-p do wszystkich alternatyw w +AUIA-aci+AUQA-skie w tablicy 0" Aogonek
EndChar

StartChar: ae
Encoding: 230 230 200
Width: 839
GlyphClass: 1
Flags: MW
HStem: -3 20 662 20<780 780>
LayerCount: 2
Fore
SplineSet
479 415 m 2
 479 548 l 2
 479 580 477 598 467 598 c 0
 459 598 449 588 438 572 c 0
 402 521 358 457 329 409 c 0
 320 394 323 379 337 377 c 0
 357 374 377 373 399 373 c 0
 421 373 447 374 464 376 c 0
 473 377 479 385 479 415 c 2
560 679 m 0
 627 679 719 680 780 682 c 1
 783 679 l 1
 781 666 779 645 779 631 c 1
 742 639 676 645 621 645 c 0
 569 645 559 635 557 600 c 0
 554 554 553 491 553 458 c 2
 553 427 l 2
 553 375 562 373 599 373 c 0
 658 373 731 377 762 382 c 1
 765 379 l 1
 763 367 762 344 762 331 c 1
 727 335 658 339 599 339 c 0
 557 339 553 335 553 278 c 2
 553 261 l 2
 553 213 554 155 558 91 c 0
 561 48 574 35 632 35 c 0
 681 35 732 40 783 51 c 1
 786 48 l 1
 784 36 782 13 782 -2 c 1
 711 0 616 1 550 1 c 0
 522 1 498 0 474 -1 c 1
 471 2 l 1
 476 81 479 163 480 266 c 2
 480 288 l 2
 480 322 477 329 464 333 c 0
 448 338 421 339 379 339 c 0
 303 339 288 333 264 299 c 0
 192 194 109 63 77 0 c 1
 54 0 26 -1 5 -3 c 1
 2 0 l 1
 151 210 333 477 468 682 c 1
 496 680 533 679 560 679 c 0
EndSplineSet
Ligature2: "Podtablica 'dpng' Diphthongs (Obsolete) w +AUIA-aci+AUQA-skie w tablicy 14" a e
Substitution2: "Podtablica 'case' Warianty wersalikowe w +AUIA-aci+AUQA-skie w tablicy 5" AE
Substitution2: "Podtablica 'aalt' Dost+ARkA-p do wszystkich alternatyw w +AUIA-aci+AUQA-skie w tablicy 0" AE
EndChar

StartChar: cacute
Encoding: 263 263 201
Width: 694
GlyphClass: 1
Flags: MW
HStem: -13 20 673 20<320.5 493.5>
LayerCount: 2
Fore
SplineSet
151 340 m 0
 151 120 282 26 454 26 c 0
 538 26 618 64 653 106 c 1
 660 104 l 1
 659 93 654 58 650 46 c 1
 619 20 537 -13 438 -13 c 0
 214 -13 62 115 62 340 c 0
 62 562 196 693 445 693 c 0
 542 693 632 669 671 647 c 1
 662 621 654 592 649 561 c 1
 635 559 l 1
 607 629 532 661 439 661 c 0
 264 661 151 550 151 340 c 0
379 731 m 1
 410 773 447 826 464 851 c 0
 470 862 476 870 490 870 c 0
 504 870 521 866 521 851 c 0
 521 845 515 839 509 833 c 0
 484 808 431 756 403 729 c 1
 381 729 l 1
 379 731 l 1
EndSplineSet
Substitution2: "Podtablica 'case' Warianty wersalikowe w +AUIA-aci+AUQA-skie w tablicy 5" Cacute
Substitution2: "Podtablica 'aalt' Dost+ARkA-p do wszystkich alternatyw w +AUIA-aci+AUQA-skie w tablicy 0" Cacute
EndChar

StartChar: ccircumflex
Encoding: 265 265 202
Width: 694
GlyphClass: 1
Flags: MW
HStem: -13 20 673 20<320.5 493.5>
LayerCount: 2
Fore
SplineSet
151 340 m 0
 151 120 282 26 454 26 c 0
 538 26 618 64 653 106 c 1
 660 104 l 1
 659 93 654 58 650 46 c 1
 619 20 537 -13 438 -13 c 0
 214 -13 62 115 62 340 c 0
 62 562 196 693 445 693 c 0
 542 693 632 669 671 647 c 1
 662 621 654 592 649 561 c 1
 635 559 l 1
 607 629 532 661 439 661 c 0
 264 661 151 550 151 340 c 0
554 738 m 1
 528 734 l 1
 413 800 l 1
 298 734 l 1
 272 738 l 1
 272 742 l 1
 309 770 365 815 406 852 c 1
 420 852 l 1
 461 815 517 770 554 742 c 1
 554 738 l 1
EndSplineSet
Substitution2: "Podtablica 'case' Warianty wersalikowe w +AUIA-aci+AUQA-skie w tablicy 5" Ccircumflex
Substitution2: "Podtablica 'aalt' Dost+ARkA-p do wszystkich alternatyw w +AUIA-aci+AUQA-skie w tablicy 0" Ccircumflex
EndChar

StartChar: ccaron
Encoding: 269 269 203
Width: 694
GlyphClass: 1
Flags: MW
HStem: -13 20 673 20<320.5 493.5>
LayerCount: 2
Fore
SplineSet
151 340 m 0
 151 120 282 26 454 26 c 0
 538 26 618 64 653 106 c 1
 660 104 l 1
 659 93 654 58 650 46 c 1
 619 20 537 -13 438 -13 c 0
 214 -13 62 115 62 340 c 0
 62 562 196 693 445 693 c 0
 542 693 632 669 671 647 c 1
 662 621 654 592 649 561 c 1
 635 559 l 1
 607 629 532 661 439 661 c 0
 264 661 151 550 151 340 c 0
554 848 m 1
 554 844 l 1
 517 816 461 771 420 734 c 1
 406 734 l 1
 365 771 309 816 272 844 c 1
 272 848 l 1
 298 852 l 1
 413 786 l 1
 528 852 l 1
 554 848 l 1
EndSplineSet
Substitution2: "Podtablica 'case' Warianty wersalikowe w +AUIA-aci+AUQA-skie w tablicy 5" Ccaron
Substitution2: "Podtablica 'aalt' Dost+ARkA-p do wszystkich alternatyw w +AUIA-aci+AUQA-skie w tablicy 0" Ccaron
EndChar

StartChar: cdotaccent
Encoding: 267 267 204
Width: 694
GlyphClass: 1
Flags: MW
HStem: -13 20 673 20<320.5 493.5>
LayerCount: 2
Fore
SplineSet
151 340 m 0
 151 120 282 26 454 26 c 0
 538 26 618 64 653 106 c 1
 660 104 l 1
 659 93 654 58 650 46 c 1
 619 20 537 -13 438 -13 c 0
 214 -13 62 115 62 340 c 0
 62 562 196 693 445 693 c 0
 542 693 632 669 671 647 c 1
 662 621 654 592 649 561 c 1
 635 559 l 1
 607 629 532 661 439 661 c 0
 264 661 151 550 151 340 c 0
463 797 m 0
 463 771 442 750 416 750 c 0
 390 750 369 771 369 797 c 0
 369 824 390 844 416 844 c 0
 442 844 463 824 463 797 c 0
EndSplineSet
Substitution2: "Podtablica 'case' Warianty wersalikowe w +AUIA-aci+AUQA-skie w tablicy 5" Cdotaccent
Substitution2: "Podtablica 'aalt' Dost+ARkA-p do wszystkich alternatyw w +AUIA-aci+AUQA-skie w tablicy 0" Cdotaccent
EndChar

StartChar: ccedilla
Encoding: 231 231 205
Width: 694
GlyphClass: 1
Flags: MW
HStem: 673 20<320.5 493.5>
LayerCount: 2
Fore
SplineSet
441 -13 m 1
 421 -72 l 1
 436 -70 453 -69 461 -69 c 0
 499 -69 551 -87 551 -140 c 0
 551 -203 497 -228 435 -228 c 0
 412 -228 377 -223 353 -217 c 1
 358 -193 l 1
 374 -198 405 -202 426 -202 c 0
 462 -202 499 -192 499 -145 c 0
 499 -109 470 -97 442 -97 c 0
 423 -97 402 -100 383 -105 c 1
 378 -92 l 1
 391 -67 402 -44 415 -12 c 1
 205 -4 62 122 62 340 c 0
 62 562 196 693 445 693 c 0
 542 693 632 669 671 647 c 1
 662 621 654 592 649 561 c 1
 635 559 l 1
 607 629 532 661 439 661 c 0
 264 661 151 550 151 340 c 0
 151 120 282 26 454 26 c 0
 538 26 618 64 653 106 c 1
 660 104 l 1
 659 93 654 58 650 46 c 1
 619 20 537 -13 441 -13 c 1
EndSplineSet
Substitution2: "Podtablica 'case' Warianty wersalikowe w +AUIA-aci+AUQA-skie w tablicy 5" Ccedilla
Substitution2: "Podtablica 'aalt' Dost+ARkA-p do wszystkich alternatyw w +AUIA-aci+AUQA-skie w tablicy 0" Ccedilla
EndChar

StartChar: dcaron
Encoding: 271 271 206
Width: 780
GlyphClass: 1
Flags: MW
HStem: -2 20 662 20<105 105 337.5 483>
LayerCount: 2
Fore
SplineSet
189 600 m 0
 185 553 182 465 182 375 c 2
 182 325 l 2
 182 256 184 140 189 92 c 0
 194 41 232 34 317 34 c 0
 468 34 631 90 631 354 c 0
 631 586 509 647 341 647 c 0
 215 647 192 639 189 600 c 0
94 2 m 1
 103 81 107 235 107 325 c 2
 107 375 l 2
 107 465 106 598 101 678 c 1
 105 682 l 1
 131 680 161 679 191 679 c 0
 232 679 309 682 366 682 c 0
 600 682 720 596 720 354 c 0
 720 90 540 -2 339 -2 c 0
 291 -2 240 0 195 0 c 0
 168 0 127 -1 97 -1 c 1
 94 2 l 1
522 848 m 1
 522 844 l 1
 485 816 429 771 388 734 c 1
 374 734 l 1
 333 771 277 816 240 844 c 1
 240 848 l 1
 266 852 l 1
 381 786 l 1
 496 852 l 1
 522 848 l 1
EndSplineSet
Substitution2: "Podtablica 'case' Warianty wersalikowe w +AUIA-aci+AUQA-skie w tablicy 5" Dcaron
Substitution2: "Podtablica 'aalt' Dost+ARkA-p do wszystkich alternatyw w +AUIA-aci+AUQA-skie w tablicy 0" Dcaron
EndChar

StartChar: dcroat
Encoding: 273 273 207
Width: 780
GlyphClass: 1
Flags: MW
HStem: -2 20 662 20<105 105 337.5 483>
LayerCount: 2
Fore
SplineSet
182 300 m 0
 182 230 184 140 189 92 c 0
 194 41 232 34 317 34 c 0
 468 34 631 90 631 354 c 0
 631 586 509 647 341 647 c 0
 215 647 192 639 189 600 c 0
 185 553 180 473 181 431 c 0
 181 388 184 386 223 386 c 2
 230 386 l 2
 277 386 321 387 361 389 c 1
 360 383 360 375 360 368 c 0
 360 360 360 354 361 347 c 1
 321 349 276 350 243 350 c 2
 222 350 l 2
 189 350 182 336 182 300 c 0
107 299 m 0
 107 338 105 350 71 350 c 2
 58 350 l 2
 41 350 24 349 9 347 c 1
 10 354 10 360 10 368 c 0
 10 375 10 383 9 389 c 1
 24 387 41 386 58 386 c 2
 70 386 l 2
 95 386 108 391 108 434 c 0
 108 518 106 598 101 678 c 1
 105 682 l 1
 131 680 161 679 191 679 c 0
 232 679 309 682 366 682 c 0
 600 682 720 596 720 354 c 0
 720 90 540 -2 339 -2 c 0
 291 -2 240 0 195 0 c 0
 168 0 127 -1 97 -1 c 1
 94 2 l 1
 103 81 107 209 107 299 c 0
EndSplineSet
Substitution2: "Podtablica 'case' Warianty wersalikowe w +AUIA-aci+AUQA-skie w tablicy 5" Dcroat
Substitution2: "Podtablica 'aalt' Dost+ARkA-p do wszystkich alternatyw w +AUIA-aci+AUQA-skie w tablicy 0" Dcroat
EndChar

StartChar: eth
Encoding: 240 240 208
Width: 780
GlyphClass: 1
Flags: MW
HStem: -2 20 662 20<105 105 337.5 483>
LayerCount: 2
Fore
SplineSet
182 300 m 0
 182 230 184 140 189 92 c 0
 194 41 232 34 317 34 c 0
 468 34 631 90 631 354 c 0
 631 586 509 647 341 647 c 0
 215 647 192 639 189 600 c 0
 185 553 180 473 181 431 c 0
 181 388 184 386 223 386 c 2
 230 386 l 2
 277 386 321 387 361 389 c 1
 360 383 360 375 360 368 c 0
 360 360 360 354 361 347 c 1
 321 349 276 350 243 350 c 2
 222 350 l 2
 189 350 182 336 182 300 c 0
107 299 m 0
 107 338 105 350 71 350 c 2
 58 350 l 2
 41 350 24 349 9 347 c 1
 10 354 10 360 10 368 c 0
 10 375 10 383 9 389 c 1
 24 387 41 386 58 386 c 2
 70 386 l 2
 95 386 108 391 108 434 c 0
 108 518 106 598 101 678 c 1
 105 682 l 1
 131 680 161 679 191 679 c 0
 232 679 309 682 366 682 c 0
 600 682 720 596 720 354 c 0
 720 90 540 -2 339 -2 c 0
 291 -2 240 0 195 0 c 0
 168 0 127 -1 97 -1 c 1
 94 2 l 1
 103 81 107 209 107 299 c 0
EndSplineSet
Substitution2: "Podtablica 'case' Warianty wersalikowe w +AUIA-aci+AUQA-skie w tablicy 5" Eth
Substitution2: "Podtablica 'aalt' Dost+ARkA-p do wszystkich alternatyw w +AUIA-aci+AUQA-skie w tablicy 0" Eth
EndChar

StartChar: egrave
Encoding: 232 232 209
Width: 465
GlyphClass: 1
Flags: MW
HStem: -2 20 662 20<106 106 407 407>
LayerCount: 2
Fore
SplineSet
95 2 m 1
 104 81 108 235 108 325 c 2
 108 375 l 2
 108 465 107 598 102 678 c 1
 106 682 l 1
 132 680 162 679 190 679 c 0
 256 679 347 680 407 682 c 1
 410 679 l 1
 408 666 406 645 406 631 c 1
 369 639 303 645 248 645 c 0
 196 645 186 635 184 600 c 0
 181 552 180 491 180 458 c 2
 180 439 l 2
 180 387 189 385 226 385 c 0
 285 385 358 389 389 394 c 1
 392 391 l 1
 390 379 389 356 389 343 c 1
 354 347 285 351 226 351 c 0
 184 351 180 347 180 290 c 2
 180 273 l 2
 180 201 181 155 185 91 c 0
 188 48 201 35 259 35 c 0
 308 35 359 40 410 51 c 1
 413 48 l 1
 411 36 409 13 409 -2 c 1
 338 0 243 1 177 1 c 0
 147 1 122 0 98 -1 c 1
 95 2 l 1
273 731 m 1
 271 729 l 1
 249 729 l 1
 221 756 168 808 143 833 c 0
 137 839 131 845 131 851 c 0
 131 866 148 870 162 870 c 0
 176 870 182 862 188 851 c 0
 205 826 242 773 273 731 c 1
EndSplineSet
Substitution2: "Podtablica 'case' Warianty wersalikowe w +AUIA-aci+AUQA-skie w tablicy 5" Egrave
Substitution2: "Podtablica 'aalt' Dost+ARkA-p do wszystkich alternatyw w +AUIA-aci+AUQA-skie w tablicy 0" Egrave
EndChar

StartChar: eacute
Encoding: 233 233 210
Width: 465
GlyphClass: 1
Flags: MW
HStem: -2 20 662 20<106 106 407 407>
LayerCount: 2
Fore
SplineSet
95 2 m 1
 104 81 108 235 108 325 c 2
 108 375 l 2
 108 465 107 598 102 678 c 1
 106 682 l 1
 132 680 162 679 190 679 c 0
 256 679 347 680 407 682 c 1
 410 679 l 1
 408 666 406 645 406 631 c 1
 369 639 303 645 248 645 c 0
 196 645 186 635 184 600 c 0
 181 552 180 491 180 458 c 2
 180 439 l 2
 180 387 189 385 226 385 c 0
 285 385 358 389 389 394 c 1
 392 391 l 1
 390 379 389 356 389 343 c 1
 354 347 285 351 226 351 c 0
 184 351 180 347 180 290 c 2
 180 273 l 2
 180 201 181 155 185 91 c 0
 188 48 201 35 259 35 c 0
 308 35 359 40 410 51 c 1
 413 48 l 1
 411 36 409 13 409 -2 c 1
 338 0 243 1 177 1 c 0
 147 1 122 0 98 -1 c 1
 95 2 l 1
227 731 m 1
 258 773 295 826 312 851 c 0
 318 862 324 870 338 870 c 0
 352 870 369 866 369 851 c 0
 369 845 363 839 357 833 c 0
 332 808 279 756 251 729 c 1
 229 729 l 1
 227 731 l 1
EndSplineSet
Substitution2: "Podtablica 'case' Warianty wersalikowe w +AUIA-aci+AUQA-skie w tablicy 5" Eacute
Substitution2: "Podtablica 'aalt' Dost+ARkA-p do wszystkich alternatyw w +AUIA-aci+AUQA-skie w tablicy 0" Eacute
EndChar

StartChar: ecircumflex
Encoding: 234 234 211
Width: 465
GlyphClass: 1
Flags: MW
HStem: -2 20 662 20<106 106 407 407>
LayerCount: 2
Fore
SplineSet
95 2 m 1
 104 81 108 235 108 325 c 2
 108 375 l 2
 108 465 107 598 102 678 c 1
 106 682 l 1
 132 680 162 679 190 679 c 0
 256 679 347 680 407 682 c 1
 410 679 l 1
 408 666 406 645 406 631 c 1
 369 639 303 645 248 645 c 0
 196 645 186 635 184 600 c 0
 181 552 180 491 180 458 c 2
 180 439 l 2
 180 387 189 385 226 385 c 0
 285 385 358 389 389 394 c 1
 392 391 l 1
 390 379 389 356 389 343 c 1
 354 347 285 351 226 351 c 0
 184 351 180 347 180 290 c 2
 180 273 l 2
 180 201 181 155 185 91 c 0
 188 48 201 35 259 35 c 0
 308 35 359 40 410 51 c 1
 413 48 l 1
 411 36 409 13 409 -2 c 1
 338 0 243 1 177 1 c 0
 147 1 122 0 98 -1 c 1
 95 2 l 1
403 738 m 1
 377 734 l 1
 262 800 l 1
 147 734 l 1
 121 738 l 1
 121 742 l 1
 158 770 214 815 255 852 c 1
 269 852 l 1
 310 815 366 770 403 742 c 1
 403 738 l 1
EndSplineSet
Substitution2: "Podtablica 'case' Warianty wersalikowe w +AUIA-aci+AUQA-skie w tablicy 5" Ecircumflex
Substitution2: "Podtablica 'aalt' Dost+ARkA-p do wszystkich alternatyw w +AUIA-aci+AUQA-skie w tablicy 0" Ecircumflex
EndChar

StartChar: ecaron
Encoding: 283 283 212
Width: 465
GlyphClass: 1
Flags: MW
HStem: -2 20 662 20<106 106 407 407>
LayerCount: 2
Fore
SplineSet
95 2 m 1
 104 81 108 235 108 325 c 2
 108 375 l 2
 108 465 107 598 102 678 c 1
 106 682 l 1
 132 680 162 679 190 679 c 0
 256 679 347 680 407 682 c 1
 410 679 l 1
 408 666 406 645 406 631 c 1
 369 639 303 645 248 645 c 0
 196 645 186 635 184 600 c 0
 181 552 180 491 180 458 c 2
 180 439 l 2
 180 387 189 385 226 385 c 0
 285 385 358 389 389 394 c 1
 392 391 l 1
 390 379 389 356 389 343 c 1
 354 347 285 351 226 351 c 0
 184 351 180 347 180 290 c 2
 180 273 l 2
 180 201 181 155 185 91 c 0
 188 48 201 35 259 35 c 0
 308 35 359 40 410 51 c 1
 413 48 l 1
 411 36 409 13 409 -2 c 1
 338 0 243 1 177 1 c 0
 147 1 122 0 98 -1 c 1
 95 2 l 1
403 848 m 1
 403 844 l 1
 366 816 310 771 269 734 c 1
 255 734 l 1
 214 771 158 816 121 844 c 1
 121 848 l 1
 147 852 l 1
 262 786 l 1
 377 852 l 1
 403 848 l 1
EndSplineSet
Substitution2: "Podtablica 'case' Warianty wersalikowe w +AUIA-aci+AUQA-skie w tablicy 5" Ecaron
Substitution2: "Podtablica 'aalt' Dost+ARkA-p do wszystkich alternatyw w +AUIA-aci+AUQA-skie w tablicy 0" Ecaron
EndChar

StartChar: edieresis
Encoding: 235 235 213
Width: 465
GlyphClass: 1
Flags: MW
HStem: -2 20 662 20<106 106 407 407>
LayerCount: 2
Fore
SplineSet
95 2 m 1
 104 81 108 235 108 325 c 2
 108 375 l 2
 108 465 107 598 102 678 c 1
 106 682 l 1
 132 680 162 679 190 679 c 0
 256 679 347 680 407 682 c 1
 410 679 l 1
 408 666 406 645 406 631 c 1
 369 639 303 645 248 645 c 0
 196 645 186 635 184 600 c 0
 181 552 180 491 180 458 c 2
 180 439 l 2
 180 387 189 385 226 385 c 0
 285 385 358 389 389 394 c 1
 392 391 l 1
 390 379 389 356 389 343 c 1
 354 347 285 351 226 351 c 0
 184 351 180 347 180 290 c 2
 180 273 l 2
 180 201 181 155 185 91 c 0
 188 48 201 35 259 35 c 0
 308 35 359 40 410 51 c 1
 413 48 l 1
 411 36 409 13 409 -2 c 1
 338 0 243 1 177 1 c 0
 147 1 122 0 98 -1 c 1
 95 2 l 1
383 799 m 0
 383 776 363 757 340 757 c 0
 316 757 297 775 297 799 c 0
 297 823 316 841 340 841 c 0
 363 841 383 823 383 799 c 0
214 799 m 0
 214 776 195 757 172 757 c 0
 148 757 129 775 129 799 c 0
 129 823 148 841 172 841 c 0
 195 841 214 823 214 799 c 0
EndSplineSet
Substitution2: "Podtablica 'case' Warianty wersalikowe w +AUIA-aci+AUQA-skie w tablicy 5" Edieresis
Substitution2: "Podtablica 'aalt' Dost+ARkA-p do wszystkich alternatyw w +AUIA-aci+AUQA-skie w tablicy 0" Edieresis
EndChar

StartChar: emacron
Encoding: 275 275 214
Width: 465
GlyphClass: 1
Flags: MW
HStem: -2 20 662 20<106 106 407 407>
LayerCount: 2
Fore
SplineSet
95 2 m 1
 104 81 108 235 108 325 c 2
 108 375 l 2
 108 465 107 598 102 678 c 1
 106 682 l 1
 132 680 162 679 190 679 c 0
 256 679 347 680 407 682 c 1
 410 679 l 1
 408 666 406 645 406 631 c 1
 369 639 303 645 248 645 c 0
 196 645 186 635 184 600 c 0
 181 552 180 491 180 458 c 2
 180 439 l 2
 180 387 189 385 226 385 c 0
 285 385 358 389 389 394 c 1
 392 391 l 1
 390 379 389 356 389 343 c 1
 354 347 285 351 226 351 c 0
 184 351 180 347 180 290 c 2
 180 273 l 2
 180 201 181 155 185 91 c 0
 188 48 201 35 259 35 c 0
 308 35 359 40 410 51 c 1
 413 48 l 1
 411 36 409 13 409 -2 c 1
 338 0 243 1 177 1 c 0
 147 1 122 0 98 -1 c 1
 95 2 l 1
396 759 m 1
 129 759 l 1
 129 795 l 1
 396 795 l 1
 396 759 l 1
EndSplineSet
Substitution2: "Podtablica 'case' Warianty wersalikowe w +AUIA-aci+AUQA-skie w tablicy 5" Emacron
Substitution2: "Podtablica 'aalt' Dost+ARkA-p do wszystkich alternatyw w +AUIA-aci+AUQA-skie w tablicy 0" Emacron
EndChar

StartChar: ebreve
Encoding: 277 277 215
Width: 465
GlyphClass: 1
Flags: MW
HStem: -2 20 662 20<106 106 407 407>
LayerCount: 2
Fore
SplineSet
95 2 m 1
 104 81 108 235 108 325 c 2
 108 375 l 2
 108 465 107 598 102 678 c 1
 106 682 l 1
 132 680 162 679 190 679 c 0
 256 679 347 680 407 682 c 1
 410 679 l 1
 408 666 406 645 406 631 c 1
 369 639 303 645 248 645 c 0
 196 645 186 635 184 600 c 0
 181 552 180 491 180 458 c 2
 180 439 l 2
 180 387 189 385 226 385 c 0
 285 385 358 389 389 394 c 1
 392 391 l 1
 390 379 389 356 389 343 c 1
 354 347 285 351 226 351 c 0
 184 351 180 347 180 290 c 2
 180 273 l 2
 180 201 181 155 185 91 c 0
 188 48 201 35 259 35 c 0
 308 35 359 40 410 51 c 1
 413 48 l 1
 411 36 409 13 409 -2 c 1
 338 0 243 1 177 1 c 0
 147 1 122 0 98 -1 c 1
 95 2 l 1
398 862 m 1
 389 797 351 738 262 738 c 0
 173 738 135 795 126 859 c 1
 144 869 l 1
 160 819 187 789 262 789 c 0
 337 789 364 819 379 869 c 1
 398 862 l 1
EndSplineSet
Substitution2: "Podtablica 'case' Warianty wersalikowe w +AUIA-aci+AUQA-skie w tablicy 5" Ebreve
Substitution2: "Podtablica 'aalt' Dost+ARkA-p do wszystkich alternatyw w +AUIA-aci+AUQA-skie w tablicy 0" Ebreve
EndChar

StartChar: edotaccent
Encoding: 279 279 216
Width: 465
GlyphClass: 1
Flags: MW
HStem: -2 20 662 20<106 106 407 407>
LayerCount: 2
Fore
SplineSet
95 2 m 1
 104 81 108 235 108 325 c 2
 108 375 l 2
 108 465 107 598 102 678 c 1
 106 682 l 1
 132 680 162 679 190 679 c 0
 256 679 347 680 407 682 c 1
 410 679 l 1
 408 666 406 645 406 631 c 1
 369 639 303 645 248 645 c 0
 196 645 186 635 184 600 c 0
 181 552 180 491 180 458 c 2
 180 439 l 2
 180 387 189 385 226 385 c 0
 285 385 358 389 389 394 c 1
 392 391 l 1
 390 379 389 356 389 343 c 1
 354 347 285 351 226 351 c 0
 184 351 180 347 180 290 c 2
 180 273 l 2
 180 201 181 155 185 91 c 0
 188 48 201 35 259 35 c 0
 308 35 359 40 410 51 c 1
 413 48 l 1
 411 36 409 13 409 -2 c 1
 338 0 243 1 177 1 c 0
 147 1 122 0 98 -1 c 1
 95 2 l 1
309 797 m 0
 309 771 288 750 262 750 c 0
 236 750 215 771 215 797 c 0
 215 824 236 844 262 844 c 0
 288 844 309 824 309 797 c 0
EndSplineSet
Substitution2: "Podtablica 'case' Warianty wersalikowe w +AUIA-aci+AUQA-skie w tablicy 5" Edotaccent
Substitution2: "Podtablica 'aalt' Dost+ARkA-p do wszystkich alternatyw w +AUIA-aci+AUQA-skie w tablicy 0" Edotaccent
EndChar

StartChar: eogonek
Encoding: 281 281 217
Width: 465
GlyphClass: 1
Flags: MW
HStem: -2 20 662 20<106 106 407 407>
LayerCount: 2
Fore
SplineSet
423 -199 m 1
 401 -217 368 -228 336 -228 c 0
 284 -228 236 -205 236 -147 c 0
 236 -90 272 -52 349 0 c 1
 290 0 226 1 177 1 c 0
 147 1 122 0 98 -1 c 1
 95 2 l 1
 104 81 108 235 108 325 c 2
 108 375 l 2
 108 465 107 598 102 678 c 1
 106 682 l 1
 132 680 162 679 190 679 c 0
 256 679 347 680 407 682 c 1
 410 679 l 1
 408 666 406 645 406 631 c 1
 369 639 303 645 248 645 c 0
 196 645 186 635 184 600 c 0
 181 552 180 491 180 458 c 2
 180 439 l 2
 180 387 189 385 226 385 c 0
 285 385 358 389 389 394 c 1
 392 391 l 1
 390 379 389 356 389 343 c 1
 354 347 285 351 226 351 c 0
 184 351 180 347 180 290 c 2
 180 273 l 2
 180 201 181 155 185 91 c 0
 188 48 201 35 259 35 c 0
 308 35 359 40 410 51 c 1
 413 48 l 1
 411 36 409 13 409 -2 c 1
 401 -2 392 -1 383 -1 c 1
 313 -57 289 -90 289 -135 c 0
 289 -175 312 -200 356 -200 c 0
 375 -200 394 -194 414 -182 c 1
 423 -199 l 1
EndSplineSet
Substitution2: "Podtablica 'case' Warianty wersalikowe w +AUIA-aci+AUQA-skie w tablicy 5" Eogonek
Substitution2: "Podtablica 'aalt' Dost+ARkA-p do wszystkich alternatyw w +AUIA-aci+AUQA-skie w tablicy 0" Eogonek
EndChar

StartChar: gcircumflex
Encoding: 285 285 218
Width: 764
GlyphClass: 1
Flags: MW
HStem: -15 20 675 20<322.5 503>
LayerCount: 2
Fore
SplineSet
691 27 m 1
 689 24 l 1
 644 7 543 -15 453 -15 c 0
 191 -15 62 130 62 341 c 0
 62 562 192 695 453 695 c 0
 553 695 644 671 684 649 c 1
 675 623 667 594 662 565 c 1
 650 563 l 1
 621 630 542 664 447 664 c 0
 253 664 151 550 151 341 c 0
 151 147 253 19 462 19 c 0
 519 19 567 28 594 43 c 0
 605 49 611 64 611 78 c 0
 611 149 608 214 602 281 c 1
 605 284 l 1
 623 284 660 286 689 289 c 1
 692 286 l 1
 688 242 687 179 687 124 c 0
 687 87 688 54 691 27 c 1
566 738 m 1
 540 734 l 1
 425 800 l 1
 310 734 l 1
 284 738 l 1
 284 742 l 1
 321 770 377 815 418 852 c 1
 432 852 l 1
 473 815 529 770 566 742 c 1
 566 738 l 1
EndSplineSet
Substitution2: "Podtablica 'case' Warianty wersalikowe w +AUIA-aci+AUQA-skie w tablicy 5" Gcircumflex
Substitution2: "Podtablica 'aalt' Dost+ARkA-p do wszystkich alternatyw w +AUIA-aci+AUQA-skie w tablicy 0" Gcircumflex
EndChar

StartChar: gbreve
Encoding: 287 287 219
Width: 764
GlyphClass: 1
Flags: MW
HStem: -15 20 675 20<322.5 503>
LayerCount: 2
Fore
SplineSet
691 27 m 1
 689 24 l 1
 644 7 543 -15 453 -15 c 0
 191 -15 62 130 62 341 c 0
 62 562 192 695 453 695 c 0
 553 695 644 671 684 649 c 1
 675 623 667 594 662 565 c 1
 650 563 l 1
 621 630 542 664 447 664 c 0
 253 664 151 550 151 341 c 0
 151 147 253 19 462 19 c 0
 519 19 567 28 594 43 c 0
 605 49 611 64 611 78 c 0
 611 149 608 214 602 281 c 1
 605 284 l 1
 623 284 660 286 689 289 c 1
 692 286 l 1
 688 242 687 179 687 124 c 0
 687 87 688 54 691 27 c 1
559 862 m 1
 550 797 512 738 423 738 c 0
 334 738 296 795 287 859 c 1
 305 869 l 1
 321 819 348 789 423 789 c 0
 498 789 525 819 540 869 c 1
 559 862 l 1
EndSplineSet
Substitution2: "Podtablica 'case' Warianty wersalikowe w +AUIA-aci+AUQA-skie w tablicy 5" Gbreve
Substitution2: "Podtablica 'aalt' Dost+ARkA-p do wszystkich alternatyw w +AUIA-aci+AUQA-skie w tablicy 0" Gbreve
EndChar

StartChar: gdotaccent
Encoding: 289 289 220
Width: 764
GlyphClass: 1
Flags: MW
HStem: -15 20 675 20<322.5 503>
LayerCount: 2
Fore
SplineSet
691 27 m 1
 689 24 l 1
 644 7 543 -15 453 -15 c 0
 191 -15 62 130 62 341 c 0
 62 562 192 695 453 695 c 0
 553 695 644 671 684 649 c 1
 675 623 667 594 662 565 c 1
 650 563 l 1
 621 630 542 664 447 664 c 0
 253 664 151 550 151 341 c 0
 151 147 253 19 462 19 c 0
 519 19 567 28 594 43 c 0
 605 49 611 64 611 78 c 0
 611 149 608 214 602 281 c 1
 605 284 l 1
 623 284 660 286 689 289 c 1
 692 286 l 1
 688 242 687 179 687 124 c 0
 687 87 688 54 691 27 c 1
470 797 m 0
 470 771 449 750 423 750 c 0
 397 750 376 771 376 797 c 0
 376 824 397 844 423 844 c 0
 449 844 470 824 470 797 c 0
EndSplineSet
Substitution2: "Podtablica 'case' Warianty wersalikowe w +AUIA-aci+AUQA-skie w tablicy 5" Gdotaccent
Substitution2: "Podtablica 'aalt' Dost+ARkA-p do wszystkich alternatyw w +AUIA-aci+AUQA-skie w tablicy 0" Gdotaccent
EndChar

StartChar: gcommaaccent
Encoding: 291 291 221
Width: 764
GlyphClass: 1
Flags: MW
HStem: -15 20 675 20<322.5 503>
LayerCount: 2
Fore
SplineSet
691 27 m 1
 689 24 l 1
 644 7 543 -15 453 -15 c 0
 191 -15 62 130 62 341 c 0
 62 562 192 695 453 695 c 0
 553 695 644 671 684 649 c 1
 675 623 667 594 662 565 c 1
 650 563 l 1
 621 630 542 664 447 664 c 0
 253 664 151 550 151 341 c 0
 151 147 253 19 462 19 c 0
 519 19 567 28 594 43 c 0
 605 49 611 64 611 78 c 0
 611 149 608 214 602 281 c 1
 605 284 l 1
 623 284 660 286 689 289 c 1
 692 286 l 1
 688 242 687 179 687 124 c 0
 687 87 688 54 691 27 c 1
439 -143 m 0
 439 -113 424 -85 385 -85 c 0
 380 -85 371 -86 366 -87 c 1
 363 -78 l 1
 375 -65 391 -52 401 -44 c 1
 465 -44 484 -92 484 -127 c 0
 484 -187 434 -230 396 -242 c 1
 377 -230 l 1
 377 -226 l 1
 415 -209 439 -180 439 -143 c 0
EndSplineSet
Substitution2: "Podtablica 'case' Warianty wersalikowe w +AUIA-aci+AUQA-skie w tablicy 5" Gcommaaccent
Substitution2: "Podtablica 'aalt' Dost+ARkA-p do wszystkich alternatyw w +AUIA-aci+AUQA-skie w tablicy 0" Gcommaaccent
EndChar

StartChar: hcircumflex
Encoding: 293 293 222
Width: 792
GlyphClass: 1
Flags: MW
HStem: -5 20 665 20<192 192 695 695>
LayerCount: 2
Fore
SplineSet
537 738 m 1
 511 734 l 1
 396 800 l 1
 281 734 l 1
 255 738 l 1
 255 742 l 1
 292 770 348 815 389 852 c 1
 403 852 l 1
 444 815 500 770 537 742 c 1
 537 738 l 1
182 282 m 2
 182 207 185 81 191 3 c 1
 188 0 l 1
 166 0 129 -2 97 -5 c 1
 94 -2 l 1
 103 81 107 235 107 325 c 2
 107 375 l 2
 107 465 104 599 98 677 c 1
 101 680 l 1
 125 680 162 682 192 685 c 1
 195 682 l 1
 186 599 182 526 182 446 c 2
 182 435 l 2
 182 404 187 391 208 389 c 0
 248 386 310 385 391 385 c 0
 462 385 532 386 569 389 c 0
 597 391 610 406 610 442 c 2
 610 453 l 2
 610 543 607 599 601 677 c 1
 604 680 l 1
 626 680 663 682 695 685 c 1
 698 682 l 1
 689 599 685 465 685 375 c 2
 685 325 l 2
 685 235 688 81 694 3 c 1
 691 0 l 1
 667 0 630 -2 600 -5 c 1
 597 -2 l 1
 606 81 610 209 610 283 c 2
 610 295 l 2
 610 335 594 340 568 343 c 0
 531 346 453 348 391 348 c 0
 319 348 271 347 221 343 c 0
 200 340 182 336 182 294 c 2
 182 282 l 2
EndSplineSet
Substitution2: "Podtablica 'case' Warianty wersalikowe w +AUIA-aci+AUQA-skie w tablicy 5" Hcircumflex
Substitution2: "Podtablica 'aalt' Dost+ARkA-p do wszystkich alternatyw w +AUIA-aci+AUQA-skie w tablicy 0" Hcircumflex
EndChar

StartChar: hbar
Encoding: 295 295 223
Width: 792
GlyphClass: 1
Flags: MW
HStem: -5 20 665 20<192 192 695 695>
LayerCount: 2
Fore
SplineSet
182 282 m 2
 182 207 185 81 191 3 c 1
 188 0 l 1
 166 0 129 -2 97 -5 c 1
 94 -2 l 1
 103 81 107 235 107 325 c 2
 107 375 l 2
 107 465 104 599 98 677 c 1
 101 680 l 1
 125 680 162 682 192 685 c 1
 195 682 l 1
 188 621 184 565 183 508 c 1
 609 508 l 1
 608 568 605 616 601 677 c 1
 604 680 l 1
 626 680 663 682 695 685 c 1
 698 682 l 1
 689 599 685 465 685 375 c 2
 685 325 l 2
 685 235 688 81 694 3 c 1
 691 0 l 1
 667 0 630 -2 600 -5 c 1
 597 -2 l 1
 606 81 610 209 610 283 c 2
 610 295 l 2
 610 335 594 340 568 343 c 0
 531 346 453 348 391 348 c 0
 319 348 271 347 221 343 c 0
 200 340 182 336 182 294 c 2
 182 282 l 2
610 442 m 2
 610 453 l 1
 610 472 l 1
 182 472 l 1
 182 446 l 1
 182 435 l 2
 182 404 187 391 208 389 c 0
 248 386 310 385 391 385 c 0
 462 385 532 386 569 389 c 0
 597 391 610 406 610 442 c 2
EndSplineSet
Substitution2: "Podtablica 'case' Warianty wersalikowe w +AUIA-aci+AUQA-skie w tablicy 5" Hbar
Substitution2: "Podtablica 'aalt' Dost+ARkA-p do wszystkich alternatyw w +AUIA-aci+AUQA-skie w tablicy 0" Hbar
EndChar

StartChar: dotlessi
Encoding: 305 305 224
Width: 289
GlyphClass: 1
Flags: MW
HStem: -5 20 665 20<194 194>
LayerCount: 2
Fore
SplineSet
103 680 m 1
 127 680 164 682 194 685 c 1
 197 682 l 1
 188 599 184 465 184 375 c 2
 184 325 l 2
 184 234 187 81 193 3 c 1
 190 0 l 1
 168 0 131 -2 99 -5 c 1
 96 -2 l 1
 105 81 109 235 109 325 c 2
 109 375 l 2
 109 465 106 599 100 677 c 1
 103 680 l 1
EndSplineSet
Substitution2: "Podtablica 'case' Warianty wersalikowe w +AUIA-aci+AUQA-skie w tablicy 7" I
Substitution2: "Podtablica 'case' Warianty wersalikowe w +AUIA-aci+AUQA-skie w tablicy 6" I
Substitution2: "Podtablica 'aalt' Dost+ARkA-p do wszystkich alternatyw w +AUIA-aci+AUQA-skie w tablicy 0" I
EndChar

StartChar: igrave
Encoding: 236 236 225
Width: 289
GlyphClass: 1
Flags: MW
HStem: -5 20 665 20<194 194>
LayerCount: 2
Fore
SplineSet
103 680 m 1
 127 680 164 682 194 685 c 1
 197 682 l 1
 188 599 184 465 184 375 c 2
 184 325 l 2
 184 234 187 81 193 3 c 1
 190 0 l 1
 168 0 131 -2 99 -5 c 1
 96 -2 l 1
 105 81 109 235 109 325 c 2
 109 375 l 2
 109 465 106 599 100 677 c 1
 103 680 l 1
179 731 m 1
 177 729 l 1
 155 729 l 1
 127 756 74 808 49 833 c 0
 43 839 37 845 37 851 c 0
 37 866 54 870 68 870 c 0
 82 870 88 862 94 851 c 0
 111 826 148 773 179 731 c 1
EndSplineSet
Substitution2: "Podtablica 'case' Warianty wersalikowe w +AUIA-aci+AUQA-skie w tablicy 5" Igrave
Substitution2: "Podtablica 'aalt' Dost+ARkA-p do wszystkich alternatyw w +AUIA-aci+AUQA-skie w tablicy 0" Igrave
EndChar

StartChar: iacute
Encoding: 237 237 226
Width: 289
GlyphClass: 1
Flags: MW
HStem: -5 20 665 20<194 194>
LayerCount: 2
Fore
SplineSet
103 680 m 1
 127 680 164 682 194 685 c 1
 197 682 l 1
 188 599 184 465 184 375 c 2
 184 325 l 2
 184 234 187 81 193 3 c 1
 190 0 l 1
 168 0 131 -2 99 -5 c 1
 96 -2 l 1
 105 81 109 235 109 325 c 2
 109 375 l 2
 109 465 106 599 100 677 c 1
 103 680 l 1
125 731 m 1
 156 773 193 826 210 851 c 0
 216 862 222 870 236 870 c 0
 250 870 267 866 267 851 c 0
 267 845 261 839 255 833 c 0
 230 808 177 756 149 729 c 1
 127 729 l 1
 125 731 l 1
EndSplineSet
Substitution2: "Podtablica 'case' Warianty wersalikowe w +AUIA-aci+AUQA-skie w tablicy 5" Iacute
Substitution2: "Podtablica 'aalt' Dost+ARkA-p do wszystkich alternatyw w +AUIA-aci+AUQA-skie w tablicy 0" Iacute
EndChar

StartChar: icircumflex
Encoding: 238 238 227
Width: 289
GlyphClass: 1
Flags: MW
HStem: -5 20 665 20<194 194>
LayerCount: 2
Fore
SplineSet
103 680 m 1
 127 680 164 682 194 685 c 1
 197 682 l 1
 188 599 184 465 184 375 c 2
 184 325 l 2
 184 234 187 81 193 3 c 1
 190 0 l 1
 168 0 131 -2 99 -5 c 1
 96 -2 l 1
 105 81 109 235 109 325 c 2
 109 375 l 2
 109 465 106 599 100 677 c 1
 103 680 l 1
287 738 m 1
 261 734 l 1
 146 800 l 1
 31 734 l 1
 5 738 l 1
 5 742 l 1
 42 770 98 815 139 852 c 1
 153 852 l 1
 194 815 250 770 287 742 c 1
 287 738 l 1
EndSplineSet
Substitution2: "Podtablica 'case' Warianty wersalikowe w +AUIA-aci+AUQA-skie w tablicy 5" Icircumflex
Substitution2: "Podtablica 'aalt' Dost+ARkA-p do wszystkich alternatyw w +AUIA-aci+AUQA-skie w tablicy 0" Icircumflex
EndChar

StartChar: itilde
Encoding: 297 297 228
Width: 289
GlyphClass: 1
Flags: MW
HStem: -5 20 665 20<194 194>
LayerCount: 2
Fore
SplineSet
299 832 m 1
 284 785 258 742 210 742 c 0
 181 742 159 754 128 776 c 0
 103 793 84 802 67 802 c 0
 40 802 22 789 9 747 c 1
 -10 756 l 1
 6 805 28 847 84 847 c 0
 110 847 135 836 166 815 c 0
 188 799 210 786 227 786 c 0
 254 786 267 805 280 840 c 1
 299 832 l 1
103 680 m 1
 127 680 164 682 194 685 c 1
 197 682 l 1
 188 599 184 465 184 375 c 2
 184 325 l 2
 184 234 187 81 193 3 c 1
 190 0 l 1
 168 0 131 -2 99 -5 c 1
 96 -2 l 1
 105 81 109 235 109 325 c 2
 109 375 l 2
 109 465 106 599 100 677 c 1
 103 680 l 1
EndSplineSet
Substitution2: "Podtablica 'case' Warianty wersalikowe w +AUIA-aci+AUQA-skie w tablicy 5" Itilde
Substitution2: "Podtablica 'aalt' Dost+ARkA-p do wszystkich alternatyw w +AUIA-aci+AUQA-skie w tablicy 0" Itilde
EndChar

StartChar: idieresis
Encoding: 239 239 229
Width: 289
GlyphClass: 1
Flags: MW
HStem: -5 20 665 20<194 194>
LayerCount: 2
Fore
SplineSet
103 680 m 1
 127 680 164 682 194 685 c 1
 197 682 l 1
 188 599 184 465 184 375 c 2
 184 325 l 2
 184 234 187 81 193 3 c 1
 190 0 l 1
 168 0 131 -2 99 -5 c 1
 96 -2 l 1
 105 81 109 235 109 325 c 2
 109 375 l 2
 109 465 106 599 100 677 c 1
 103 680 l 1
277 799 m 0
 277 776 257 757 234 757 c 0
 210 757 191 775 191 799 c 0
 191 823 210 841 234 841 c 0
 257 841 277 823 277 799 c 0
108 799 m 0
 108 776 89 757 66 757 c 0
 42 757 23 775 23 799 c 0
 23 823 42 841 66 841 c 0
 89 841 108 823 108 799 c 0
EndSplineSet
Substitution2: "Podtablica 'case' Warianty wersalikowe w +AUIA-aci+AUQA-skie w tablicy 5" Idieresis
Substitution2: "Podtablica 'aalt' Dost+ARkA-p do wszystkich alternatyw w +AUIA-aci+AUQA-skie w tablicy 0" Idieresis
EndChar

StartChar: imacron
Encoding: 299 299 230
Width: 289
GlyphClass: 1
Flags: MW
HStem: -5 20 665 20<194 194>
LayerCount: 2
Fore
SplineSet
278 759 m 1
 11 759 l 1
 11 795 l 1
 278 795 l 1
 278 759 l 1
103 680 m 1
 127 680 164 682 194 685 c 1
 197 682 l 1
 188 599 184 465 184 375 c 2
 184 325 l 2
 184 234 187 81 193 3 c 1
 190 0 l 1
 168 0 131 -2 99 -5 c 1
 96 -2 l 1
 105 81 109 235 109 325 c 2
 109 375 l 2
 109 465 106 599 100 677 c 1
 103 680 l 1
EndSplineSet
Substitution2: "Podtablica 'case' Warianty wersalikowe w +AUIA-aci+AUQA-skie w tablicy 5" Imacron
Substitution2: "Podtablica 'aalt' Dost+ARkA-p do wszystkich alternatyw w +AUIA-aci+AUQA-skie w tablicy 0" Imacron
EndChar

StartChar: iogonek
Encoding: 303 303 231
Width: 289
GlyphClass: 1
Flags: MW
HStem: -5 20 665 20<194 194>
LayerCount: 2
Fore
SplineSet
103 680 m 1
 127 680 164 682 194 685 c 1
 197 682 l 1
 188 599 184 465 184 375 c 2
 184 325 l 2
 184 234 187 81 193 3 c 1
 190 0 l 1
 161 0 l 1
 91 -57 66 -90 66 -135 c 0
 66 -175 89 -200 133 -200 c 0
 152 -200 171 -194 191 -182 c 1
 200 -199 l 1
 178 -217 145 -228 113 -228 c 0
 61 -228 13 -205 13 -147 c 0
 13 -91 47 -53 122 -3 c 1
 114 -3 106 -4 99 -5 c 1
 96 -2 l 1
 105 81 109 235 109 325 c 2
 109 375 l 2
 109 465 106 599 100 677 c 1
 103 680 l 1
EndSplineSet
Substitution2: "Podtablica 'case' Warianty wersalikowe w +AUIA-aci+AUQA-skie w tablicy 5" Iogonek
Substitution2: "Podtablica 'aalt' Dost+ARkA-p do wszystkich alternatyw w +AUIA-aci+AUQA-skie w tablicy 0" Iogonek
EndChar

StartChar: dotlessj
Encoding: 567 567 232
Width: 287
GlyphClass: 1
Flags: MW
HStem: 665 20<196 196>
LayerCount: 2
Fore
SplineSet
114 153 m 2
 114 180 l 2
 114 439 110 599 102 677 c 1
 105 680 l 1
 127 680 169 682 196 685 c 1
 199 682 l 1
 192 599 189 465 189 375 c 2
 189 325 l 2
 189 250 191 172 191 125 c 0
 191 -33 137 -145 -14 -145 c 0
 -23 -145 -36 -144 -47 -142 c 1
 -55 -119 l 1
 -52 -114 l 1
 -42 -115 -33 -116 -24 -116 c 0
 85 -116 114 -27 114 153 c 2
EndSplineSet
EndChar

StartChar: jcircumflex
Encoding: 309 309 233
Width: 289
GlyphClass: 1
Flags: MW
HStem: 665 20<196 196>
LayerCount: 2
Fore
SplineSet
285 738 m 1
 259 734 l 1
 144 800 l 1
 29 734 l 1
 3 738 l 1
 3 742 l 1
 40 770 96 815 137 852 c 1
 151 852 l 1
 192 815 248 770 285 742 c 1
 285 738 l 1
114 153 m 2
 114 180 l 2
 114 439 110 599 102 677 c 1
 105 680 l 1
 127 680 169 682 196 685 c 1
 199 682 l 1
 192 599 189 465 189 375 c 2
 189 325 l 2
 189 250 191 172 191 125 c 0
 191 -33 137 -145 -14 -145 c 0
 -23 -145 -36 -144 -47 -142 c 1
 -55 -119 l 1
 -52 -114 l 1
 -42 -115 -33 -116 -24 -116 c 0
 85 -116 114 -27 114 153 c 2
EndSplineSet
Substitution2: "Podtablica 'case' Warianty wersalikowe w +AUIA-aci+AUQA-skie w tablicy 5" Jcircumflex
Substitution2: "Podtablica 'aalt' Dost+ARkA-p do wszystkich alternatyw w +AUIA-aci+AUQA-skie w tablicy 0" Jcircumflex
EndChar

StartChar: kcommaaccent
Encoding: 311 311 234
Width: 616
GlyphClass: 1
Flags: MW
HStem: -7 20 665 20<192 192>
LayerCount: 2
Fore
SplineSet
323 -143 m 0
 323 -113 308 -85 269 -85 c 0
 264 -85 255 -86 250 -87 c 1
 247 -78 l 1
 259 -65 275 -52 285 -44 c 1
 349 -44 368 -92 368 -127 c 0
 368 -187 318 -230 280 -242 c 1
 261 -230 l 1
 261 -226 l 1
 299 -209 323 -180 323 -143 c 0
518 -7 m 1
 432 99 309 233 226 320 c 0
 211 335 202 341 192 341 c 0
 182 341 180 326 180 296 c 2
 180 284 l 2
 180 205 185 81 191 3 c 1
 188 0 l 1
 166 0 129 -2 97 -5 c 1
 94 -2 l 1
 103 81 107 235 107 325 c 2
 107 375 l 2
 107 465 104 599 98 677 c 1
 101 680 l 1
 125 680 162 682 192 685 c 1
 195 682 l 1
 185 599 180 503 180 431 c 2
 180 420 l 2
 180 391 183 371 196 371 c 0
 205 371 215 377 228 389 c 0
 317 469 430 587 509 680 c 1
 537 680 568 681 589 682 c 1
 592 679 l 1
 499 600 375 483 297 405 c 0
 284 392 280 384 280 377 c 0
 280 372 282 365 298 347 c 0
 384 251 543 88 634 3 c 1
 631 0 l 1
 597 0 554 -1 518 -7 c 1
EndSplineSet
Substitution2: "Podtablica 'case' Warianty wersalikowe w +AUIA-aci+AUQA-skie w tablicy 5" Kcommaaccent
Substitution2: "Podtablica 'aalt' Dost+ARkA-p do wszystkich alternatyw w +AUIA-aci+AUQA-skie w tablicy 0" Kcommaaccent
EndChar

StartChar: lacute
Encoding: 314 314 235
Width: 440
GlyphClass: 1
Flags: MW
HStem: -2 20 665 20<193 193>
LayerCount: 2
Fore
SplineSet
183 325 m 2
 183 227 183 153 185 101 c 0
 187 47 202 35 267 35 c 0
 314 35 368 40 426 51 c 1
 429 48 l 1
 427 36 425 13 425 -2 c 1
 338 0 243 1 177 1 c 0
 147 1 120 0 98 -1 c 1
 95 2 l 1
 104 81 108 235 108 325 c 2
 108 375 l 2
 108 465 105 599 99 677 c 1
 102 680 l 1
 126 680 163 682 193 685 c 1
 196 682 l 1
 187 599 183 465 183 375 c 2
 183 325 l 2
128 731 m 1
 159 773 196 826 213 851 c 0
 219 862 225 870 239 870 c 0
 253 870 270 866 270 851 c 0
 270 845 264 839 258 833 c 0
 233 808 180 756 152 729 c 1
 130 729 l 1
 128 731 l 1
EndSplineSet
Substitution2: "Podtablica 'case' Warianty wersalikowe w +AUIA-aci+AUQA-skie w tablicy 5" Lacute
Substitution2: "Podtablica 'aalt' Dost+ARkA-p do wszystkich alternatyw w +AUIA-aci+AUQA-skie w tablicy 0" Lacute
EndChar

StartChar: lcaron
Encoding: 318 318 236
Width: 440
GlyphClass: 1
Flags: MW
HStem: -2 20 665 20<193 193>
LayerCount: 2
Fore
SplineSet
183 325 m 2
 183 227 183 153 185 101 c 0
 187 47 202 35 267 35 c 0
 314 35 368 40 426 51 c 1
 429 48 l 1
 427 36 425 13 425 -2 c 1
 338 0 243 1 177 1 c 0
 147 1 120 0 98 -1 c 1
 95 2 l 1
 104 81 108 235 108 325 c 2
 108 375 l 2
 108 465 105 599 99 677 c 1
 102 680 l 1
 126 680 163 682 193 685 c 1
 196 682 l 1
 187 599 183 465 183 375 c 2
 183 325 l 2
342 584 m 0
 342 614 327 642 288 642 c 0
 283 642 274 641 269 640 c 1
 266 649 l 1
 278 662 294 675 304 683 c 1
 368 683 387 635 387 600 c 0
 387 540 337 497 299 485 c 1
 280 497 l 1
 280 501 l 1
 318 518 342 547 342 584 c 0
EndSplineSet
Substitution2: "Podtablica 'case' Warianty wersalikowe w +AUIA-aci+AUQA-skie w tablicy 5" Lcaron
Substitution2: "Podtablica 'aalt' Dost+ARkA-p do wszystkich alternatyw w +AUIA-aci+AUQA-skie w tablicy 0" Lcaron
EndChar

StartChar: lcommaaccent
Encoding: 316 316 237
Width: 440
GlyphClass: 1
Flags: MW
HStem: -2 20 665 20<193 193>
LayerCount: 2
Fore
SplineSet
183 325 m 2
 183 227 183 153 185 101 c 0
 187 47 202 35 267 35 c 0
 314 35 368 40 426 51 c 1
 429 48 l 1
 427 36 425 13 425 -2 c 1
 338 0 243 1 177 1 c 0
 147 1 120 0 98 -1 c 1
 95 2 l 1
 104 81 108 235 108 325 c 2
 108 375 l 2
 108 465 105 599 99 677 c 1
 102 680 l 1
 126 680 163 682 193 685 c 1
 196 682 l 1
 187 599 183 465 183 375 c 2
 183 325 l 2
263 -143 m 0
 263 -113 248 -85 209 -85 c 0
 204 -85 195 -86 190 -87 c 1
 187 -78 l 1
 199 -65 215 -52 225 -44 c 1
 289 -44 308 -92 308 -127 c 0
 308 -187 258 -230 220 -242 c 1
 201 -230 l 1
 201 -226 l 1
 239 -209 263 -180 263 -143 c 0
EndSplineSet
Substitution2: "Podtablica 'case' Warianty wersalikowe w +AUIA-aci+AUQA-skie w tablicy 5" Lcommaaccent
Substitution2: "Podtablica 'aalt' Dost+ARkA-p do wszystkich alternatyw w +AUIA-aci+AUQA-skie w tablicy 0" Lcommaaccent
EndChar

StartChar: lslash
Encoding: 322 322 238
Width: 440
GlyphClass: 1
Flags: MW
HStem: -2 20 665 20<192 192>
LayerCount: 2
Fore
SplineSet
107 254 m 0
 107 289 101 298 90 298 c 0
 86 298 81 296 73 291 c 0
 54 279 34 265 20 254 c 1
 17 261 6 283 0 290 c 1
 18 299 41 312 62 325 c 0
 93 345 107 362 107 391 c 0
 107 470 104 599 98 677 c 1
 101 680 l 1
 125 680 162 682 192 685 c 1
 195 682 l 1
 186 599 182 521 182 448 c 0
 182 413 188 404 199 404 c 0
 203 404 208 406 216 411 c 0
 255 436 292 461 310 478 c 1
 313 471 327 450 332 443 c 1
 310 429 275 408 227 376 c 0
 196 356 182 340 182 311 c 0
 182 196 182 153 184 101 c 0
 186 47 201 35 266 35 c 0
 313 35 367 40 425 51 c 1
 428 48 l 1
 426 36 424 13 424 -2 c 1
 337 0 242 1 176 1 c 0
 146 1 119 0 97 -1 c 1
 94 2 l 1
 103 81 107 200 107 254 c 0
EndSplineSet
Substitution2: "Podtablica 'case' Warianty wersalikowe w +AUIA-aci+AUQA-skie w tablicy 5" Lslash
Substitution2: "Podtablica 'aalt' Dost+ARkA-p do wszystkich alternatyw w +AUIA-aci+AUQA-skie w tablicy 0" Lslash
EndChar

StartChar: ldot
Encoding: 320 320 239
Width: 440
GlyphClass: 1
Flags: MW
HStem: -2 20 665 20<193 193>
LayerCount: 2
Fore
SplineSet
183 325 m 2
 183 227 183 153 185 101 c 0
 187 47 202 35 267 35 c 0
 314 35 368 40 426 51 c 1
 429 48 l 1
 427 36 425 13 425 -2 c 1
 338 0 243 1 177 1 c 0
 147 1 120 0 98 -1 c 1
 95 2 l 1
 104 81 108 235 108 325 c 2
 108 375 l 2
 108 465 105 599 99 677 c 1
 102 680 l 1
 126 680 163 682 193 685 c 1
 196 682 l 1
 187 599 183 465 183 375 c 2
 183 325 l 2
420 432 m 0
 420 406 399 385 373 385 c 0
 347 385 326 406 326 432 c 0
 326 459 347 479 373 479 c 0
 399 479 420 459 420 432 c 0
EndSplineSet
Substitution2: "Podtablica 'case' Warianty wersalikowe w +AUIA-aci+AUQA-skie w tablicy 5" Ldot
Substitution2: "Podtablica 'aalt' Dost+ARkA-p do wszystkich alternatyw w +AUIA-aci+AUQA-skie w tablicy 0" Ldot
EndChar

StartChar: nacute
Encoding: 324 324 240
Width: 787
GlyphClass: 1
Flags: MW
HStem: -11 20
LayerCount: 2
Fore
SplineSet
338 731 m 1
 369 773 406 826 423 851 c 0
 429 862 435 870 449 870 c 0
 463 870 480 866 480 851 c 0
 480 845 474 839 468 833 c 0
 443 808 390 756 362 729 c 1
 340 729 l 1
 338 731 l 1
585 206 m 0
 607 187 619 180 626 180 c 0
 638 180 643 204 643 250 c 2
 643 262 l 2
 643 407 633 593 623 677 c 1
 626 680 l 1
 650 680 672 681 693 683 c 1
 696 680 l 1
 688 600 685 418 685 331 c 2
 685 281 l 2
 685 179 686 48 689 -2 c 1
 673 -11 l 1
 588 89 343 346 207 480 c 0
 190 497 171 511 161 511 c 0
 148 511 144 493 144 461 c 2
 144 441 l 2
 144 283 154 88 164 3 c 1
 161 0 l 1
 137 0 115 -1 94 -3 c 1
 91 0 l 1
 99 81 102 263 102 350 c 2
 102 400 l 2
 102 526 100 657 99 697 c 1
 112 702 l 1
 260 529 477 310 585 206 c 0
EndSplineSet
Substitution2: "Podtablica 'case' Warianty wersalikowe w +AUIA-aci+AUQA-skie w tablicy 5" Nacute
Substitution2: "Podtablica 'aalt' Dost+ARkA-p do wszystkich alternatyw w +AUIA-aci+AUQA-skie w tablicy 0" Nacute
EndChar

StartChar: ncaron
Encoding: 328 328 241
Width: 787
GlyphClass: 1
Flags: MW
HStem: -11 20
LayerCount: 2
Fore
SplineSet
548 848 m 1
 548 844 l 1
 511 816 455 771 414 734 c 1
 400 734 l 1
 359 771 303 816 266 844 c 1
 266 848 l 1
 292 852 l 1
 407 786 l 1
 522 852 l 1
 548 848 l 1
585 206 m 0
 607 187 619 180 626 180 c 0
 638 180 643 204 643 250 c 2
 643 262 l 2
 643 407 633 593 623 677 c 1
 626 680 l 1
 650 680 672 681 693 683 c 1
 696 680 l 1
 688 600 685 418 685 331 c 2
 685 281 l 2
 685 179 686 48 689 -2 c 1
 673 -11 l 1
 588 89 343 346 207 480 c 0
 190 497 171 511 161 511 c 0
 148 511 144 493 144 461 c 2
 144 441 l 2
 144 283 154 88 164 3 c 1
 161 0 l 1
 137 0 115 -1 94 -3 c 1
 91 0 l 1
 99 81 102 263 102 350 c 2
 102 400 l 2
 102 526 100 657 99 697 c 1
 112 702 l 1
 260 529 477 310 585 206 c 0
EndSplineSet
Substitution2: "Podtablica 'case' Warianty wersalikowe w +AUIA-aci+AUQA-skie w tablicy 5" Ncaron
Substitution2: "Podtablica 'aalt' Dost+ARkA-p do wszystkich alternatyw w +AUIA-aci+AUQA-skie w tablicy 0" Ncaron
EndChar

StartChar: ntilde
Encoding: 241 241 242
Width: 787
GlyphClass: 1
Flags: MW
HStem: -11 20
LayerCount: 2
Fore
SplineSet
585 206 m 0
 607 187 619 180 626 180 c 0
 638 180 643 204 643 250 c 2
 643 262 l 2
 643 407 633 593 623 677 c 1
 626 680 l 1
 650 680 672 681 693 683 c 1
 696 680 l 1
 688 600 685 418 685 331 c 2
 685 281 l 2
 685 179 686 48 689 -2 c 1
 673 -11 l 1
 588 89 343 346 207 480 c 0
 190 497 171 511 161 511 c 0
 148 511 144 493 144 461 c 2
 144 441 l 2
 144 283 154 88 164 3 c 1
 161 0 l 1
 137 0 115 -1 94 -3 c 1
 91 0 l 1
 99 81 102 263 102 350 c 2
 102 400 l 2
 102 526 100 657 99 697 c 1
 112 702 l 1
 260 529 477 310 585 206 c 0
561 832 m 1
 546 785 520 742 472 742 c 0
 443 742 421 754 390 776 c 0
 365 793 346 802 329 802 c 0
 302 802 284 789 271 747 c 1
 252 756 l 1
 268 805 290 847 346 847 c 0
 372 847 397 836 428 815 c 0
 450 799 472 786 489 786 c 0
 516 786 529 805 542 840 c 1
 561 832 l 1
EndSplineSet
Substitution2: "Podtablica 'case' Warianty wersalikowe w +AUIA-aci+AUQA-skie w tablicy 5" Ntilde
Substitution2: "Podtablica 'aalt' Dost+ARkA-p do wszystkich alternatyw w +AUIA-aci+AUQA-skie w tablicy 0" Ntilde
EndChar

StartChar: ncommaaccent
Encoding: 326 326 243
Width: 787
GlyphClass: 1
Flags: MW
HStem: -11 20
LayerCount: 2
Fore
SplineSet
425 -143 m 0
 425 -113 410 -85 371 -85 c 0
 366 -85 357 -86 352 -87 c 1
 349 -78 l 1
 361 -65 377 -52 387 -44 c 1
 451 -44 470 -92 470 -127 c 0
 470 -187 420 -230 382 -242 c 1
 363 -230 l 1
 363 -226 l 1
 401 -209 425 -180 425 -143 c 0
585 206 m 0
 607 187 619 180 626 180 c 0
 638 180 643 204 643 250 c 2
 643 262 l 2
 643 407 633 593 623 677 c 1
 626 680 l 1
 650 680 672 681 693 683 c 1
 696 680 l 1
 688 600 685 418 685 331 c 2
 685 281 l 2
 685 179 686 48 689 -2 c 1
 673 -11 l 1
 588 89 343 346 207 480 c 0
 190 497 171 511 161 511 c 0
 148 511 144 493 144 461 c 2
 144 441 l 2
 144 283 154 88 164 3 c 1
 161 0 l 1
 137 0 115 -1 94 -3 c 1
 91 0 l 1
 99 81 102 263 102 350 c 2
 102 400 l 2
 102 526 100 657 99 697 c 1
 112 702 l 1
 260 529 477 310 585 206 c 0
EndSplineSet
Substitution2: "Podtablica 'case' Warianty wersalikowe w +AUIA-aci+AUQA-skie w tablicy 5" Ncommaaccent
Substitution2: "Podtablica 'aalt' Dost+ARkA-p do wszystkich alternatyw w +AUIA-aci+AUQA-skie w tablicy 0" Ncommaaccent
EndChar

StartChar: napostrophe
Encoding: 329 329 244
Width: 787
GlyphClass: 1
Flags: MW
HStem: -11 20
LayerCount: 2
Fore
SplineSet
585 206 m 0
 607 187 619 180 626 180 c 0
 638 180 643 204 643 250 c 2
 643 262 l 2
 643 407 633 593 623 677 c 1
 626 680 l 1
 650 680 672 681 693 683 c 1
 696 680 l 1
 688 600 685 418 685 331 c 2
 685 281 l 2
 685 179 686 48 689 -2 c 1
 673 -11 l 1
 588 89 343 346 207 480 c 0
 190 497 171 511 161 511 c 0
 148 511 144 493 144 461 c 2
 144 441 l 2
 144 283 154 88 164 3 c 1
 161 0 l 1
 137 0 115 -1 94 -3 c 1
 91 0 l 1
 99 81 102 263 102 350 c 2
 102 400 l 2
 102 526 100 657 99 697 c 1
 112 702 l 1
 260 529 477 310 585 206 c 0
EndSplineSet
Ligature2: "Podtablica 'liga' Ligatury zwyk+AUIA-e w +AUIA-aci+AUQA-skie w tablicy 19" guillemotright n
Ligature2: "Podtablica 'liga' Ligatury zwyk+AUIA-e w +AUIA-aci+AUQA-skie w tablicy 19" guillemotleft n
Ligature2: "Podtablica 'liga' Ligatury zwyk+AUIA-e w +AUIA-aci+AUQA-skie w tablicy 19" guilsinglright n
Ligature2: "Podtablica 'liga' Ligatury zwyk+AUIA-e w +AUIA-aci+AUQA-skie w tablicy 19" guilsinglleft n
Ligature2: "Podtablica 'liga' Ligatury zwyk+AUIA-e w +AUIA-aci+AUQA-skie w tablicy 19" quotedblbase n
Ligature2: "Podtablica 'liga' Ligatury zwyk+AUIA-e w +AUIA-aci+AUQA-skie w tablicy 19" quotesinglbase n
Ligature2: "Podtablica 'liga' Ligatury zwyk+AUIA-e w +AUIA-aci+AUQA-skie w tablicy 19" quotedblright n
Ligature2: "Podtablica 'liga' Ligatury zwyk+AUIA-e w +AUIA-aci+AUQA-skie w tablicy 19" quotedblleft n
Ligature2: "Podtablica 'liga' Ligatury zwyk+AUIA-e w +AUIA-aci+AUQA-skie w tablicy 19" quoteright n
Ligature2: "Podtablica 'liga' Ligatury zwyk+AUIA-e w +AUIA-aci+AUQA-skie w tablicy 19" quoteleft n
Ligature2: "Podtablica 'liga' Ligatury zwyk+AUIA-e w +AUIA-aci+AUQA-skie w tablicy 19" quotesingle n
Ligature2: "Podtablica 'liga' Ligatury zwyk+AUIA-e w +AUIA-aci+AUQA-skie w tablicy 19" quotedbl n
EndChar

StartChar: ograve
Encoding: 242 242 245
Width: 855
GlyphClass: 1
Flags: MW
HStem: -17 20 677 20<314 543.5>
LayerCount: 2
Fore
SplineSet
793 340 m 0
 793 125 649 -17 426 -17 c 0
 205 -17 62 122 62 340 c 0
 62 558 202 697 426 697 c 0
 661 697 793 560 793 340 c 0
702 340 m 0
 702 553 596 665 426 665 c 0
 260 665 153 560 153 340 c 0
 153 126 263 17 426 17 c 0
 593 17 702 125 702 340 c 0
452 731 m 1
 450 729 l 1
 428 729 l 1
 400 756 347 808 322 833 c 0
 316 839 310 845 310 851 c 0
 310 866 327 870 341 870 c 0
 355 870 361 862 367 851 c 0
 384 826 421 773 452 731 c 1
EndSplineSet
Substitution2: "Podtablica 'case' Warianty wersalikowe w +AUIA-aci+AUQA-skie w tablicy 5" Ograve
Substitution2: "Podtablica 'aalt' Dost+ARkA-p do wszystkich alternatyw w +AUIA-aci+AUQA-skie w tablicy 0" Ograve
EndChar

